<?xml version="1.0" encoding="utf-8"?>
<!-- Generator: Adobe Illustrator 16.0.0, SVG Export Plug-In . SVG Version: 6.00 Build 0)  -->
<!DOCTYPE svg PUBLIC "-//W3C//DTD SVG 1.1//EN" "http://www.w3.org/Graphics/SVG/1.1/DTD/svg11.dtd">
<svg version="1.1" id="Layer_1" xmlns="http://www.w3.org/2000/svg" xmlns:xlink="http://www.w3.org/1999/xlink" x="0px" y="0px"
	 width="1400px" height="980px" viewBox="0 0 1400 980" enable-background="new 0 0 1400 980" xml:space="preserve">
<g>
	<g>
		<g>
			<rect fill="#FFFFFF" width="1400" height="980"/>
		</g>
	</g>
	<g>
		<polygon fill="#FFEA8D" points="1103.2,589.9 1050.8,625.6 1103.2,625.6 		"/>
		<path d="M1103.2,628.9h-52.4c-1.5,0-2.7-0.9-3.2-2.3c-0.4-1.4,0.1-2.9,1.3-3.7l52.4-35.7c1-0.7,2.3-0.8,3.4-0.2
			c1.1,0.6,1.8,1.7,1.8,2.9v35.7C1106.5,627.5,1105,628.9,1103.2,628.9z M1061.5,622.3h38.3v-26.1L1061.5,622.3z"/>
	</g>
	<g>
		<polygon fill="#FFEA8D" points="1301.1,625.6 1248.7,589.9 1248.7,625.6 		"/>
		<path d="M1301.1,628.9h-52.4c-1.8,0-3.3-1.5-3.3-3.3v-35.7c0-1.2,0.7-2.4,1.8-2.9c1.1-0.6,2.4-0.5,3.4,0.2l52.4,35.7
			c1.2,0.8,1.7,2.3,1.3,3.7C1303.8,628,1302.5,628.9,1301.1,628.9z M1252,622.3h38.3l-38.3-26.1V622.3z"/>
	</g>
	<g>
		<g>
			<rect x="669.2" y="342.5" fill="#008CBB" width="106.1" height="306.3"/>
			<path fill="#231F20" d="M775.3,652.2H669.2c-1.8,0-3.3-1.5-3.3-3.3V342.5c0-1.8,1.5-3.3,3.3-3.3h106.1c1.8,0,3.3,1.5,3.3,3.3
				v306.3C778.6,650.7,777.1,652.2,775.3,652.2z M672.5,645.5h99.4V345.8h-99.4V645.5z"/>
		</g>
		<g>
			<path fill="#87E4FF" d="M952.7,630.8c2.9-6.8,4.6-14.2,4.6-22.1c0-30.7-24.9-55.5-55.5-55.5c-4.2,0-8.2,0.5-12.1,1.4
				c-4.8-67.4-61-120.7-129.6-120.7c-62.4,0-114.4,43.9-127.1,102.4c-8.6-1.9-17.5-3-26.8-3c-65.6,0-118.8,50.6-118.8,113
				c0,62.4,53.2,113,118.8,113h38.7h151.9h133.1c36.6,0,66.3-29.7,66.3-66.3C996.2,664.4,978.1,640.1,952.7,630.8z"/>
			<path fill="#231F20" d="M929.9,762.6H606.2c-67.3,0-122.1-52.2-122.1-116.3c0-64.1,54.8-116.3,122.1-116.3
				c7.9,0,16.1,0.8,24.3,2.4c14.4-59.2,68.4-101.9,129.6-101.9c68.3,0,125.9,52.4,132.6,120.1c36.1-5.7,67.9,22.7,67.9,58.1
				c0,6.9-1.2,13.7-3.6,20.2c25.6,10.8,42.5,36.1,42.5,64.1C999.5,731.4,968.3,762.6,929.9,762.6z M606.2,536.7
				c-63.7,0-115.5,49.2-115.5,109.7c0,60.5,51.8,109.7,115.5,109.7h323.7c34.7,0,63-28.3,63-63c0-26.3-16.6-50-41.4-59.1
				c-0.9-0.3-1.5-1-1.9-1.8c-0.4-0.8-0.4-1.8,0-2.6c2.9-6.6,4.3-13.6,4.3-20.7c0-32.5-30.2-58.3-63.6-50.9c-0.9,0.2-1.9,0-2.7-0.6
				c-0.8-0.6-1.3-1.5-1.3-2.4c-4.7-65.9-60.2-117.6-126.3-117.6c-59.2,0-111.3,42-123.8,99.8c-0.2,0.9-0.7,1.6-1.5,2.1
				c-0.7,0.5-1.6,0.6-2.5,0.4C623.4,537.7,614.7,536.7,606.2,536.7z"/>
		</g>
		<g>
			<rect x="669.3" y="295.8" fill="#F1F2F2" width="105.9" height="46.7"/>
			<path fill="#231F20" d="M775.2,345.8H669.3c-1.8,0-3.3-1.5-3.3-3.3v-46.7c0-1.8,1.5-3.3,3.3-3.3h105.9c1.8,0,3.3,1.5,3.3,3.3
				v46.7C778.5,344.3,777,345.8,775.2,345.8z M672.6,339.2h99.3v-40.1h-99.3V339.2z"/>
		</g>
		<g>
			<g>
				<path fill="#FFEFE5" d="M761.9,170.6c-7.3,0-13.2,5.9-13.2,13.2c0-7.3-5.9-13.2-13.2-13.2c-7.3,0-13.2,5.9-13.2,13.2
					c0-7.3-5.9-13.2-13.2-13.2c-7.3,0-13.2,5.9-13.2,13.2v-29.2c0-7.3-5.9-13.2-13.2-13.2c-7.3,0-13.2,5.9-13.2,13.2v53.2v11v77
					h105.7V248v-40.2v-24C775.1,176.5,769.2,170.6,761.9,170.6z"/>
				<path fill="#231F20" d="M775.1,299.1H669.4c-1.8,0-3.3-1.5-3.3-3.3V154.6c0-9.1,7.4-16.5,16.5-16.5s16.5,7.4,16.5,16.5v16
					c2.8-2.1,6.2-3.3,9.9-3.3c5.4,0,10.2,2.6,13.2,6.6c3-4,7.8-6.6,13.2-6.6c5.4,0,10.2,2.6,13.2,6.6c3-4,7.8-6.6,13.2-6.6
					c9.1,0,16.5,7.4,16.5,16.5v112C778.4,297.6,776.9,299.1,775.1,299.1z M672.7,292.5h99.1V183.8c0-5.5-4.4-9.9-9.9-9.9
					c-5.5,0-9.9,4.4-9.9,9.9c0,1.8-1.5,3.3-3.3,3.3c-1.8,0-3.3-1.5-3.3-3.3c0-5.5-4.4-9.9-9.9-9.9c-5.5,0-9.9,4.4-9.9,9.9
					c0,1.8-1.5,3.3-3.3,3.3s-3.3-1.5-3.3-3.3c0-5.5-4.4-9.9-9.9-9.9c-5.5,0-9.9,4.4-9.9,9.9c0,1.8-1.5,3.3-3.3,3.3
					c-1.8,0-3.3-1.5-3.3-3.3v-29.2c0-5.5-4.4-9.9-9.9-9.9c-5.5,0-9.9,4.4-9.9,9.9V292.5z"/>
			</g>
			<g>
				<path fill="#231F20" d="M695.8,227.6c-1.8,0-3.3-1.5-3.3-3.3v-40.5c0-1.8,1.5-3.3,3.3-3.3c1.8,0,3.3,1.5,3.3,3.3v40.5
					C699.1,226.2,697.6,227.6,695.8,227.6z"/>
			</g>
			<g>
				<path fill="#231F20" d="M722.2,227.6c-1.8,0-3.3-1.5-3.3-3.3v-40.5c0-1.8,1.5-3.3,3.3-3.3s3.3,1.5,3.3,3.3v40.5
					C725.5,226.2,724,227.6,722.2,227.6z"/>
			</g>
			<g>
				<path fill="#231F20" d="M748.6,227.6c-1.8,0-3.3-1.5-3.3-3.3v-40.5c0-1.8,1.5-3.3,3.3-3.3c1.8,0,3.3,1.5,3.3,3.3v40.5
					C752,226.2,750.5,227.6,748.6,227.6z"/>
			</g>
		</g>
		<g>
			<rect x="492.7" y="338.1" fill="#FFA6A1" width="133.1" height="133.1"/>
			<path fill="#231F20" d="M625.8,474.5H492.7c-1.8,0-3.3-1.5-3.3-3.3V338.1c0-1.8,1.5-3.3,3.3-3.3h133.1c1.8,0,3.3,1.5,3.3,3.3
				v133.1C629.1,473.1,627.6,474.5,625.8,474.5z M496,467.9h126.5V341.4H496V467.9z"/>
		</g>
		<g>
			<g>
				<polygon fill="#FFFFFF" points="550.8,442.1 512.4,403.7 528.7,387.5 550.8,409.6 589.8,370.7 606.1,386.9 				"/>
				<path fill="#231F20" d="M550.8,445.4c-0.8,0-1.7-0.3-2.3-1L510.1,406c-0.6-0.6-1-1.5-1-2.3s0.3-1.7,1-2.3l16.3-16.3
					c1.2-1.2,3.4-1.2,4.7,0l19.8,19.8l36.6-36.6c1.2-1.2,3.4-1.2,4.7,0l16.3,16.3c0.6,0.6,1,1.5,1,2.3s-0.3,1.7-1,2.3l-55.2,55.2
					C552.5,445.1,551.7,445.4,550.8,445.4z M517.1,403.7l33.7,33.7l50.5-50.5l-11.6-11.6L553.2,412c-1.2,1.2-3.4,1.2-4.7,0
					l-19.8-19.8L517.1,403.7z"/>
			</g>
		</g>
		<g>
			<path fill="#231F20" d="M842.4,559.3c-1.8,0-3.3-1.5-3.3-3.3c0-39.6-32.2-71.8-71.8-71.8c-1.8,0-3.3-1.5-3.3-3.3
				c0-1.8,1.5-3.3,3.3-3.3c43.3,0,78.5,35.2,78.5,78.5C845.7,557.8,844.2,559.3,842.4,559.3z"/>
		</g>
		<g>
			<path fill="#231F20" d="M530.9,652.2c-1.8,0-3.3-1.5-3.3-3.3c0-43.3,35.2-78.5,78.5-78.5c1.8,0,3.3,1.5,3.3,3.3s-1.5,3.3-3.3,3.3
				c-39.6,0-71.8,32.2-71.8,71.8C534.2,650.7,532.7,652.2,530.9,652.2z"/>
		</g>
		<g>
			<path fill="#231F20" d="M804.8,421.8c-1.8,0-3.3-1.5-3.3-3.3V275.4c0-1.8,1.5-3.3,3.3-3.3c1.8,0,3.3,1.5,3.3,3.3v143.1
				C808.1,420.3,806.7,421.8,804.8,421.8z"/>
		</g>
		<g>
			<path fill="#231F20" d="M836,437.2c-1.8,0-3.3-1.5-3.3-3.3v-91.4c0-1.8,1.5-3.3,3.3-3.3c1.8,0,3.3,1.5,3.3,3.3v91.4
				C839.3,435.8,837.9,437.2,836,437.2z"/>
		</g>
		<g>
			<circle fill="#F1F2F2" cx="692.1" cy="319.1" r="7.9"/>
			<path fill="#231F20" d="M692.1,330.3c-6.2,0-11.2-5-11.2-11.2c0-6.2,5-11.2,11.2-11.2c6.2,0,11.2,5,11.2,11.2
				C703.3,325.3,698.3,330.3,692.1,330.3z M692.1,314.6c-2.5,0-4.6,2.1-4.6,4.6s2.1,4.6,4.6,4.6s4.6-2.1,4.6-4.6
				S694.6,314.6,692.1,314.6z"/>
		</g>
		<g>
			<g>
				<polygon fill="#FFFFFF" points="818.5,594.7 693.3,594.7 693.3,804.6 857.2,804.6 857.2,633.4 				"/>
				<path fill="#231F20" d="M857.2,807.9H693.3c-1.8,0-3.3-1.5-3.3-3.3V594.7c0-1.8,1.5-3.3,3.3-3.3h125.1c0.9,0,1.7,0.3,2.3,1
					l38.7,38.7c0.6,0.6,1,1.5,1,2.3v171.3C860.5,806.5,859,807.9,857.2,807.9z M696.7,801.3h157.2V634.7L817.1,598H696.7V801.3z"/>
			</g>
			<g>
				<polygon fill="#FFFFFF" points="818.5,633.4 857.2,633.4 818.5,594.7 				"/>
				<path fill="#231F20" d="M857.2,636.7h-38.7c-1.8,0-3.3-1.5-3.3-3.3v-38.7c0-1.3,0.8-2.6,2-3.1c1.2-0.5,2.7-0.2,3.6,0.7
					l38.7,38.7c0.9,0.9,1.2,2.4,0.7,3.6C859.7,635.9,858.5,636.7,857.2,636.7z M821.8,630h27.3l-27.3-27.3V630z"/>
			</g>
			<g>
				<rect x="714.6" y="625.6" fill="#FFA6A1" width="25.4" height="25.4"/>
				<path fill="#231F20" d="M740,654.4h-25.4c-1.8,0-3.3-1.5-3.3-3.3v-25.4c0-1.8,1.5-3.3,3.3-3.3H740c1.8,0,3.3,1.5,3.3,3.3V651
					C743.3,652.9,741.9,654.4,740,654.4z M717.9,647.7h18.8v-18.8h-18.8V647.7z"/>
			</g>
			<g>
				<rect x="762.5" y="625.6" fill="#FFA6A1" width="25.4" height="25.4"/>
				<path fill="#231F20" d="M788,654.4h-25.4c-1.8,0-3.3-1.5-3.3-3.3v-25.4c0-1.8,1.5-3.3,3.3-3.3H788c1.8,0,3.3,1.5,3.3,3.3V651
					C791.3,652.9,789.8,654.4,788,654.4z M765.9,647.7h18.8v-18.8h-18.8V647.7z"/>
			</g>
			<g>
				<path fill="#231F20" d="M810.7,689.7h-96.1c-1.8,0-3.3-1.5-3.3-3.3c0-1.8,1.5-3.3,3.3-3.3h96.1c1.8,0,3.3,1.5,3.3,3.3
					C814.1,688.2,812.6,689.7,810.7,689.7z"/>
			</g>
			<g>
				<path fill="#231F20" d="M835.6,721.2h-121c-1.8,0-3.3-1.5-3.3-3.3c0-1.8,1.5-3.3,3.3-3.3h121c1.8,0,3.3,1.5,3.3,3.3
					C838.9,719.7,837.4,721.2,835.6,721.2z"/>
			</g>
			<g>
				<path fill="#231F20" d="M835.6,753.8h-121c-1.8,0-3.3-1.5-3.3-3.3c0-1.8,1.5-3.3,3.3-3.3h121c1.8,0,3.3,1.5,3.3,3.3
					C838.9,752.3,837.4,753.8,835.6,753.8z"/>
			</g>
		</g>
		<g>
			<path fill="#231F20" d="M433,312c-21.9,0-39.8-17.8-39.8-39.8c0-21.9,17.8-39.8,39.8-39.8c21.9,0,39.8,17.8,39.8,39.8
				C472.8,294.1,455,312,433,312z M433,239c-18.3,0-33.1,14.9-33.1,33.1s14.9,33.1,33.1,33.1c18.3,0,33.1-14.9,33.1-33.1
				S451.3,239,433,239z"/>
		</g>
		<g>
			<path fill="#231F20" d="M1013.9,543.9c-21.9,0-39.8-17.8-39.8-39.8c0-21.9,17.8-39.8,39.8-39.8s39.8,17.8,39.8,39.8
				C1053.7,526.1,1035.8,543.9,1013.9,543.9z M1013.9,471c-18.3,0-33.1,14.9-33.1,33.1s14.9,33.1,33.1,33.1
				c18.3,0,33.1-14.9,33.1-33.1S1032.2,471,1013.9,471z"/>
		</g>
		<g>
			<path fill="#231F20" d="M433,580.4c-21.9,0-39.8-17.8-39.8-39.8c0-21.9,17.8-39.8,39.8-39.8c21.9,0,39.8,17.8,39.8,39.8
				C472.8,562.5,455,580.4,433,580.4z M433,507.5c-18.3,0-33.1,14.9-33.1,33.1s14.9,33.1,33.1,33.1c18.3,0,33.1-14.9,33.1-33.1
				S451.3,507.5,433,507.5z"/>
		</g>
		<g>
			<path fill="#231F20" d="M433,506.3c-1.8,0-3.3-1.5-3.3-3.3V308.7c0-1.8,1.5-3.3,3.3-3.3c1.8,0,3.3,1.5,3.3,3.3V503
				C436.4,504.9,434.9,506.3,433,506.3z"/>
		</g>
		<g>
			<path fill="#231F20" d="M977.4,505.7h-75.1c-1.8,0-3.3-1.5-3.3-3.3c0-1.8,1.5-3.3,3.3-3.3h75.1c1.8,0,3.3,1.5,3.3,3.3
				C980.8,504.2,979.3,505.7,977.4,505.7z"/>
		</g>
		<g>
			<g>
				<rect x="1082.9" y="194" fill="#FFEA8D" width="58.9" height="233"/>
				<path d="M1141.8,430.3h-58.9c-1.8,0-3.3-1.5-3.3-3.3V194c0-1.8,1.5-3.3,3.3-3.3h58.9c1.8,0,3.3,1.5,3.3,3.3v233
					C1145.1,428.8,1143.6,430.3,1141.8,430.3z M1086.2,423.7h52.3V197.3h-52.3V423.7z"/>
			</g>
			<g>
				<g>
					<rect x="959.1" y="297.3" fill="#FFEA8D" width="58.9" height="129.7"/>
					<path d="M1018,430.3h-58.9c-1.8,0-3.3-1.5-3.3-3.3V297.3c0-1.8,1.5-3.3,3.3-3.3h58.9c1.8,0,3.3,1.5,3.3,3.3V427
						C1021.3,428.8,1019.9,430.3,1018,430.3z M962.4,423.7h52.3V300.6h-52.3V423.7z"/>
				</g>
				<g>
					<rect x="1206.7" y="77" fill="#FFEA8D" width="58.9" height="350"/>
					<path d="M1265.5,430.3h-58.9c-1.8,0-3.3-1.5-3.3-3.3V77c0-1.8,1.5-3.3,3.3-3.3h58.9c1.8,0,3.3,1.5,3.3,3.3v350
						C1268.9,428.8,1267.4,430.3,1265.5,430.3z M1210,423.7h52.3V80.4H1210V423.7z"/>
				</g>
				<g>
					<path d="M899.4,420.1c-1.1,0-2.2-0.6-2.8-1.6c-1-1.6-0.5-3.6,1.1-4.6l151.9-92.2c0.5-0.3,1.1-0.5,1.7-0.5h123.2L1310,172.1
						c1.2-1.4,3.3-1.5,4.7-0.2c1.4,1.2,1.5,3.3,0.2,4.7l-136.6,150.2c-0.6,0.7-1.5,1.1-2.5,1.1h-123.7l-151.1,91.7
						C900.6,419.9,900,420.1,899.4,420.1z"/>
				</g>
				<g>
					<path fill="#87E4FF" d="M1332.1,174.4c0,10.8-8.8,19.6-19.6,19.6c-10.8,0-19.6-8.8-19.6-19.6c0-10.9,8.8-19.6,19.6-19.6
						C1323.3,154.7,1332.1,163.5,1332.1,174.4z"/>
					<path fill="#231F20" d="M1312.5,197.3c-12.7,0-22.9-10.3-22.9-22.9s10.3-22.9,22.9-22.9c12.7,0,22.9,10.3,22.9,22.9
						S1325.1,197.3,1312.5,197.3z M1312.5,158c-9,0-16.3,7.3-16.3,16.3c0,9,7.3,16.3,16.3,16.3s16.3-7.3,16.3-16.3
						C1328.8,165.4,1321.5,158,1312.5,158z"/>
				</g>
				<g>
					<path fill="#87E4FF" d="M1195.6,323.3c0,10.8-8.8,19.6-19.6,19.6c-10.8,0-19.6-8.8-19.6-19.6c0-10.9,8.8-19.6,19.6-19.6
						C1186.8,303.7,1195.6,312.4,1195.6,323.3z"/>
					<path fill="#231F20" d="M1175.9,346.2c-12.7,0-22.9-10.3-22.9-22.9c0-12.7,10.3-22.9,22.9-22.9c12.7,0,22.9,10.3,22.9,22.9
						C1198.9,335.9,1188.6,346.2,1175.9,346.2z M1175.9,307c-9,0-16.3,7.3-16.3,16.3c0,9,7.3,16.3,16.3,16.3c9,0,16.3-7.3,16.3-16.3
						C1192.2,314.3,1184.9,307,1175.9,307z"/>
				</g>
				<g>
					<path fill="#87E4FF" d="M1070.1,323.3c0,10.8-8.8,19.6-19.6,19.6s-19.6-8.8-19.6-19.6c0-10.9,8.8-19.6,19.6-19.6
						S1070.1,312.4,1070.1,323.3z"/>
					<path fill="#231F20" d="M1050.5,346.2c-12.7,0-22.9-10.3-22.9-22.9c0-12.7,10.3-22.9,22.9-22.9c12.7,0,22.9,10.3,22.9,22.9
						C1073.4,335.9,1063.1,346.2,1050.5,346.2z M1050.5,307c-9,0-16.3,7.3-16.3,16.3c0,9,7.3,16.3,16.3,16.3c9,0,16.3-7.3,16.3-16.3
						C1066.8,314.3,1059.5,307,1050.5,307z"/>
				</g>
				<g>
					<path fill="#87E4FF" d="M919,416.8c0,10.8-8.8,19.6-19.6,19.6c-10.8,0-19.6-8.8-19.6-19.6c0-10.9,8.8-19.6,19.6-19.6
						C910.2,397.1,919,405.9,919,416.8z"/>
					<path fill="#231F20" d="M899.4,439.7c-12.7,0-22.9-10.3-22.9-22.9s10.3-22.9,22.9-22.9s22.9,10.3,22.9,22.9
						S912,439.7,899.4,439.7z M899.4,400.4c-9,0-16.3,7.3-16.3,16.3c0,9,7.3,16.3,16.3,16.3c9,0,16.3-7.3,16.3-16.3
						C915.7,407.8,908.4,400.4,899.4,400.4z"/>
				</g>
			</g>
		</g>
		<g>
			<polygon fill="#FFEA8D" points="1103.2,625.6 1050.8,625.6 1103.2,672.3 			"/>
			<path d="M1103.2,675.6c-0.8,0-1.6-0.3-2.2-0.8l-52.4-46.7c-1-0.9-1.4-2.4-0.9-3.7c0.5-1.3,1.7-2.1,3.1-2.1h52.4
				c1.8,0,3.3,1.5,3.3,3.3v46.7c0,1.3-0.8,2.5-2,3C1104.1,675.5,1103.6,675.6,1103.2,675.6z M1059.5,628.9l40.4,36v-36H1059.5z"/>
		</g>
		<g>
			<polygon fill="#FFEA8D" points="1248.7,672.3 1301.1,625.6 1248.7,625.6 			"/>
			<path d="M1248.7,675.6c-0.5,0-0.9-0.1-1.4-0.3c-1.2-0.5-2-1.7-2-3v-46.7c0-1.8,1.5-3.3,3.3-3.3h52.4c1.4,0,2.6,0.8,3.1,2.1
				c0.5,1.3,0.1,2.7-0.9,3.7l-52.4,46.7C1250.3,675.3,1249.5,675.6,1248.7,675.6z M1252,628.9v36l40.4-36H1252z"/>
		</g>
		<g>
			<polygon fill="#FFEA8D" points="1103.2,672.3 1050.8,625.6 1050.8,774.3 1137.7,722.6 1150.9,714.8 			"/>
			<path d="M1050.8,777.6c-0.6,0-1.1-0.1-1.6-0.4c-1-0.6-1.7-1.7-1.7-2.9V625.6c0-1.3,0.8-2.5,2-3c1.2-0.5,2.6-0.3,3.6,0.5
				l100.1,89.2c0.8,0.7,1.2,1.7,1.1,2.8c-0.1,1.1-0.7,2-1.6,2.5l-100.1,59.5C1051.9,777.4,1051.4,777.6,1050.8,777.6z M1054.1,633
				v135.4l91.2-54.2L1054.1,633z"/>
		</g>
		<g>
			<polygon fill="#FFEA8D" points="1248.7,672.3 1201,714.8 1214.1,722.6 1301.1,774.3 1301.1,625.6 			"/>
			<path d="M1301.1,777.6c-0.6,0-1.2-0.2-1.7-0.5l-100.1-59.5c-0.9-0.5-1.5-1.5-1.6-2.5c-0.1-1.1,0.3-2.1,1.1-2.8l100.1-89.2
				c1-0.9,2.4-1.1,3.6-0.5c1.2,0.5,2,1.7,2,3v148.6c0,1.2-0.6,2.3-1.7,2.9C1302.2,777.4,1301.7,777.6,1301.1,777.6z M1206.5,714.3
				l91.2,54.2V633L1206.5,714.3z"/>
		</g>
		<g>
			<polygon fill="#FFEA8D" points="1214.1,722.6 1201,714.8 1175.9,699.9 1150.9,714.8 1137.7,722.6 1050.8,774.3 1301.1,774.3 			
				"/>
			<path d="M1301.1,777.6h-250.3c-1.5,0-2.8-1-3.2-2.4c-0.4-1.4,0.2-3,1.5-3.7l125.2-74.3c1-0.6,2.3-0.6,3.4,0l125.2,74.3
				c1.3,0.8,1.9,2.3,1.5,3.7C1303.9,776.6,1302.6,777.6,1301.1,777.6z M1062.8,770.9H1289l-113.1-67.1L1062.8,770.9z"/>
		</g>
		<g>
			<path fill="#231F20" d="M1150.9,718.1c-0.8,0-1.6-0.3-2.2-0.8l-47.7-42.5c-0.7-0.6-1.1-1.5-1.1-2.5V491.9c0-1.8,1.5-3.3,3.3-3.3
				h145.5c1.8,0,3.3,1.5,3.3,3.3v180.4c0,0.9-0.4,1.8-1.1,2.5l-47.7,42.5c-1.1,1-2.7,1.1-3.9,0.4l-23.3-13.9l-23.3,13.9
				C1152.1,718,1151.5,718.1,1150.9,718.1z M1175.9,696.6c0.6,0,1.2,0.2,1.7,0.5l22.9,13.6l44.8-39.9V495.2h-138.9v175.6l44.8,39.9
				l22.9-13.6C1174.8,696.8,1175.3,696.6,1175.9,696.6z"/>
		</g>
		<g>
			<rect x="1175.9" y="836.1" fill="#008CBB" width="72.8" height="72.8"/>
			<path fill="#231F20" d="M1248.7,912.2h-72.8c-1.8,0-3.3-1.5-3.3-3.3v-72.8c0-1.8,1.5-3.3,3.3-3.3h72.8c1.8,0,3.3,1.5,3.3,3.3
				v72.8C1252,910.7,1250.5,912.2,1248.7,912.2z M1179.2,905.5h66.1v-66.1h-66.1V905.5z"/>
		</g>
		<g>
			<polygon fill="#F1F2F2" points="1007,836.1 976.6,783.4 946.1,836.1 559.2,836.1 559.2,908.8 1123.5,908.8 1123.5,836.1 			"/>
			<path fill="#231F20" d="M1123.5,912.2H559.2c-1.8,0-3.3-1.5-3.3-3.3v-72.8c0-1.8,1.5-3.3,3.3-3.3h385l29.5-51
				c1.2-2.1,4.6-2.1,5.7,0l29.5,51h114.6c1.8,0,3.3,1.5,3.3,3.3v72.8C1126.8,910.7,1125.3,912.2,1123.5,912.2z M562.6,905.5h557.6
				v-66.1H1007c-1.2,0-2.3-0.6-2.9-1.7L976.6,790L949,837.8c-0.6,1-1.7,1.7-2.9,1.7H562.6V905.5z"/>
		</g>
		<g>
			<path fill="#008CBB" d="M308.7,255.6c0,46.7-37.8,84.5-84.5,84.5c-46.7,0-84.5-37.8-84.5-84.5c0-46.7,37.8-84.5,84.5-84.5
				C270.8,171.1,308.7,208.9,308.7,255.6z"/>
			<path fill="#231F20" d="M224.2,343.4c-48.4,0-87.8-39.4-87.8-87.8s39.4-87.8,87.8-87.8s87.8,39.4,87.8,87.8
				S272.6,343.4,224.2,343.4z M224.2,174.4c-44.8,0-81.2,36.4-81.2,81.2s36.4,81.2,81.2,81.2s81.2-36.4,81.2-81.2
				S268.9,174.4,224.2,174.4z"/>
		</g>
		<g>
			<path d="M342.8,130.4h-56.3c-1.8,0-3.3-1.5-3.3-3.3V70.8c0-1.3,0.8-2.6,2-3.1c1.2-0.5,2.7-0.2,3.6,0.7l56.3,56.3
				c0.9,0.9,1.2,2.4,0.7,3.6C345.3,129.6,344.1,130.4,342.8,130.4z M289.8,123.8h45l-45-45V123.8z"/>
		</g>
		<g>
			<path d="M342.8,421.8H105.6c-1.8,0-3.3-1.5-3.3-3.3V70.8c0-1.8,1.5-3.3,3.3-3.3h180.9c0.9,0,1.7,0.3,2.3,1l56.3,56.3
				c0.6,0.6,1,1.5,1,2.3v291.3C346.1,420.3,344.6,421.8,342.8,421.8z M108.9,415.1h230.6V128.5l-54.4-54.4H108.9V415.1z"/>
		</g>
		<g>
			<path d="M892,221.9h-60.1c-1.8,0-3.3-1.5-3.3-3.3c0-1.8,1.5-3.3,3.3-3.3H892c1.8,0,3.3,1.5,3.3,3.3
				C895.3,220.4,893.8,221.9,892,221.9z"/>
		</g>
		<g>
			<path d="M883.4,130.4h-52.6c-1.8,0-3.3-1.5-3.3-3.3c0-1.8,1.5-3.3,3.3-3.3h52.6c1.8,0,3.3,1.5,3.3,3.3
				C886.8,129,885.3,130.4,883.4,130.4z"/>
		</g>
		<g>
			<path d="M977.4,130.4h-26.3c-1.8,0-3.3-1.5-3.3-3.3c0-1.8,1.5-3.3,3.3-3.3h26.3c1.8,0,3.3,1.5,3.3,3.3
				C980.8,129,979.3,130.4,977.4,130.4z"/>
		</g>
		<g>
			<path d="M597.9,255.5h-57.6c-1.8,0-3.3-1.5-3.3-3.3c0-1.8,1.5-3.3,3.3-3.3h57.6c1.8,0,3.3,1.5,3.3,3.3
				C601.2,254,599.7,255.5,597.9,255.5z"/>
		</g>
		<g>
			<path d="M564.2,187.1h-66.6c-1.8,0-3.3-1.5-3.3-3.3c0-1.8,1.5-3.3,3.3-3.3h66.6c1.8,0,3.3,1.5,3.3,3.3
				C567.5,185.6,566,187.1,564.2,187.1z"/>
		</g>
		<g>
			<path d="M586.6,118.7h-26.4c-1.8,0-3.3-1.5-3.3-3.3c0-1.8,1.5-3.3,3.3-3.3h26.4c1.8,0,3.3,1.5,3.3,3.3
				C590,117.3,588.5,118.7,586.6,118.7z"/>
		</g>
		<g>
			<path d="M484.5,118.7H454c-1.8,0-3.3-1.5-3.3-3.3c0-1.8,1.5-3.3,3.3-3.3h30.4c1.8,0,3.3,1.5,3.3,3.3
				C487.8,117.3,486.3,118.7,484.5,118.7z"/>
		</g>
		<g>
			<path fill="#231F20" d="M775.1,875.8H586.6c-1.8,0-3.3-1.5-3.3-3.3s1.5-3.3,3.3-3.3h188.4c1.8,0,3.3,1.5,3.3,3.3
				S776.9,875.8,775.1,875.8z"/>
		</g>
		<g>
			<path fill="#231F20" d="M879.8,875.8h-61.3c-1.8,0-3.3-1.5-3.3-3.3s1.5-3.3,3.3-3.3h61.3c1.8,0,3.3,1.5,3.3,3.3
				S881.6,875.8,879.8,875.8z"/>
		</g>
		<g>
			<path fill="#231F20" d="M1093.7,875.8H919c-1.8,0-3.3-1.5-3.3-3.3s1.5-3.3,3.3-3.3h174.7c1.8,0,3.3,1.5,3.3,3.3
				S1095.5,875.8,1093.7,875.8z"/>
		</g>
		<g>
			<g>
				<path fill="#FFA6A1" d="M219.6,599.8v90.3c0,37.4,30.3,67.7,67.7,67.7h56.4c37.4,0,67.7-30.3,67.7-67.7v-90.3H219.6z"/>
				<path fill="#231F20" d="M343.8,761.1h-56.4c-39.2,0-71-31.9-71-71v-90.3c0-1.8,1.5-3.3,3.3-3.3h191.9c1.8,0,3.3,1.5,3.3,3.3
					v90.3C414.8,729.3,383,761.1,343.8,761.1z M222.9,603.1v87c0,35.5,28.9,64.4,64.4,64.4h56.4c35.5,0,64.4-28.9,64.4-64.4v-87
					H222.9z"/>
			</g>
			<g>
				<path fill="#F1F2F2" d="M181.3,465.9c-43.7,0-79.2,35.5-79.2,79.2v93.8h27.5v-23.3h-13.2v-14.4l13.2-13.2v-43
					c0-28.5,23.2-51.7,51.7-51.7c28.5,0,51.7,23.2,51.7,51.7v54.5h27.5V545C260.5,501.4,225,465.9,181.3,465.9z"/>
				<path fill="#231F20" d="M129.6,642.2h-27.5c-1.8,0-3.3-1.5-3.3-3.3V545c0-45.5,37-82.5,82.5-82.5c45.5,0,82.5,37,82.5,82.5v54.5
					c0,1.8-1.5,3.3-3.3,3.3H233c-1.8,0-3.3-1.5-3.3-3.3V545c0-26.7-21.7-48.3-48.4-48.3c-26.7,0-48.3,21.7-48.3,48.3v43
					c0,0.9-0.4,1.7-1,2.3l-12.2,12.2v9.7h9.9c1.8,0,3.3,1.5,3.3,3.3v23.3C133,640.7,131.5,642.2,129.6,642.2z M105.4,635.6h20.9
					v-16.6h-9.9c-1.8,0-3.3-1.5-3.3-3.3v-14.4c0-0.9,0.3-1.7,1-2.3l12.2-12.2V545c0-30.3,24.7-55,55-55c30.3,0,55,24.7,55,55v51.2
					h20.9V545c0-41.8-34-75.9-75.9-75.9c-41.8,0-75.9,34-75.9,75.9V635.6z"/>
			</g>
		</g>
		<g>
			<g>
				<polygon fill="#FFFFFF" points="217.2,802.2 251.4,802.2 251.4,816.4 314.6,816.4 376.7,816.4 376.7,802.2 410.9,802.2 
					410.9,816.4 411.3,816.4 464.7,783.5 464.7,695.6 164.6,695.6 164.6,783.5 217.2,816 				"/>
				<path d="M411.3,819.7h-0.4c-1.8,0-3.3-1.5-3.3-3.3v-10.8H380v10.8c0,1.8-1.5,3.3-3.3,3.3H251.4c-1.8,0-3.3-1.5-3.3-3.3v-10.8
					h-27.6V816c0,1.2-0.7,2.3-1.7,2.9c-1,0.6-2.3,0.6-3.4-0.1l-52.6-32.5c-1-0.6-1.6-1.7-1.6-2.8v-87.8c0-1.8,1.5-3.3,3.3-3.3h300.1
					c1.8,0,3.3,1.5,3.3,3.3v87.8c0,1.1-0.6,2.2-1.6,2.8l-53.3,32.9C412.6,819.5,412,819.7,411.3,819.7z M254.8,813.1h118.6v-10.8
					c0-1.8,1.5-3.3,3.3-3.3h34.2c1.8,0,3.3,1.5,3.3,3.3v8.5l47.1-29.1V699H167.9v82.7l46,28.4v-7.8c0-1.8,1.5-3.3,3.3-3.3h34.2
					c1.8,0,3.3,1.5,3.3,3.3V813.1z"/>
			</g>
			<g>
				<polygon fill="#F1F2F2" points="411.3,816.4 410.9,816.4 410.9,843 376.7,843 376.7,816.4 314.6,816.4 251.4,816.4 251.4,843 
					217.2,843 217.2,816 164.6,783.5 164.6,908.8 464.7,908.8 464.7,783.5 				"/>
				<path fill="#231F20" d="M464.7,912.2H164.6c-1.8,0-3.3-1.5-3.3-3.3V783.5c0-1.2,0.7-2.3,1.7-2.9c1-0.6,2.3-0.6,3.4,0.1
					l52.6,32.5c1,0.6,1.6,1.7,1.6,2.8v23.7h27.6v-23.3c0-1.8,1.5-3.3,3.3-3.3h125.3c1.8,0,3.3,1.5,3.3,3.3v23.3h27.6v-23.3
					c0-1.6,1.2-3,2.7-3.3l52.6-32.5c1-0.6,2.3-0.7,3.4-0.1c1,0.6,1.7,1.7,1.7,2.9v125.4C468,910.7,466.5,912.2,464.7,912.2z
					 M167.9,905.5h293.4V789.4l-47.1,29.1V843c0,1.8-1.5,3.3-3.3,3.3h-34.2c-1.8,0-3.3-1.5-3.3-3.3v-23.3H254.8V843
					c0,1.8-1.5,3.3-3.3,3.3h-34.2c-1.8,0-3.3-1.5-3.3-3.3v-25.2l-46-28.4V905.5z"/>
			</g>
			<g>
				<polygon fill="#F1F2F2" points="217.2,802.2 217.2,816 217.2,843 251.4,843 251.4,816.4 251.4,802.2 				"/>
				<path fill="#231F20" d="M251.4,846.4h-34.2c-1.8,0-3.3-1.5-3.3-3.3v-40.8c0-1.8,1.5-3.3,3.3-3.3h34.2c1.8,0,3.3,1.5,3.3,3.3V843
					C254.8,844.9,253.3,846.4,251.4,846.4z M220.5,839.7h27.6v-34.2h-27.6V839.7z"/>
			</g>
			<g>
				<polygon fill="#F1F2F2" points="376.7,802.2 376.7,816.4 376.7,843 410.9,843 410.9,816.4 410.9,802.2 				"/>
				<path fill="#231F20" d="M410.9,846.4h-34.2c-1.8,0-3.3-1.5-3.3-3.3v-40.8c0-1.8,1.5-3.3,3.3-3.3h34.2c1.8,0,3.3,1.5,3.3,3.3V843
					C414.2,844.9,412.7,846.4,410.9,846.4z M380,839.7h27.6v-34.2H380V839.7z"/>
			</g>
			<g>
				<path d="M382.7,699c-1.8,0-3.3-1.5-3.3-3.3v-25.2c0-13.8-11.2-25-25-25h-79.7c-13.8,0-25,11.2-25,25v25.2c0,1.8-1.5,3.3-3.3,3.3
					s-3.3-1.5-3.3-3.3v-25.2c0-17.4,14.2-31.6,31.6-31.6h79.7c17.4,0,31.6,14.2,31.6,31.6v25.2C386.1,697.5,384.6,699,382.7,699z"/>
			</g>
		</g>
		<g>
			<path d="M105.6,912.2c-1.8,0-3.3-1.5-3.3-3.3V802.2c0-1.8,1.5-3.3,3.3-3.3c1.8,0,3.3,1.5,3.3,3.3v106.6
				C108.9,910.7,107.4,912.2,105.6,912.2z"/>
		</g>
		<g>
			<path d="M105.6,777.6c-1.8,0-3.3-1.5-3.3-3.3v-59.5c0-1.8,1.5-3.3,3.3-3.3c1.8,0,3.3,1.5,3.3,3.3v59.5
				C108.9,776.1,107.4,777.6,105.6,777.6z"/>
		</g>
		<g>
			<rect x="1121.8" y="510.5" fill="#FFA6A1" width="46.4" height="46.4"/>
			<path fill="#231F20" d="M1168.2,560.2h-46.4c-1.8,0-3.3-1.5-3.3-3.3v-46.4c0-1.8,1.5-3.3,3.3-3.3h46.4c1.8,0,3.3,1.5,3.3,3.3
				v46.4C1171.5,558.7,1170,560.2,1168.2,560.2z M1125.1,553.6h39.8v-39.8h-39.8V553.6z"/>
		</g>
		<g>
			<rect x="1121.8" y="580.1" fill="#FFA6A1" width="46.4" height="46.4"/>
			<path fill="#231F20" d="M1168.2,629.9h-46.4c-1.8,0-3.3-1.5-3.3-3.3v-46.4c0-1.8,1.5-3.3,3.3-3.3h46.4c1.8,0,3.3,1.5,3.3,3.3
				v46.4C1171.5,628.4,1170,629.9,1168.2,629.9z M1125.1,623.2h39.8v-39.8h-39.8V623.2z"/>
		</g>
		<g>
			<path d="M1231.3,522.3h-48.1c-1.8,0-3.3-1.5-3.3-3.3c0-1.8,1.5-3.3,3.3-3.3h48.1c1.8,0,3.3,1.5,3.3,3.3
				C1234.6,520.8,1233.1,522.3,1231.3,522.3z"/>
		</g>
		<g>
			<path d="M1231.3,551.7h-48.1c-1.8,0-3.3-1.5-3.3-3.3s1.5-3.3,3.3-3.3h48.1c1.8,0,3.3,1.5,3.3,3.3S1233.1,551.7,1231.3,551.7z"/>
		</g>
		<g>
			<path d="M1231.3,592h-48.1c-1.8,0-3.3-1.5-3.3-3.3c0-1.8,1.5-3.3,3.3-3.3h48.1c1.8,0,3.3,1.5,3.3,3.3
				C1234.6,590.5,1233.1,592,1231.3,592z"/>
		</g>
		<g>
			<path d="M1231.3,621.3h-48.1c-1.8,0-3.3-1.5-3.3-3.3c0-1.8,1.5-3.3,3.3-3.3h48.1c1.8,0,3.3,1.5,3.3,3.3
				C1234.6,619.8,1233.1,621.3,1231.3,621.3z"/>
		</g>
		<g>
			<path d="M1219.3,657.2h-95.7c-1.8,0-3.3-1.5-3.3-3.3c0-1.8,1.5-3.3,3.3-3.3h95.7c1.8,0,3.3,1.5,3.3,3.3
				C1222.6,655.7,1221.1,657.2,1219.3,657.2z"/>
		</g>
		<g>
			<path fill="#FFFFFF" d="M285.7,254.7c-6.3-0.3-12-3.8-15.1-9.3c-2.4-4.3-3-9.2-1.8-13.9c1.1-4,3.6-7.6,7-10.1l1.3-0.9l-0.9-1.3
				c-3.3-4.8-7.2-9.1-11.7-12.9l-1.2-1l-1,1.2c-1.4,1.6-3,3-4.9,4c-8.8,5-20.1,1.9-25.1-6.9c-1.7-3.1-2.5-6.5-2.4-10.1l0.1-1.6
				l-1.6-0.1c-5.8-0.4-11.7,0-17.4,1.2l-1.5,0.3l0.3,1.6c0.5,2.7,0.4,5.5-0.4,8.1c-1.3,4.8-4.4,8.7-8.7,11.2
				c-6.8,3.8-15.3,3-21.2-2.1l-1.2-1l-1.1,1.2c-3.9,4.2-7.2,9-9.8,14.2l-0.7,1.4l1.4,0.7c3.2,1.7,5.8,4.2,7.5,7.2
				c2.4,4.2,3,9.2,1.8,13.9c-1.3,4.8-4.4,8.8-8.7,11.2c-1.9,1.1-3.9,1.8-6.1,2.2l-1.6,0.3l0.3,1.6c0.9,5.8,2.6,11.4,5.1,16.8
				l0.7,1.4l1.5-0.6c8.6-3.7,18.6-0.3,23.3,7.8c2.4,4.2,3,9.2,1.7,13.9c-0.4,1.3-0.9,2.6-1.5,3.8l-0.7,1.4l1.4,0.8
				c4.9,2.8,10.3,4.9,15.9,6.3l1.5,0.4l0.4-1.5c1.4-4.7,4.4-8.7,8.6-11.1c8.8-5,20.1-1.9,25.2,6.9c0.3,0.6,0.6,1.2,0.9,1.8l0.6,1.5
				l1.5-0.6c2.8-1.2,5.4-2.4,7.9-3.8c2.5-1.4,4.9-3,7.3-4.9l1.2-0.9l-0.9-1.3c-0.4-0.5-0.8-1.1-1.1-1.7c-2.4-4.3-3-9.2-1.8-13.9
				c1.3-4.8,4.4-8.8,8.7-11.2c4.2-2.4,9.2-3.1,13.9-1.7l1.5,0.4l0.5-1.5c1.7-5.5,2.6-11.3,2.7-17l0-1.6L285.7,254.7z M257,264.4
				c-4.9,18.1-23.5,28.7-41.6,23.8c-18.1-4.9-28.7-23.5-23.8-41.6c4.9-18,23.5-28.7,41.6-23.8C251.2,227.7,261.9,246.3,257,264.4z"
				/>
			<path fill="#231F20" d="M210.1,320.1c-0.3,0-0.5,0-0.8-0.1l-1.5-0.4c-5.9-1.4-11.5-3.7-16.8-6.7l-1.4-0.8
				c-1.6-0.9-2.1-2.9-1.3-4.4l0.7-1.4c0.5-1,0.9-2,1.2-3.1c1.1-3.9,0.6-8-1.4-11.4c-3.7-6.5-12.2-9.4-19.1-6.4l-1.4,0.6
				c-1.7,0.7-3.6,0-4.3-1.7l-0.7-1.4c-2.6-5.6-4.4-11.5-5.3-17.6l-0.3-1.5c-0.3-1.8,0.9-3.5,2.7-3.8l1.6-0.3c1.8-0.3,3.5-0.9,5-1.8
				c3.5-2,6-5.2,7.1-9.2c1-3.9,0.5-7.9-1.4-11.4c-1.4-2.5-3.5-4.6-6.2-6l-1.4-0.7c-1.6-0.8-2.3-2.8-1.4-4.4l0.7-1.4
				c2.8-5.5,6.3-10.5,10.3-14.9l1.1-1.2c1.2-1.3,3.3-1.4,4.6-0.2l1.2,1c4.7,4.1,12,4.8,17.4,1.8c3.5-2,6-5.3,7.1-9.2
				c0.6-2.2,0.7-4.5,0.3-6.7l-0.3-1.6c-0.3-1.8,0.9-3.5,2.6-3.8l1.5-0.3c6-1.2,12.1-1.6,18.2-1.2l1.6,0.1c1.8,0.1,3.2,1.7,3.1,3.5
				l-0.1,1.6c-0.1,2.9,0.5,5.8,1.9,8.3c4,7,13.6,9.7,20.6,5.7c1.5-0.9,2.8-2,4-3.3l1.1-1.2c1.2-1.4,3.3-1.5,4.6-0.4l1.2,1
				c4.7,4,8.9,8.5,12.3,13.6l0.9,1.3c1,1.5,0.6,3.5-0.8,4.5l-1.3,0.9c-2.8,2-4.8,5-5.7,8.3c-1,3.9-0.5,7.9,1.4,11.4
				c2.6,4.5,7.2,7.4,12.4,7.6l1.6,0.1c1.8,0.1,3.2,1.6,3.2,3.4l0,1.6c-0.2,6.1-1.1,12.1-2.9,17.9l-0.5,1.5c-0.5,1.7-2.3,2.7-4,2.2
				l-1.5-0.4c-3.9-1.1-8-0.6-11.4,1.4c-3.5,2-6.1,5.3-7.1,9.2c-1.1,3.9-0.5,7.9,1.4,11.4c0.3,0.4,0.6,0.9,0.9,1.4l0.9,1.3
				c1,1.5,0.7,3.5-0.7,4.6l-1.2,0.9c-2.5,1.9-5.1,3.6-7.7,5.1c-2.4,1.4-5.2,2.7-8.3,4l-1.5,0.6c-1.7,0.7-3.6-0.1-4.3-1.8l-0.6-1.5
				c-0.2-0.5-0.5-1.1-0.8-1.6c-3.9-6.8-13.6-9.5-20.6-5.6c-3.5,2-6,5.2-7.1,9.1l-0.4,1.5C212.9,319.2,211.6,320.1,210.1,320.1z
				 M195.7,308c3.9,2.1,8,3.7,12.2,4.8c1.8-4.9,5.2-8.9,9.7-11.4c3.3-1.8,7-2.8,10.7-2.8c7.8,0,15.1,4.2,19,11
				c0.1,0.2,0.2,0.4,0.3,0.6c2.2-1,4.2-1.9,6-3c1.9-1.1,3.8-2.3,5.6-3.6c-0.1-0.2-0.2-0.4-0.4-0.6c-2.9-5.1-3.6-10.9-2.1-16.5
				c1.5-5.6,5.2-10.3,10.2-13.2c4.4-2.6,9.8-3.4,14.8-2.5c1.2-4.2,1.9-8.5,2.1-13c-6.8-0.9-12.7-4.8-16.2-10.8
				c-2.9-5-3.6-10.9-2.1-16.4c1.2-4.2,3.6-8,6.9-10.9c-2.6-3.6-5.6-6.9-9-9.9c-1.4,1.4-2.9,2.5-4.5,3.5c-3.3,1.9-7,2.8-10.7,2.8
				c-7.8,0-15.1-4.2-19-11c-1.8-3.1-2.7-6.6-2.8-10.2c-4.5-0.2-8.9,0.1-13.3,0.9c0.3,2.6,0,5.3-0.7,7.9c-1.5,5.6-5.2,10.3-10.2,13.2
				c-7.3,4.2-17,3.5-23.7-1.5c-2.9,3.3-5.4,6.9-7.5,10.8c3.1,1.9,5.6,4.6,7.4,7.7c2.8,5,3.6,10.8,2.1,16.4
				c-1.5,5.6-5.2,10.3-10.2,13.2c-1.8,1-3.6,1.7-5.5,2.2c0.8,4.4,2.1,8.7,3.9,12.8c9.6-3.3,20.8,1,25.9,9.8c2.8,5,3.6,10.9,2,16.5
				C196.4,306,196.1,307,195.7,308z M224.3,292.7c-3.3,0-6.6-0.4-9.8-1.3c-9.6-2.6-17.6-8.8-22.5-17.4c-4.9-8.6-6.2-18.7-3.6-28.2
				c4.4-16.2,19.2-27.5,35.9-27.5c3.3,0,6.6,0.4,9.8,1.3c19.8,5.4,31.5,25.9,26.1,45.7C255.8,281.4,241,292.7,224.3,292.7z
				 M224.3,224.9c-13.8,0-25.9,9.3-29.5,22.6c-2.1,7.9-1.1,16.1,3,23.2c4.1,7.1,10.6,12.2,18.5,14.3c2.6,0.7,5.3,1.1,8,1.1
				c13.7,0,25.9-9.3,29.5-22.6c4.4-16.3-5.2-33.1-21.5-37.5C229.7,225.3,227,224.9,224.3,224.9z"/>
		</g>
		<g>
			<polygon fill="#87E4FF" points="120.2,386.9 174.8,418.5 120.2,450 			"/>
			<path fill="#231F20" d="M120.2,453.3c-0.6,0-1.1-0.1-1.7-0.4c-1-0.6-1.7-1.7-1.7-2.9v-63.1c0-1.2,0.6-2.3,1.7-2.9
				c1-0.6,2.3-0.6,3.3,0l54.6,31.5c1,0.6,1.7,1.7,1.7,2.9c0,1.2-0.6,2.3-1.7,2.9l-54.6,31.5C121.3,453.2,120.7,453.3,120.2,453.3z
				 M123.5,392.7v51.6l44.7-25.8L123.5,392.7z"/>
		</g>
		<g>
			<polygon fill="#87E4FF" points="196.9,386.9 251.5,418.5 196.9,450 			"/>
			<path fill="#231F20" d="M196.9,453.3c-0.6,0-1.1-0.1-1.7-0.4c-1-0.6-1.7-1.7-1.7-2.9v-63.1c0-1.2,0.6-2.3,1.7-2.9
				c1-0.6,2.3-0.6,3.3,0l54.6,31.5c1,0.6,1.7,1.7,1.7,2.9c0,1.2-0.6,2.3-1.7,2.9l-54.6,31.5C198,453.2,197.4,453.3,196.9,453.3z
				 M200.2,392.7v51.6l44.7-25.8L200.2,392.7z"/>
		</g>
		<g>
			<polygon fill="#87E4FF" points="273.6,386.9 328.2,418.5 273.6,450 			"/>
			<path fill="#231F20" d="M273.6,453.3c-0.6,0-1.1-0.1-1.7-0.4c-1-0.6-1.7-1.7-1.7-2.9v-63.1c0-1.2,0.6-2.3,1.7-2.9
				c1-0.6,2.3-0.6,3.3,0l54.6,31.5c1,0.6,1.7,1.7,1.7,2.9c0,1.2-0.6,2.3-1.7,2.9l-54.6,31.5C274.7,453.2,274.1,453.3,273.6,453.3z
				 M276.9,392.7v51.6l44.7-25.8L276.9,392.7z"/>
		</g>
		<g>
			<path fill="#FFA6A1" d="M977.4,194c0,10.1-8.2,18.3-18.3,18.3c-10.1,0-18.3-8.2-18.3-18.3s8.2-18.3,18.3-18.3
				C969.2,175.7,977.4,183.9,977.4,194z"/>
			<path fill="#231F20" d="M959.1,215.6c-11.9,0-21.6-9.7-21.6-21.6c0-11.9,9.7-21.6,21.6-21.6c11.9,0,21.6,9.7,21.6,21.6
				C980.8,205.9,971.1,215.6,959.1,215.6z M959.1,179c-8.3,0-15,6.7-15,15c0,8.3,6.7,15,15,15c8.3,0,15-6.7,15-15
				C974.1,185.7,967.4,179,959.1,179z"/>
		</g>
		<g>
			<circle fill="#87E4FF" cx="618" cy="165.4" r="16.6"/>
			<path fill="#231F20" d="M618,185.3c-11,0-19.9-8.9-19.9-19.9s8.9-19.9,19.9-19.9s19.9,8.9,19.9,19.9S629,185.3,618,185.3z
				 M618,152.1c-7.3,0-13.3,5.9-13.3,13.3s5.9,13.3,13.3,13.3c7.3,0,13.3-5.9,13.3-13.3S625.4,152.1,618,152.1z"/>
		</g>
		<g>
			<path fill="#231F20" d="M977.4,258.9h-51.1c-1.8,0-3.3-1.5-3.3-3.3s1.5-3.3,3.3-3.3h51.1c1.8,0,3.3,1.5,3.3,3.3
				S979.3,258.9,977.4,258.9z"/>
		</g>
	</g>
</g>
</svg>
