<?xml version="1.0" encoding="utf-8"?>
<!-- Generator: Adobe Illustrator 16.0.0, SVG Export Plug-In . SVG Version: 6.00 Build 0)  -->
<!DOCTYPE svg PUBLIC "-//W3C//DTD SVG 1.1//EN" "http://www.w3.org/Graphics/SVG/1.1/DTD/svg11.dtd">
<svg version="1.1" id="Layer_1" xmlns="http://www.w3.org/2000/svg" xmlns:xlink="http://www.w3.org/1999/xlink" x="0px" y="0px"
	 width="1400px" height="980px" viewBox="0 0 1400 980" enable-background="new 0 0 1400 980" xml:space="preserve">
<g>
	<g>
		<g>
			<rect fill="#FFFFFF" width="1400" height="980"/>
		</g>
	</g>
	<g>
		<path d="M853.3,344.6c-0.5,0-1-0.1-1.4-0.4c-0.9-0.5-1.5-1.5-1.5-2.6V114.4c0-14.8,12-26.8,26.8-26.8h403.2
			c14.8,0,26.8,12,26.8,26.8v154.2c0,14.8-12,26.8-26.8,26.8H932.2l-77.3,48.6C854.4,344.4,853.8,344.6,853.3,344.6z M877.1,93.6
			c-11.5,0-20.9,9.4-20.9,20.9v221.7l73.5-46.2c0.5-0.3,1-0.5,1.6-0.5h349c11.5,0,20.9-9.4,20.9-20.9V114.4
			c0-11.5-9.4-20.9-20.9-20.9H877.1z"/>
	</g>
	<g>
		<rect x="915.2" y="134.4" fill="#A3D8FF" width="322.8" height="52.6"/>
	</g>
	<g>
		<rect x="915.2" y="210.1" fill="#FFE999" width="322.8" height="52.6"/>
	</g>
	<g>
		<path d="M1257.3,137.4H900.1c-1.6,0-3-1.3-3-3s1.3-3,3-3h357.2c1.6,0,3,1.3,3,3S1259,137.4,1257.3,137.4z"/>
	</g>
	<g>
		<path d="M1257.3,213.1H900.1c-1.6,0-3-1.3-3-3c0-1.6,1.3-3,3-3h357.2c1.6,0,3,1.3,3,3C1260.3,211.8,1259,213.1,1257.3,213.1z"/>
	</g>
	<g>
		<g>
			<path fill="#A3D8FF" d="M871.5,440.6h-29.8c0-42.8-34.7-77.5-77.5-77.5c-7.5,0-14.7,1.1-21.6,3.1c-13.7-30.5-44.2-51.8-79.8-51.8
				c-48.3,0-87.5,39.2-87.5,87.5h-27.3c-32.1,0-58.2,26-58.2,58.2c0,32.1,26,58.1,58.2,58.1h211.7c0.8,0,1.5-0.1,2.2-0.1
				c0.7,0,1.5,0.1,2.2,0.1h107.4c21.4,0,38.8-17.4,38.8-38.8S892.9,440.6,871.5,440.6z"/>
			<path d="M871.5,521.1H764.1c-0.6,0-1.3,0-1.9-0.1l-1,0c-0.5,0-1.1,0.1-1.6,0.1H547.9c-33.7,0-61.1-27.4-61.1-61.1
				s27.4-61.1,61.1-61.1h24.4c1.6-48.5,41.5-87.5,90.4-87.5c34.7,0,66.4,20,81.5,51.2c6.6-1.7,13.3-2.5,19.9-2.5
				c43.4,0,78.9,34.5,80.5,77.5h26.9c23,0,41.7,18.7,41.7,41.7C913.2,502.4,894.5,521.1,871.5,521.1z M761.8,515c0.2,0,0.8,0,0.9,0
				c0.5,0,1,0.1,1.5,0.1h107.4c19.7,0,35.8-16.1,35.8-35.8c0-19.7-16.1-35.8-35.8-35.8h-29.8c-1.6,0-3-1.3-3-3
				c0-41.1-33.4-74.6-74.6-74.6c-6.9,0-13.9,1-20.7,3c-1.5,0.4-2.9-0.3-3.6-1.6c-13.6-30.4-43.9-50-77.1-50
				c-46.6,0-84.5,37.9-84.5,84.5c0,1.6-1.3,3-3,3h-27.3c-30.4,0-55.2,24.7-55.2,55.2c0,30.4,24.7,55.2,55.2,55.2h211.7
				c0.4,0,0.8,0,1.2-0.1L761.8,515C761.7,515,761.7,515,761.8,515z"/>
		</g>
		<g>
			<polygon fill="#FFE999" points="644.3,588.8 644.3,518.1 576.7,518.1 576.7,588.8 545.1,588.8 610.5,670.1 676,588.8 			"/>
			<path d="M610.5,673.1c-0.9,0-1.8-0.4-2.3-1.1l-65.5-81.3c-0.7-0.9-0.9-2.1-0.4-3.2c0.5-1,1.5-1.7,2.7-1.7h28.7v-67.7
				c0-1.6,1.3-3,3-3h67.6c1.6,0,3,1.3,3,3v67.7H676c1.1,0,2.2,0.7,2.7,1.7c0.5,1,0.3,2.3-0.4,3.2L612.9,672
				C612.3,672.7,611.4,673.1,610.5,673.1z M551.3,591.8l59.2,73.5l59.2-73.5h-25.4c-1.6,0-3-1.3-3-3v-67.7h-61.6v67.7
				c0,1.6-1.3,3-3,3H551.3z"/>
		</g>
		<g>
			<path d="M585.7,493.4h-34.8c-1.6,0-3-1.3-3-3c0-1.6,1.3-3,3-3h34.8c1.6,0,3,1.3,3,3C588.7,492.1,587.3,493.4,585.7,493.4z"/>
		</g>
		<g>
			<path d="M685.1,493.4h-74.6c-1.6,0-3-1.3-3-3c0-1.6,1.3-3,3-3h74.6c1.6,0,3,1.3,3,3C688.1,492.1,686.7,493.4,685.1,493.4z"/>
		</g>
		<g>
			<path d="M700,462.6H550.9c-1.6,0-3-1.3-3-3c0-1.6,1.3-3,3-3H700c1.6,0,3,1.3,3,3C703,461.3,701.6,462.6,700,462.6z"/>
		</g>
		<g>
			<path d="M647.8,432.8h-96.9c-1.6,0-3-1.3-3-3c0-1.6,1.3-3,3-3h96.9c1.6,0,3,1.3,3,3C650.8,431.4,649.5,432.8,647.8,432.8z"/>
		</g>
		<g>
			<g>
				<path fill="#FFE1BC" d="M723.8,618.9v-39.4c0-0.4-0.1-0.8-0.1-1.2v-74.7H761v59.1c0-10.3,8.3-18.6,18.6-18.6s18.6,8.3,18.6,18.6
					c0-10.3,8.3-18.6,18.6-18.6c10.3,0,18.6,8.3,18.6,18.6c0-10.3,8.3-18.6,18.6-18.6s18.6,8.3,18.6,18.6v99.2c0,0,0,16.4-6.3,35.6
					c-1.7,5.1-3.9,10.5-6.6,15.8c0,0-3.8,23.7-22.8,23.7h-92.5c0,0-20.5,0.6-22.8-23.7l-27.6-39.3
					C694.2,673.9,680.1,642.4,723.8,618.9z"/>
				<path d="M744.5,739.8c-8.5,0-23.3-5.4-25.6-25.6l-27.2-38.6c-0.4-0.8-14.6-34.1,29-58.5v-37.7c0-0.5-0.1-0.9-0.1-1.2v-74.7
					c0-1.6,1.3-3,3-3H761c1.6,0,3,1.3,3,3v44.2c3.9-4.1,9.5-6.7,15.6-6.7c7.9,0,14.9,4.3,18.6,10.7c3.8-6.4,10.7-10.7,18.6-10.7
					c7.9,0,14.9,4.3,18.6,10.7c3.8-6.4,10.7-10.7,18.6-10.7c11.9,0,21.6,9.7,21.6,21.6v99.2c0,0.7-0.1,17.1-6.4,36.5
					c-1.8,5.5-4,10.8-6.5,15.8c-1.6,9.2-8.9,25.7-25.7,25.7H744.5z M726.7,506.5l0.1,112.3c0,1.1-0.6,2.1-1.6,2.6
					c-40.7,21.9-28.4,50.9-28.2,51.2l27.4,38.8c0.3,0.4,0.5,0.9,0.5,1.4c1.9,20.4,17.9,21,19.7,21v3l0.1-3h92.5
					c16.3,0,19.8-20.9,19.9-21.1c0-0.3,0.1-0.6,0.3-0.9c2.5-4.9,4.6-10,6.4-15.3c6.1-18.5,6.2-34.5,6.2-34.7v-99.2
					c0-8.6-7-15.6-15.6-15.6s-15.6,7-15.6,15.6c0,1.6-1.3,3-3,3c-1.6,0-3-1.3-3-3c0-8.6-7-15.6-15.6-15.6c-8.6,0-15.6,7-15.6,15.6
					c0,1.6-1.3,3-3,3c-1.6,0-3-1.3-3-3c0-8.6-7-15.6-15.6-15.6c-8.6,0-15.6,7-15.6,15.6c0,1.6-1.3,3-3,3c-1.6,0-3-1.3-3-3v-56.1
					H726.7z"/>
			</g>
			<g>
				<path fill="#FFE1BC" d="M723.7,488.2c0-10.3,8.4-18.7,18.7-18.7c10.3,0,18.7,8.4,18.7,18.7v15.3h-37.3V488.2z"/>
				<path d="M761,506.5h-37.3c-1.6,0-3-1.3-3-3v-15.3c0-11.9,9.7-21.6,21.6-21.6c11.9,0,21.6,9.7,21.6,21.6v15.3
					C764,505.2,762.7,506.5,761,506.5z M726.7,500.6H758v-12.3c0-8.6-7-15.7-15.7-15.7c-8.6,0-15.7,7-15.7,15.7V500.6z"/>
			</g>
			<g>
				<path d="M835.5,613.7c-1.6,0-3-1.3-3-3v-48c0-1.6,1.3-3,3-3c1.6,0,3,1.3,3,3v48C838.5,612.3,837.2,613.7,835.5,613.7z"/>
			</g>
			<g>
				<path d="M798.3,613.7c-1.6,0-3-1.3-3-3v-48c0-1.6,1.3-3,3-3c1.6,0,3,1.3,3,3v48C801.2,612.3,799.9,613.7,798.3,613.7z"/>
			</g>
			<g>
				<path d="M761,613.7c-1.6,0-3-1.3-3-3v-48c0-1.6,1.3-3,3-3c1.6,0,3,1.3,3,3v48C764,612.3,762.7,613.7,761,613.7z"/>
			</g>
			<g>
				<path d="M723.8,666c-1.6,0-3-1.3-3-3v-44.1c0-1.6,1.3-3,3-3c1.6,0,3,1.3,3,3V663C726.7,664.7,725.4,666,723.8,666z"/>
			</g>
		</g>
	</g>
	<g>
		<g>
			<path fill="#231F20" d="M1304.2,445.3H978.9c-1.6,0-3-1.3-3-3v-58.6c0-22.3,18.2-40.5,40.5-40.5h250.2
				c22.3,0,40.5,18.2,40.5,40.5v58.6C1307.2,444,1305.8,445.3,1304.2,445.3z M981.9,439.4h319.3v-55.7c0-19.1-15.5-34.6-34.5-34.6
				h-250.2c-19.1,0-34.5,15.5-34.5,34.6V439.4z"/>
		</g>
		<g>
			<path fill="#231F20" d="M1266.6,733.9h-250.2c-22.3,0-40.5-18.2-40.5-40.5v-58.6c0-1.6,1.3-3,3-3h325.3c1.6,0,3,1.3,3,3v58.6
				C1307.2,715.7,1289,733.9,1266.6,733.9z M981.9,637.7v55.7c0,19.1,15.5,34.5,34.5,34.5h250.2c19.1,0,34.5-15.5,34.5-34.5v-55.7
				H981.9z"/>
		</g>
		<g>
			<path fill="#231F20" d="M1304.2,637.7H978.9c-1.6,0-3-1.3-3-3v-96.2c0-1.6,1.3-3,3-3h325.3c1.6,0,3,1.3,3,3v96.2
				C1307.2,636.3,1305.8,637.7,1304.2,637.7z M981.9,631.7h319.3v-90.2H981.9V631.7z"/>
		</g>
		<g>
			<path fill="#231F20" d="M1304.2,541.5H978.9c-1.6,0-3-1.3-3-3v-96.2c0-1.6,1.3-3,3-3h325.3c1.6,0,3,1.3,3,3v96.2
				C1307.2,540.2,1305.8,541.5,1304.2,541.5z M981.9,535.5h319.3v-90.2H981.9V535.5z"/>
		</g>
	</g>
	<g>
		<rect x="1018.8" y="377.1" fill="#FFAEA9" width="34.4" height="34.4"/>
		<path fill="#231F20" d="M1053.2,414.5h-34.4c-1.6,0-3-1.3-3-3v-34.4c0-1.6,1.3-3,3-3h34.4c1.6,0,3,1.3,3,3v34.4
			C1056.2,413.1,1054.8,414.5,1053.2,414.5z M1021.8,408.5h28.4V380h-28.4V408.5z"/>
	</g>
	<g>
		<rect x="1018.8" y="473.2" fill="#FFAEA9" width="34.4" height="34.4"/>
		<path fill="#231F20" d="M1053.2,510.6h-34.4c-1.6,0-3-1.3-3-3v-34.4c0-1.6,1.3-3,3-3h34.4c1.6,0,3,1.3,3,3v34.4
			C1056.2,509.3,1054.8,510.6,1053.2,510.6z M1021.8,504.7h28.4v-28.4h-28.4V504.7z"/>
	</g>
	<g>
		<rect x="1018.8" y="569.4" fill="#FFAEA9" width="34.4" height="34.4"/>
		<path fill="#231F20" d="M1053.2,606.8h-34.4c-1.6,0-3-1.3-3-3v-34.4c0-1.6,1.3-3,3-3h34.4c1.6,0,3,1.3,3,3v34.4
			C1056.2,605.5,1054.8,606.8,1053.2,606.8z M1021.8,600.8h28.4v-28.4h-28.4V600.8z"/>
	</g>
	<g>
		<rect x="1018.8" y="665.6" fill="#FFAEA9" width="34.4" height="34.4"/>
		<path fill="#231F20" d="M1053.2,703h-34.4c-1.6,0-3-1.3-3-3v-34.4c0-1.6,1.3-3,3-3h34.4c1.6,0,3,1.3,3,3V700
			C1056.2,701.6,1054.8,703,1053.2,703z M1021.8,697h28.4v-28.4h-28.4V697z"/>
	</g>
	<g>
		<path fill="#231F20" d="M1264.3,397.3h-87.6c-1.6,0-3-1.3-3-3s1.3-3,3-3h87.6c1.6,0,3,1.3,3,3S1265.9,397.3,1264.3,397.3z"/>
	</g>
	<g>
		<path fill="#231F20" d="M1264.3,493.4h-87.6c-1.6,0-3-1.3-3-3s1.3-3,3-3h87.6c1.6,0,3,1.3,3,3S1265.9,493.4,1264.3,493.4z"/>
	</g>
	<g>
		<path fill="#231F20" d="M1264.3,589.6h-87.6c-1.6,0-3-1.3-3-3c0-1.6,1.3-3,3-3h87.6c1.6,0,3,1.3,3,3
			C1267.3,588.3,1265.9,589.6,1264.3,589.6z"/>
	</g>
	<g>
		<path fill="#231F20" d="M1264.3,685.8h-87.6c-1.6,0-3-1.3-3-3c0-1.6,1.3-3,3-3h87.6c1.6,0,3,1.3,3,3
			C1267.3,684.4,1265.9,685.8,1264.3,685.8z"/>
	</g>
	<g>
		<path fill="#231F20" d="M1258.3,905.7H759.5c-14.8,0-26.8-12-26.8-26.8v-56.7c0-14.8,12-26.8,26.8-26.8h335.9l28-48.5
			c0.5-0.9,1.5-1.5,2.6-1.5l0,0c1.1,0,2,0.6,2.6,1.5l28,48.5h101.7c14.8,0,26.8,12,26.8,26.8v56.7
			C1285.2,893.7,1273.1,905.7,1258.3,905.7z M759.5,801.3c-11.5,0-20.9,9.4-20.9,20.9v56.7c0,11.5,9.4,20.9,20.9,20.9h498.8
			c11.5,0,20.9-9.4,20.9-20.9v-56.7c0-11.5-9.4-20.9-20.9-20.9h-103.5c-1.1,0-2.1-0.6-2.6-1.5l-26.3-45.5l-26.3,45.5
			c-0.5,0.9-1.5,1.5-2.6,1.5H759.5z"/>
	</g>
	<g>
		<rect x="772.9" y="831.9" fill="#A3D8FF" width="138" height="37.8"/>
		<path d="M910.9,872.6h-138c-1.6,0-3-1.3-3-3v-37.8c0-1.6,1.3-3,3-3h138c1.6,0,3,1.3,3,3v37.8C913.9,871.3,912.6,872.6,910.9,872.6
			z M775.9,866.7h132v-31.8h-132V866.7z"/>
	</g>
	<g>
		<rect x="962" y="831.9" fill="#A3D8FF" width="64" height="37.8"/>
		<path d="M1026.1,872.6h-64c-1.6,0-3-1.3-3-3v-37.8c0-1.6,1.3-3,3-3h64c1.6,0,3,1.3,3,3v37.8
			C1029.1,871.3,1027.7,872.6,1026.1,872.6z M965,866.7h58.1v-31.8H965V866.7z"/>
	</g>
	<g>
		<rect x="1072.1" y="831.9" fill="#A3D8FF" width="64" height="37.8"/>
		<path d="M1136.1,872.6h-64c-1.6,0-3-1.3-3-3v-37.8c0-1.6,1.3-3,3-3h64c1.6,0,3,1.3,3,3v37.8
			C1139.1,871.3,1137.8,872.6,1136.1,872.6z M1075.1,866.7h58.1v-31.8h-58.1V866.7z"/>
	</g>
	<g>
		<rect x="1182.1" y="831.9" fill="#A3D8FF" width="64" height="37.8"/>
		<path d="M1246.2,872.6h-64c-1.6,0-3-1.3-3-3v-37.8c0-1.6,1.3-3,3-3h64c1.6,0,3,1.3,3,3v37.8
			C1249.1,871.3,1247.8,872.6,1246.2,872.6z M1185.1,866.7h58.1v-31.8h-58.1V866.7z"/>
	</g>
	<g>
		<path d="M523.3,210.2H89.9c-1.6,0-3-1.3-3-3V90.6c0-1.6,1.3-3,3-3h433.4c1.6,0,3,1.3,3,3v116.7
			C526.2,208.9,524.9,210.2,523.3,210.2z M92.8,204.3h427.4V93.6H92.8V204.3z"/>
	</g>
	<g>
		<path d="M441.7,266.8H89.9c-1.6,0-3-1.3-3-3c0-1.6,1.3-3,3-3h351.9c1.6,0,3,1.3,3,3C444.7,265.4,443.4,266.8,441.7,266.8z"/>
	</g>
	<g>
		<path d="M168.8,325h-79c-1.6,0-3-1.3-3-3c0-1.6,1.3-3,3-3h79c1.6,0,3,1.3,3,3C171.8,323.7,170.5,325,168.8,325z"/>
	</g>
	<g>
		<path d="M291.7,325h-97c-1.6,0-3-1.3-3-3c0-1.6,1.3-3,3-3h97c1.6,0,3,1.3,3,3C294.7,323.7,293.4,325,291.7,325z"/>
	</g>
	<g>
		<path d="M89.9,383.5c-1.6,0-3-1.3-3-3c0-1.6,1.3-3,3-3l351.9-0.4c0,0,0,0,0,0c1.6,0,3,1.3,3,3c0,1.6-1.3,3-3,3L89.9,383.5
			C89.9,383.5,89.9,383.5,89.9,383.5z"/>
	</g>
	<g>
		<path d="M211.3,441.5H89.9c-1.6,0-3-1.3-3-3c0-1.6,1.3-3,3-3h121.5c1.6,0,3,1.3,3,3C214.3,440.2,213,441.5,211.3,441.5z"/>
	</g>
	<g>
		<path d="M361.6,441.5H240.1c-1.6,0-3-1.3-3-3c0-1.6,1.3-3,3-3h121.5c1.6,0,3,1.3,3,3C364.6,440.2,363.2,441.5,361.6,441.5z"/>
	</g>
	<g>
		<g>
			<g>
				<path fill="#FFE999" d="M470,210.2c-29.3,29.3-76.9,29.3-106.2,0c-29.3-29.3-29.3-76.9,0-106.2c29.3-29.3,76.9-29.3,106.2,0
					C499.3,133.3,499.3,180.9,470,210.2z"/>
				<path d="M416.9,235.2c-20.9,0-40.5-8.1-55.2-22.9c-30.4-30.4-30.4-80,0-110.4C376.5,87.1,396.1,79,416.9,79
					c20.9,0,40.5,8.1,55.2,22.9c30.4,30.4,30.4,80,0,110.4C457.4,227,437.8,235.2,416.9,235.2z M416.9,85c-19.3,0-37.4,7.5-51,21.1
					c-28.1,28.1-28.1,73.9,0,102c13.6,13.6,31.7,21.1,51,21.1c19.3,0,37.4-7.5,51-21.1c28.1-28.1,28.1-73.9,0-102
					C454.3,92.5,436.2,85,416.9,85z"/>
			</g>
			<g>
				<line fill="#FFFFFF" x1="470" y1="210.2" x2="503.5" y2="243.7"/>
				<path d="M503.5,246.7c-0.8,0-1.5-0.3-2.1-0.9l-33.5-33.5c-1.2-1.2-1.2-3.1,0-4.2s3.1-1.2,4.2,0l33.5,33.5c1.2,1.2,1.2,3.1,0,4.2
					C505.1,246.4,504.3,246.7,503.5,246.7z"/>
			</g>
			<g>
				<path fill="#D1D3D4" d="M574.6,284.5l-55.9-55.9l-30.3,30.3l55.9,55.9c8.4,8.4,21.9,8.4,30.3,0C583,306.4,583,292.9,574.6,284.5
					z"/>
				<path d="M559.5,324.1c-6.5,0-12.7-2.5-17.3-7.1L486.3,261c-1.2-1.2-1.2-3.1,0-4.2l30.3-30.3c1.1-1.1,3.1-1.1,4.2,0l55.9,55.9
					c4.6,4.6,7.2,10.7,7.2,17.3c0,6.5-2.5,12.7-7.2,17.3C572.1,321.5,566,324.1,559.5,324.1z M492.6,258.9l53.8,53.8
					c7,7,19.1,7,26.1,0c3.5-3.5,5.4-8.1,5.4-13.1c0-4.9-1.9-9.6-5.4-13l-53.8-53.8L492.6,258.9z"/>
			</g>
		</g>
		<g>
			<line fill="#FFFFFF" x1="412.6" y1="104" x2="363.8" y2="152.8"/>
			<path d="M363.8,155.8c-0.8,0-1.5-0.3-2.1-0.9c-1.2-1.2-1.2-3.1,0-4.2l48.8-48.8c1.2-1.2,3.1-1.2,4.2,0c1.2,1.2,1.2,3.1,0,4.2
				l-48.8,48.8C365.3,155.5,364.6,155.8,363.8,155.8z"/>
		</g>
		<g>
			<line fill="#FFFFFF" x1="452.8" y1="121.2" x2="381" y2="193"/>
			<path d="M381,196c-0.8,0-1.5-0.3-2.1-0.9c-1.2-1.2-1.2-3.1,0-4.2l71.7-71.7c1.2-1.2,3.1-1.2,4.2,0s1.2,3.1,0,4.2l-71.7,71.7
				C382.6,195.7,381.8,196,381,196z"/>
		</g>
	</g>
	<g>
		<path d="M129.4,187c-1.6,0-3-1.3-3-3v-70.2c0-1.6,1.3-3,3-3s3,1.3,3,3V184C132.3,185.7,131,187,129.4,187z"/>
	</g>
	<g>
		<path d="M434.2,785.4H135.6c-21.4,0-38.8-17.4-38.8-38.8V559.8c0-21.4,17.4-38.8,38.8-38.8h298.6c21.4,0,38.8,17.4,38.8,38.8
			v186.9C473,768,455.6,785.4,434.2,785.4z M135.6,527c-18.1,0-32.8,14.7-32.8,32.8v186.9c0,18.1,14.7,32.8,32.8,32.8h298.6
			c18.1,0,32.8-14.7,32.8-32.8V559.8c0-18.1-14.7-32.8-32.8-32.8H135.6z"/>
	</g>
	<g>
		<polygon fill="#D1D3D4" points="310.7,782.4 284.9,782.4 259.1,782.4 243.4,830.4 284.9,830.4 326.4,830.4 		"/>
		<path d="M326.4,833.4h-82.9c-1,0-1.9-0.5-2.4-1.2c-0.6-0.8-0.7-1.8-0.4-2.7l15.7-48c0.4-1.2,1.5-2.1,2.8-2.1h51.6
			c1.3,0,2.4,0.8,2.8,2.1l15.7,48c0.3,0.9,0.1,1.9-0.4,2.7C328.2,832.9,327.3,833.4,326.4,833.4z M247.5,827.4h74.7l-13.7-42h-47.3
			L247.5,827.4z"/>
	</g>
	<g>
		<path d="M367.4,833.4h-165c-1.6,0-3-1.3-3-3c0-1.6,1.3-3,3-3h165c1.6,0,3,1.3,3,3C370.4,832,369.1,833.4,367.4,833.4z"/>
	</g>
	<g>
		<path d="M523.3,890.5H99.8c-1.6,0-3-1.3-3-3s1.3-3,3-3h421.6l55.6-109.9c0.7-1.5,2.5-2.1,4-1.3c1.5,0.7,2.1,2.5,1.3,4l-56.5,111.6
			C525.4,889.9,524.4,890.5,523.3,890.5z"/>
	</g>
	<g>
		<rect x="128.6" y="571.9" fill="#FFAEA9" width="125.2" height="62.6"/>
		<path fill="#231F20" d="M253.9,637.6H128.6c-1.6,0-3-1.3-3-3v-62.6c0-1.6,1.3-3,3-3h125.2c1.6,0,3,1.3,3,3v62.6
			C256.9,636.2,255.5,637.6,253.9,637.6z M131.6,631.6h119.3v-56.7H131.6V631.6z"/>
	</g>
	<g>
		<rect x="128.6" y="671.3" fill="#FFE999" width="125.2" height="62.6"/>
		<path d="M253.9,737H128.6c-1.6,0-3-1.3-3-3v-62.6c0-1.6,1.3-3,3-3h125.2c1.6,0,3,1.3,3,3V734C256.9,735.6,255.5,737,253.9,737z
			 M131.6,731h119.3v-56.7H131.6V731z"/>
	</g>
	<g>
		<rect x="291.1" y="571.9" fill="#A3D8FF" width="73.1" height="162"/>
		<path d="M364.2,737h-73.1c-1.6,0-3-1.3-3-3v-162c0-1.6,1.3-3,3-3h73.1c1.6,0,3,1.3,3,3v162C367.2,735.6,365.9,737,364.2,737z
			 M294.1,731h67.1V574.9h-67.1V731z"/>
	</g>
	<g>
		<path d="M415.7,737c-1.6,0-3-1.3-3-3v-162c0-1.6,1.3-3,3-3s3,1.3,3,3v162C418.6,735.6,417.3,737,415.7,737z"/>
	</g>
	<g>
		<rect x="389.9" y="603.3" fill="#D1D3D4" width="51.4" height="16.9"/>
		<path d="M441.4,623.2h-51.4c-1.6,0-3-1.3-3-3v-16.9c0-1.6,1.3-3,3-3h51.4c1.6,0,3,1.3,3,3v16.9C444.4,621.8,443,623.2,441.4,623.2
			z M392.9,617.2h45.5v-11h-45.5V617.2z"/>
	</g>
	<g>
		<path fill="#FFFFFF" d="M1272,286.7l39.9,17.4c0.4-3.8,0.6-7.7,0.6-11.7c0-68.3-55.4-123.7-123.8-123.7
			c-68.3,0-123.7,55.4-123.7,123.7c0,68.3,55.4,123.7,123.7,123.7c34.5,0,65.7-14.1,88.1-36.9l-38.1-16.6L1272,286.7z M1156.8,371.8
			l-49-66.5l2.5-5.8l75.7,33.1l28-64.1l-75.7-33.1l2.5-5.8l82.1-9.2l49,66.4l-33,75.7L1156.8,371.8z"/>
		<path d="M1188.7,419.2c-69.9,0-126.7-56.9-126.7-126.7c0-69.9,56.9-126.7,126.7-126.7c69.9,0,126.7,56.8,126.7,126.7
			c0,3.9-0.2,7.9-0.6,11.9c-0.1,0.9-0.6,1.8-1.5,2.3c-0.8,0.5-1.8,0.5-2.7,0.2l-37.2-16.2l-30.8,70.5l35.3,15.4
			c0.9,0.4,1.5,1.2,1.7,2.2c0.2,1-0.1,2-0.8,2.7C1255,405.8,1222.9,419.2,1188.7,419.2z M1188.7,171.7
			c-66.6,0-120.8,54.2-120.8,120.8c0,66.6,54.2,120.8,120.8,120.8c31.1,0,60.4-11.7,82.9-33l-33.6-14.7l-80.9,9.1
			c-1.1,0.1-2.1-0.3-2.7-1.2l-49-66.5c-0.6-0.9-0.8-2-0.3-3l2.5-5.8c0.3-0.7,0.9-1.3,1.6-1.6c0.7-0.3,1.6-0.3,2.3,0l73,31.9
			l25.6-58.7l-73-31.9c-1.5-0.7-2.2-2.4-1.5-3.9l2.5-5.8c0.4-1,1.3-1.6,2.4-1.8l82.1-9.2c1-0.1,2.1,0.3,2.7,1.2l48.3,65.5l35.6,15.6
			c0.2-2.5,0.2-4.9,0.2-7.3C1309.5,225.9,1255.3,171.7,1188.7,171.7z M1111.2,304.9l47,63.7l78.6-8.8l31.7-72.5l-47-63.7l-78.7,8.8
			l-0.6,1.5l73,31.9c1.5,0.7,2.2,2.4,1.5,3.9l-28,64.1c-0.3,0.7-0.9,1.3-1.6,1.6c-0.7,0.3-1.6,0.3-2.3,0l-73-31.9L1111.2,304.9z"/>
	</g>
	<g>
		<path fill="#D1D3D4" d="M1272,286.7l-0.1,0.2l-49-66.4l-82.1,9.2l-2.5,5.8l75.7,33.1l-28,64.1l-75.7-33.1l-2.5,5.8l49,66.5
			l82.1-9.2l22.4-51.3l-22.5,51.5l38.1,16.6c19.5-19.8,32.3-46,35-75.2L1272,286.7z"/>
		<path d="M1276.8,382.3c-0.4,0-0.8-0.1-1.2-0.2l-37.6-16.4l-80.9,9.1c-1.1,0.1-2.1-0.3-2.7-1.2l-49-66.5c-0.6-0.9-0.8-2-0.3-3
			l2.5-5.8c0.3-0.7,0.9-1.3,1.6-1.6c0.7-0.3,1.6-0.3,2.3,0l73,31.9l25.6-58.7l-73-31.9c-1.5-0.7-2.2-2.4-1.5-3.9l2.5-5.8
			c0.4-1,1.3-1.6,2.4-1.8l82.1-9.2c1-0.1,2.1,0.3,2.7,1.2l48.3,65.5l39.5,17.2c1.2,0.5,1.9,1.7,1.8,3c-2.7,28.9-15.4,56.2-35.9,77
			C1278.4,382,1277.6,382.3,1276.8,382.3z M1242.7,361.2l33.4,14.6c18.2-19.1,29.6-43.7,32.6-69.8l-37.2-16.3
			c-0.8-0.1-1.5-0.5-2-1.1l-48-65.1l-78.7,8.8l-0.6,1.5l73,31.9c1.5,0.7,2.2,2.4,1.5,3.9l-28,64.1c-0.3,0.7-0.9,1.3-1.6,1.6
			c-0.7,0.3-1.6,0.3-2.3,0l-73-31.9l-0.6,1.5l47,63.7l78.6-8.8l21.7-49.7c0.7-1.5,2.4-2.2,3.9-1.5c1.5,0.7,2.2,2.4,1.5,3.9
			L1242.7,361.2z"/>
	</g>
	<g>
		<path d="M503.6,853.5h-82.8c-1.6,0-3-1.3-3-3s1.3-3,3-3h82.8c1.6,0,3,1.3,3,3S505.3,853.5,503.6,853.5z"/>
	</g>
	<g>
		<path d="M696.3,324.1c-1.6,0-3-1.3-3-3V137.4h-63.7c-1.6,0-3-1.3-3-3s1.3-3,3-3h66.6c1.6,0,3,1.3,3,3v186.7
			C699.2,322.7,697.9,324.1,696.3,324.1z"/>
	</g>
	<g>
		<path d="M766.8,190h-70.5c-1.6,0-3-1.3-3-3s1.3-3,3-3h70.5c1.6,0,3,1.3,3,3S768.4,190,766.8,190z"/>
	</g>
	<g>
		<path d="M696.3,242.2h-43.2c-1.6,0-3-1.3-3-3s1.3-3,3-3h43.2c1.6,0,3,1.3,3,3S697.9,242.2,696.3,242.2z"/>
	</g>
	<g>
		<path fill="#FFAEA9" d="M629.6,134.4c0,12.1-9.8,21.9-21.9,21.9c-12.1,0-21.9-9.8-21.9-21.9c0-12.1,9.8-21.9,21.9-21.9
			C619.8,112.5,629.6,122.3,629.6,134.4z"/>
		<path fill="#231F20" d="M607.7,159.2c-13.7,0-24.9-11.1-24.9-24.9c0-13.7,11.1-24.8,24.9-24.8c13.7,0,24.9,11.1,24.9,24.8
			C632.6,148.1,621.5,159.2,607.7,159.2z M607.7,115.5c-10.4,0-18.9,8.5-18.9,18.9c0,10.4,8.5,18.9,18.9,18.9
			c10.4,0,18.9-8.5,18.9-18.9C626.6,124,618.2,115.5,607.7,115.5z"/>
	</g>
	<g>
		<path fill="#FFAEA9" d="M810.5,187c0,12.1-9.8,21.9-21.9,21.9c-12.1,0-21.9-9.8-21.9-21.9c0-12.1,9.8-21.9,21.9-21.9
			C800.7,165.1,810.5,174.9,810.5,187z"/>
		<path fill="#231F20" d="M788.7,211.9c-13.7,0-24.8-11.1-24.8-24.8c0-13.7,11.1-24.8,24.8-24.8c13.7,0,24.8,11.1,24.8,24.8
			C813.5,200.7,802.4,211.9,788.7,211.9z M788.7,168.1c-10.4,0-18.9,8.5-18.9,18.9c0,10.4,8.5,18.9,18.9,18.9
			c10.4,0,18.9-8.5,18.9-18.9C807.5,176.6,799.1,168.1,788.7,168.1z"/>
	</g>
	<g>
		<path fill="#FFAEA9" d="M610.5,755.8c0,12.1-9.8,21.9-21.9,21.9s-21.9-9.8-21.9-21.9c0-12.1,9.8-21.9,21.9-21.9
			S610.5,743.8,610.5,755.8z"/>
		<path fill="#231F20" d="M588.7,780.7c-13.7,0-24.9-11.1-24.9-24.9c0-13.7,11.1-24.8,24.9-24.8c13.7,0,24.9,11.1,24.9,24.8
			C613.5,769.5,602.4,780.7,588.7,780.7z M588.7,737c-10.4,0-18.9,8.5-18.9,18.9s8.5,18.9,18.9,18.9c10.4,0,18.9-8.5,18.9-18.9
			S599.1,737,588.7,737z"/>
	</g>
	<g>
		<path fill="#FFAEA9" d="M678.1,850.8c0,12.1-9.8,21.9-21.9,21.9c-12.1,0-21.9-9.8-21.9-21.9c0-12.1,9.8-21.9,21.9-21.9
			C668.3,828.9,678.1,838.7,678.1,850.8z"/>
		<path fill="#231F20" d="M656.2,875.6c-13.7,0-24.9-11.1-24.9-24.8c0-13.7,11.1-24.8,24.9-24.8c13.7,0,24.9,11.1,24.9,24.8
			C681.1,864.5,669.9,875.6,656.2,875.6z M656.2,831.9c-10.4,0-18.9,8.5-18.9,18.9c0,10.4,8.5,18.9,18.9,18.9
			c10.4,0,18.9-8.5,18.9-18.9C675.1,840.4,666.6,831.9,656.2,831.9z"/>
	</g>
	<g>
		<path fill="#FFAEA9" d="M653.1,239.2c0,12.1-9.8,21.9-21.9,21.9c-12.1,0-21.9-9.8-21.9-21.9c0-12.1,9.8-21.9,21.9-21.9
			C643.3,217.3,653.1,227.1,653.1,239.2z"/>
		<path fill="#231F20" d="M631.2,264c-13.7,0-24.9-11.1-24.9-24.9c0-13.7,11.1-24.9,24.9-24.9c13.7,0,24.9,11.1,24.9,24.9
			C656.1,252.9,644.9,264,631.2,264z M631.2,220.3c-10.4,0-18.9,8.5-18.9,18.9c0,10.4,8.5,18.9,18.9,18.9c10.4,0,18.9-8.5,18.9-18.9
			C650.1,228.8,641.6,220.3,631.2,220.3z"/>
	</g>
	<g>
		<path fill="#231F20" d="M735.7,853.8h-57.6c-1.6,0-3-1.3-3-3c0-1.6,1.3-3,3-3h57.6c1.6,0,3,1.3,3,3
			C738.7,852.4,737.3,853.8,735.7,853.8z"/>
	</g>
</g>
</svg>
