<?xml version="1.0" encoding="utf-8"?>
<!-- Generator: Adobe Illustrator 16.0.0, SVG Export Plug-In . SVG Version: 6.00 Build 0)  -->
<!DOCTYPE svg PUBLIC "-//W3C//DTD SVG 1.1//EN" "http://www.w3.org/Graphics/SVG/1.1/DTD/svg11.dtd">
<svg version="1.1" id="Layer_1" xmlns="http://www.w3.org/2000/svg" xmlns:xlink="http://www.w3.org/1999/xlink" x="0px" y="0px"
	 width="1400px" height="980px" viewBox="0 0 1400 980" enable-background="new 0 0 1400 980" xml:space="preserve">
<g>
	<g>
		<g>
			<rect fill="#FFFFFF" width="1400" height="980"/>
		</g>
	</g>
	<g>
		<rect x="216.6" y="140.2" fill="#F1F2F2" width="239.1" height="26"/>
	</g>
	<g>
		<rect x="216.6" y="182" fill="#F1F2F2" width="239.1" height="26"/>
	</g>
	<g>
		<rect x="216.6" y="223.8" fill="#F1F2F2" width="239.1" height="26"/>
	</g>
	<g>
		<path fill="#231F20" d="M920.1,853.6H479.9c-1.7,0-3.2-1.4-3.2-3.2V524.9c0-1.7,1.4-3.2,3.2-3.2h440.2c1.7,0,3.2,1.4,3.2,3.2
			v325.5C923.3,852.2,921.9,853.6,920.1,853.6z M483,847.3h433.9V528.1H483V847.3z"/>
	</g>
	<g>
		<rect x="520.7" y="576.5" fill="#F1F2F2" width="334.2" height="250.8"/>
	</g>
	<g>
		<rect x="456.9" y="464.8" fill="#FFA494" width="486.2" height="60"/>
		<path d="M943.1,528.1H456.9c-1.7,0-3.2-1.4-3.2-3.2v-60c0-1.7,1.4-3.2,3.2-3.2h486.2c1.7,0,3.2,1.4,3.2,3.2v60
			C946.3,526.6,944.8,528.1,943.1,528.1z M460.1,521.7h479.9V468H460.1V521.7z"/>
	</g>
	<g>
		<circle fill="#FFFFFF" cx="485.7" cy="494.9" r="13.5"/>
		<path fill="#231F20" d="M485.7,511.5c-9.2,0-16.6-7.5-16.6-16.6c0-9.2,7.5-16.6,16.6-16.6c9.2,0,16.6,7.5,16.6,16.6
			C502.3,504,494.8,511.5,485.7,511.5z M485.7,484.5c-5.7,0-10.3,4.6-10.3,10.3c0,5.7,4.6,10.3,10.3,10.3c5.7,0,10.3-4.6,10.3-10.3
			C496,489.2,491.4,484.5,485.7,484.5z"/>
	</g>
	<g>
		<circle fill="#FFFFFF" cx="533.7" cy="494.9" r="13.5"/>
		<path fill="#231F20" d="M533.7,511.5c-9.2,0-16.6-7.5-16.6-16.6c0-9.2,7.5-16.6,16.6-16.6c9.2,0,16.6,7.5,16.6,16.6
			C550.4,504,542.9,511.5,533.7,511.5z M533.7,484.5c-5.7,0-10.3,4.6-10.3,10.3c0,5.7,4.6,10.3,10.3,10.3s10.3-4.6,10.3-10.3
			C544,489.2,539.4,484.5,533.7,484.5z"/>
	</g>
	<g>
		<path fill="#231F20" d="M920,498h-47.9c-1.7,0-3.2-1.4-3.2-3.2c0-1.7,1.4-3.2,3.2-3.2H920c1.7,0,3.2,1.4,3.2,3.2
			C923.2,496.6,921.8,498,920,498z"/>
	</g>
	<g>
		<path fill="#231F20" d="M841,498h-91.1c-1.7,0-3.2-1.4-3.2-3.2c0-1.7,1.4-3.2,3.2-3.2H841c1.7,0,3.2,1.4,3.2,3.2
			C844.2,496.6,842.7,498,841,498z"/>
	</g>
	<g>
		<path fill="#231F20" d="M676.7,568.1H509.2c-1.7,0-3.2-1.4-3.2-3.2s1.4-3.2,3.2-3.2h167.5c1.7,0,3.2,1.4,3.2,3.2
			S678.4,568.1,676.7,568.1z"/>
	</g>
	<g>
		<path fill="#231F20" d="M560.8,610.2h-51.6c-1.7,0-3.2-1.4-3.2-3.2c0-1.7,1.4-3.2,3.2-3.2h51.6c1.7,0,3.2,1.4,3.2,3.2
			C563.9,608.8,562.5,610.2,560.8,610.2z"/>
	</g>
	<g>
		<path fill="#231F20" d="M694.2,610.2h-106c-1.7,0-3.2-1.4-3.2-3.2c0-1.7,1.4-3.2,3.2-3.2h106c1.7,0,3.2,1.4,3.2,3.2
			C697.4,608.8,696,610.2,694.2,610.2z"/>
	</g>
	<g>
		<path fill="#231F20" d="M770.4,610.2h-45.3c-1.7,0-3.2-1.4-3.2-3.2c0-1.7,1.4-3.2,3.2-3.2h45.3c1.7,0,3.2,1.4,3.2,3.2
			C773.6,608.8,772.2,610.2,770.4,610.2z"/>
	</g>
	<g>
		<path fill="#231F20" d="M770.4,652.4H509.2c-1.7,0-3.2-1.4-3.2-3.2s1.4-3.2,3.2-3.2h261.3c1.7,0,3.2,1.4,3.2,3.2
			S772.2,652.4,770.4,652.4z"/>
	</g>
	<g>
		<path fill="#231F20" d="M770.4,693.2H509.2c-1.7,0-3.2-1.4-3.2-3.2s1.4-3.2,3.2-3.2h261.3c1.7,0,3.2,1.4,3.2,3.2
			S772.2,693.2,770.4,693.2z"/>
	</g>
	<g>
		<path fill="#96D9FF" d="M969.5,766.1l-25.9-8.5c-2.5-10.2-6.6-20-12.4-29.2l11.8-24.5c-0.8-1-1.6-2-2.5-3
			c-18.5-21.2-42.6-34.4-68.3-39.4l-16,21.9c-10.6-0.8-21.2,0.1-31.6,2.8L805,667.4c-12.8,4.9-24.9,12.1-35.8,21.6
			c-10.9,9.5-19.7,20.5-26.4,32.5l15.9,22.1c-4.1,9.9-6.4,20.3-7.1,30.9l-24,12.8c1.4,26.1,11.2,51.9,29.6,73.1
			c0.9,1,1.7,1.9,2.6,2.9l25.9-8.3c8.3,7,17.5,12.5,27.2,16.3l4.8,26.8c27,7.1,56.2,4.8,82.2-7.2l0.1-27.3c4.5-2.8,8.7-5.9,12.8-9.4
			c4.1-3.5,7.8-7.4,11.1-11.4l27,3.7C966.5,822.4,972.8,793.9,969.5,766.1z M893.8,832.2c-28.5,24.8-71.7,21.8-96.4-6.7
			c-24.8-28.5-21.8-71.7,6.7-96.4c28.5-24.8,71.6-21.8,96.4,6.7C925.2,764.3,922.2,807.4,893.8,832.2z"/>
		<path d="M848.9,905.3c-10.8,0-21.5-1.4-31.9-4.1c-1.2-0.3-2.1-1.3-2.3-2.5l-4.5-25.1c-9.1-3.8-17.5-8.8-25.1-15l-24.2,7.8
			c-1.2,0.4-2.5,0-3.3-0.9l-0.8-0.9c-0.6-0.7-1.3-1.4-1.9-2c-18.4-21.1-28.9-47-30.4-75c-0.1-1.2,0.6-2.4,1.7-3l22.4-12
			c0.8-9.8,3-19.3,6.6-28.5l-14.9-20.6c-0.7-1-0.8-2.3-0.2-3.4c7-12.6,16.1-23.8,27.1-33.4c11-9.5,23.3-17,36.8-22.2
			c1.2-0.4,2.4-0.2,3.3,0.7l18.4,17.6c9.5-2.3,19.4-3.1,29.1-2.6l15-20.5c0.7-1,1.9-1.5,3.2-1.2c27.5,5.4,51.7,19.4,70,40.5
			c0.6,0.7,1.3,1.5,1.9,2.2l0.7,0.8c0.8,1,0.9,2.3,0.4,3.4l-11.1,22.9c5.1,8.3,8.9,17.4,11.4,26.9l24.2,8c1.2,0.4,2,1.4,2.1,2.6
			c3.5,28.9-3.3,58.1-19,82.5c-0.7,1-1.8,1.6-3.1,1.4l-25.3-3.5c-3.3,3.8-6.7,7.3-10.3,10.4c-3.6,3.2-7.6,6.1-11.7,8.8l-0.1,25.5
			c0,1.2-0.7,2.3-1.8,2.9C885,901.3,866.9,905.3,848.9,905.3z M820.5,895.5c25.2,6.2,52.6,3.8,76.3-6.7l0.1-25.2
			c0-1.1,0.6-2.1,1.5-2.7c4.4-2.7,8.6-5.8,12.4-9.1c3.8-3.3,7.4-7,10.7-11c0.7-0.8,1.7-1.2,2.9-1.1l25,3.4
			c13.8-22.2,19.9-48.5,17.2-74.6l-24-7.9c-1-0.3-1.8-1.2-2.1-2.3c-2.4-10.1-6.5-19.6-12-28.2c-0.6-0.9-0.7-2.1-0.2-3.1l10.9-22.7
			c-0.4-0.5-0.8-0.9-1.1-1.4c-17-19.5-39.3-32.7-64.5-38l-14.8,20.3c-0.6,0.9-1.7,1.3-2.8,1.3c-10.2-0.8-20.6,0.1-30.5,2.7
			c-1.1,0.3-2.2,0-3-0.8l-18.2-17.4c-12,4.9-23.1,11.7-33,20.3c-9.9,8.6-18.2,18.7-24.7,29.9l14.7,20.4c0.6,0.9,0.8,2,0.4,3
			c-3.9,9.5-6.2,19.6-6.9,29.9c-0.1,1.1-0.7,2.1-1.7,2.6l-22.2,11.9c1.8,25.8,11.7,49.6,28.7,69.2c0.4,0.4,0.8,0.9,1.2,1.3l24-7.7
			c1-0.3,2.2-0.1,3,0.6c7.8,6.7,16.7,12,26.3,15.8c1,0.4,1.8,1.3,2,2.4L820.5,895.5z M848.9,852.2c-20.7,0-40.4-9-54-24.6
			c-25.9-29.7-22.7-75,7-100.9c13-11.3,29.7-17.6,46.9-17.6c20.7,0,40.4,9,54,24.6c25.9,29.7,22.7,75-7,100.9
			C882.8,845.9,866.2,852.2,848.9,852.2z M848.9,715.5c-15.7,0-30.9,5.7-42.8,16c-27.1,23.6-30,64.9-6.4,92
			c12.4,14.2,30.3,22.4,49.2,22.4c15.7,0,30.9-5.7,42.8-16c27.1-23.6,30-64.9,6.4-92C885.7,723.6,867.8,715.5,848.9,715.5z"/>
	</g>
	<g>
		<path d="M694.2,775.6H514.5c-1.7,0-3.2-1.4-3.2-3.2c0-1.7,1.4-3.2,3.2-3.2h179.7c1.7,0,3.2,1.4,3.2,3.2
			C697.4,774.2,696,775.6,694.2,775.6z"/>
	</g>
	<g>
		<path d="M618.7,814.6H514.5c-1.7,0-3.2-1.4-3.2-3.2c0-1.7,1.4-3.2,3.2-3.2h104.3c1.7,0,3.2,1.4,3.2,3.2
			C621.9,813.2,620.5,814.6,618.7,814.6z"/>
	</g>
	<g>
		<path fill="#96D9FF" d="M1046.6,537.2h6.6c-0.2-2.2-0.3-4.5-0.3-6.8c0-49.1,39.8-88.9,88.9-88.9c38,0,70.3,23.9,83,57.4
			c3.3-0.8,6.7-1.2,10.2-1.2c25.2,0,45.6,20.4,45.6,45.6c0,1.3-0.1,2.6-0.2,4h9.8c24.2,0,43.9,19.7,43.9,43.9
			c0,24.2-19.6,43.9-43.9,43.9h-110.2c-1.4,0-2.8-0.1-4.2-0.2c-1.4,0.1-2.8,0.2-4.2,0.2h-124.9c-27,0-48.9-21.9-48.9-48.9
			C997.6,559.1,1019.5,537.2,1046.6,537.2z"/>
		<path d="M1290.1,638.2h-110.2c-1.5,0-3-0.1-4.5-0.2c-1,0.1-2.4,0.2-3.9,0.2h-124.9c-28.7,0-52.1-23.4-52.1-52.1
			c0-28.7,23.4-52.1,52.1-52.1h3.2c-0.1-1.2-0.1-2.4-0.1-3.6c0-50.7,41.3-92,92-92c37.1,0,70.9,22.8,85,57c30.7-5.3,57,18.4,57,48
			c0,0.3,0,0.5,0,0.8h6.4c25.9,0,47,21.1,47,47S1316,638.2,1290.1,638.2z M1175.4,631.7c1.8,0.1,3.1,0.2,4.5,0.2h110.2
			c22.4,0,40.7-18.3,40.7-40.7s-18.3-40.7-40.7-40.7h-9.8c-0.9,0-1.7-0.4-2.3-1c-0.6-0.6-0.9-1.5-0.8-2.4c0.1-1.2,0.2-2.5,0.2-3.7
			c0-26.5-24.2-47.6-51.9-41.3c-1.5,0.4-3.1-0.5-3.7-2c-12.6-33.1-44.7-55.4-80.1-55.4c-47.3,0-85.7,38.4-85.7,85.7
			c0,2.1,0.2,4.3,0.3,6.4c0.1,0.9-0.2,1.8-0.8,2.5c-0.6,0.6-1.4,1.1-2.3,1.1h-6.6c-25.2,0-45.8,20.5-45.8,45.8
			c0,25.2,20.5,45.8,45.8,45.8h124.9C1172.8,631.9,1174.1,631.8,1175.4,631.7z"/>
	</g>
	<g>
		<g>
			<g>
				<path fill="#FFF2E5" d="M1170.9,772.1h124.3c2.1-4.4,3.9-8.8,5.3-13c5.5-17.1,5.4-31.6,5.4-31.6l-0.6-88
					c-0.1-9.1-7.5-16.5-16.6-16.4c-9.1,0.1-16.5,7.5-16.4,16.6c-0.1-9.1-7.5-16.5-16.6-16.4c-9.1,0.1-16.5,7.5-16.4,16.7
					c-0.1-9.1-7.5-16.5-16.6-16.4c-9.1,0.1-16.5,7.5-16.4,16.6l-0.3-52.4l-33.1,0.2l0.4,66.2c0,0.4,0,0.7,0.1,1.1l0.2,35
					c-38.6,21.1-25.9,49-25.9,49L1170.9,772.1z"/>
				<path d="M1295.2,775.3h-124.3c-1,0-2-0.5-2.6-1.3l-23.4-32.9c-0.4-0.8-13.4-30.5,25.3-52.7l-0.2-33.1c0-0.5-0.1-0.8-0.1-1.1
					l-0.4-66.2c0-0.8,0.3-1.6,0.9-2.2c0.6-0.6,1.4-0.9,2.2-0.9l33.1-0.2c0.6,0.1,1.6,0.3,2.2,0.9c0.6,0.6,0.9,1.4,0.9,2.2l0.3,38
					c3.5-3.3,8.2-5.3,13.3-5.4c7,0,13.1,3.6,16.6,8.9c3.5-5.4,9.5-9.1,16.5-9.1c6.9,0,13,3.5,16.6,8.9c0.7-1.2,1.6-2.2,2.6-3.2
					c3.7-3.7,8.6-5.8,13.9-5.9c10.9,0,19.7,8.8,19.8,19.5l0.6,88c0,0.6,0,15.2-5.5,32.6c-1.4,4.5-3.3,9-5.4,13.5
					C1297.5,774.6,1296.4,775.3,1295.2,775.3z M1172.6,769h120.7c1.7-3.6,3.1-7.2,4.2-10.8c5.3-16.4,5.2-30.5,5.2-30.6l-0.6-88
					c-0.1-7.3-6-13.3-13.3-13.3c-3.7,0-7,1.4-9.5,4c-2.5,2.5-3.9,5.9-3.9,9.5c0,0,0,0,0,0c0,1.7-1.4,3.1-3.1,3.2c0,0,0,0,0,0
					c-1.7,0-3.1-1.4-3.2-3.1c0-7.3-6-13.3-13.4-13.3c-7.5,0.1-13.4,6.1-13.4,13.5c0,0,0,0,0,0c0,1.7-1.4,3.1-3.1,3.2c0,0,0,0,0,0
					c-1.7,0-3.1-1.4-3.2-3.1c0-7.3-6-13.3-13.4-13.3c-7.5,0.1-13.4,6.1-13.4,13.5v0l0,0c0,1.7-1.4,3.2-3.1,3.2c0,0,0,0,0,0
					c-1.7,0-3.1-1.4-3.2-3.1l-0.3-49.3l-26.8,0.2l0.4,63.1l-3.1,0.7l3.2,0.3l0.2,35.1c0,1.2-0.6,2.2-1.6,2.8
					c-35.6,19.5-24.6,44.7-24.5,44.9L1172.6,769z"/>
			</g>
			<g>
				<path fill="#F0E2D5" d="M1172.5,574.4c0-9.1,7.3-16.6,16.5-16.7c9.1-0.1,16.6,7.3,16.7,16.5l0.1,13.6l-33.1,0.2L1172.5,574.4z"
					/>
				<path d="M1172.6,591.1c-1.7,0-3.1-1.4-3.2-3.1l-0.1-13.6c-0.1-10.9,8.7-19.8,19.6-19.8c10.9,0,19.8,8.8,19.9,19.6l0.1,13.6
					c0,1.7-1.4,3.2-3.1,3.2L1172.6,591.1C1172.6,591.1,1172.6,591.1,1172.6,591.1z M1189.1,560.9c-7.5,0-13.4,6.1-13.4,13.5
					l0.1,10.4l26.8-0.2l-0.1-10.4C1202.4,566.8,1196.4,560.9,1189.1,560.9z"/>
			</g>
			<g>
				<line fill="#FFFFFF" x1="1272.2" y1="639.7" x2="1272.5" y2="682.4"/>
				<path d="M1272.5,685.5c-1.7,0-3.1-1.4-3.2-3.1l-0.3-42.6c0-1.7,1.4-3.2,3.1-3.2c0,0,0,0,0,0c1.7,0,3.1,1.4,3.2,3.1l0.3,42.6
					C1275.7,684.1,1274.3,685.5,1272.5,685.5C1272.5,685.5,1272.5,685.5,1272.5,685.5z"/>
			</g>
			<g>
				<line fill="#FFFFFF" x1="1239.2" y1="640" x2="1239.4" y2="682.6"/>
				<path d="M1239.4,685.8c-1.7,0-3.1-1.4-3.2-3.1L1236,640c0-1.7,1.4-3.2,3.1-3.2c0,0,0,0,0,0c1.7,0,3.1,1.4,3.2,3.1l0.3,42.6
					C1242.6,684.3,1241.2,685.7,1239.4,685.8C1239.5,685.8,1239.4,685.8,1239.4,685.8z"/>
			</g>
			<g>
				<line fill="#FFFFFF" x1="1206.1" y1="640.2" x2="1206.4" y2="682.8"/>
				<path d="M1206.4,686c-1.7,0-3.1-1.4-3.2-3.1l-0.3-42.6c0-1.7,1.4-3.2,3.1-3.2c0,0,0,0,0,0c1.7,0,3.1,1.4,3.2,3.1l0.3,42.6
					C1209.6,684.5,1208.2,686,1206.4,686C1206.4,686,1206.4,686,1206.4,686z"/>
			</g>
			<g>
				<line fill="#FFFFFF" x1="1173.4" y1="690.3" x2="1173.6" y2="729.4"/>
				<path d="M1173.6,732.6c-1.7,0-3.1-1.4-3.2-3.1l-0.3-39.2c0-1.7,1.4-3.2,3.1-3.2c0,0,0,0,0,0c1.7,0,3.1,1.4,3.2,3.1l0.3,39.2
					C1176.8,731.2,1175.4,732.6,1173.6,732.6C1173.6,732.6,1173.6,732.6,1173.6,732.6z"/>
			</g>
		</g>
		<g>
			<rect x="1158.9" y="772.1" fill="#FFFFFF" width="150.3" height="28.6"/>
			<path d="M1309.2,803.9h-150.3c-1.7,0-3.2-1.4-3.2-3.2v-28.6c0-1.7,1.4-3.2,3.2-3.2h150.3c1.7,0,3.2,1.4,3.2,3.2v28.6
				C1312.4,802.5,1310.9,803.9,1309.2,803.9z M1162.1,797.6h144v-22.3h-144V797.6z"/>
		</g>
		<g>
			<rect x="1158.9" y="800.7" fill="#BCBEC0" width="150.3" height="76"/>
			<path d="M1309.2,879.9h-150.3c-1.7,0-3.2-1.4-3.2-3.2v-76c0-1.7,1.4-3.2,3.2-3.2h150.3c1.7,0,3.2,1.4,3.2,3.2v76
				C1312.4,878.5,1310.9,879.9,1309.2,879.9z M1162.1,873.6h144v-69.7h-144V873.6z"/>
		</g>
	</g>
	<g>
		<path d="M1087.7,612h-27.4c-1.7,0-3.2-1.4-3.2-3.2s1.4-3.2,3.2-3.2h27.4c1.7,0,3.2,1.4,3.2,3.2S1089.5,612,1087.7,612z"/>
	</g>
	<g>
		<path d="M1158.9,612h-53.8c-1.7,0-3.2-1.4-3.2-3.2s1.4-3.2,3.2-3.2h53.8c1.7,0,3.2,1.4,3.2,3.2S1160.7,612,1158.9,612z"/>
	</g>
	<g>
		<path d="M1158.9,579.6h-98.6c-1.7,0-3.2-1.4-3.2-3.2s1.4-3.2,3.2-3.2h98.6c1.7,0,3.2,1.4,3.2,3.2S1160.7,579.6,1158.9,579.6z"/>
	</g>
	<g>
		<path d="M1158.9,548.9h-71.2c-1.7,0-3.2-1.4-3.2-3.2s1.4-3.2,3.2-3.2h71.2c1.7,0,3.2,1.4,3.2,3.2S1160.7,548.9,1158.9,548.9z"/>
	</g>
	<g>
		<path d="M1087.7,722.4c-1.7,0-3.2-1.4-3.2-3.2v-84.2c0-1.7,1.4-3.2,3.2-3.2s3.2,1.4,3.2,3.2v84.2
			C1090.9,721,1089.5,722.4,1087.7,722.4z"/>
	</g>
	<g>
		<polygon fill="#BCBEC0" points="1108.5,719.3 1087.7,755.3 1066.9,719.3 		"/>
		<path d="M1087.7,758.5c-1.1,0-2.2-0.6-2.7-1.6l-20.8-36.1c-0.6-1-0.6-2.2,0-3.2c0.6-1,1.6-1.6,2.7-1.6h41.6c1.1,0,2.2,0.6,2.7,1.6
			c0.6,1,0.6,2.2,0,3.2l-20.8,36.1C1089.9,757.9,1088.8,758.5,1087.7,758.5z M1072.4,722.4l15.3,26.6l15.3-26.6H1072.4z"/>
	</g>
	<g>
		<polygon fill="#BCBEC0" points="1108.5,782.7 1087.7,818.8 1066.9,782.7 		"/>
		<path d="M1087.7,821.9c-1.1,0-2.2-0.6-2.7-1.6l-20.8-36.1c-0.6-1-0.6-2.2,0-3.2c0.6-1,1.6-1.6,2.7-1.6h41.6c1.1,0,2.2,0.6,2.7,1.6
			c0.6,1,0.6,2.2,0,3.2l-20.8,36.1C1089.9,821.3,1088.8,821.9,1087.7,821.9z M1072.4,785.9l15.3,26.6l15.3-26.6H1072.4z"/>
	</g>
	<g>
		<polygon fill="#BCBEC0" points="1108.5,846.2 1087.7,882.2 1066.9,846.2 		"/>
		<path d="M1087.7,885.4c-1.1,0-2.2-0.6-2.7-1.6l-20.8-36.1c-0.6-1-0.6-2.2,0-3.2c0.6-1,1.6-1.6,2.7-1.6h41.6c1.1,0,2.2,0.6,2.7,1.6
			c0.6,1,0.6,2.2,0,3.2l-20.8,36.1C1089.9,884.8,1088.8,885.4,1087.7,885.4z M1072.4,849.3l15.3,26.6l15.3-26.6H1072.4z"/>
	</g>
	<g>
		<g>
			<path fill="#FFFFFF" d="M1322.5,133.9c0-17.4-14.2-31.6-31.6-31.6h-251.3c-17.4,0-31.6,14.2-31.6,31.6v215.6
				c0,17.4,14.2,31.6,31.6,31.6h251.3c17.4,0,31.6-14.2,31.6-31.6V133.9z"/>
		</g>
		<g>
			<path d="M1290.8,384.3h-251.3c-19.2,0-34.8-15.6-34.8-34.8V133.9c0-19.2,15.6-34.8,34.8-34.8h251.3c19.2,0,34.8,15.6,34.8,34.8
				v215.6C1325.6,368.7,1310,384.3,1290.8,384.3z M1039.6,105.5c-15.7,0-28.4,12.8-28.4,28.4v215.6c0,15.7,12.8,28.4,28.4,28.4
				h251.3c15.7,0,28.4-12.8,28.4-28.4V133.9c0-15.7-12.8-28.4-28.4-28.4H1039.6z"/>
		</g>
	</g>
	<g>
		<g>
			<g>
				<path d="M493.4,284.9H178.9c-1.7,0-3.2-1.4-3.2-3.2V133.9c0-19.2,15.6-34.8,34.8-34.8h251.3c19.2,0,34.8,15.6,34.8,34.8v147.8
					C496.5,283.5,495.1,284.9,493.4,284.9z M182,278.6h308.1V133.9c0-15.7-12.8-28.4-28.4-28.4H210.5c-15.7,0-28.4,12.8-28.4,28.4
					V278.6z"/>
			</g>
			<g>
				<path fill="#BCBEC0" d="M178.9,281.7v7.2c0,17.4,14.2,31.6,31.6,31.6h251.3c17.4,0,31.6-14.2,31.6-31.6v-7.2H178.9z"/>
				<path d="M461.8,323.7H210.5c-19.2,0-34.8-15.6-34.8-34.8v-7.2c0-1.7,1.4-3.2,3.2-3.2h314.5c1.7,0,3.2,1.4,3.2,3.2v7.2
					C496.5,308.1,480.9,323.7,461.8,323.7z M182,284.9v4.1c0,15.7,12.8,28.4,28.4,28.4h251.3c15.7,0,28.4-12.8,28.4-28.4v-4.1H182z"
					/>
			</g>
		</g>
		<g>
			<rect x="86.3" y="158.4" fill="#FFFFFF" width="145.4" height="248.7"/>
			<path d="M231.7,410.3H86.3c-1.7,0-3.2-1.4-3.2-3.2V158.4c0-1.7,1.4-3.2,3.2-3.2h145.4c1.7,0,3.2,1.4,3.2,3.2v248.7
				C234.9,408.8,233.5,410.3,231.7,410.3z M89.5,403.9h139.1V161.5H89.5V403.9z"/>
		</g>
		<g>
			<rect x="319.5" y="320.6" fill="#BCBEC0" width="33.2" height="31.3"/>
			<path d="M352.7,355h-33.2c-1.7,0-3.2-1.4-3.2-3.2v-31.3c0-1.7,1.4-3.2,3.2-3.2h33.2c1.7,0,3.2,1.4,3.2,3.2v31.3
				C355.9,353.6,354.5,355,352.7,355z M322.7,348.7h26.9v-25h-26.9V348.7z"/>
		</g>
		<g>
			<rect x="260.8" y="351.9" fill="#E6E7E8" width="150.5" height="24.9"/>
			<path d="M411.4,379.9H260.8c-1.7,0-3.2-1.4-3.2-3.2v-24.9c0-1.7,1.4-3.2,3.2-3.2h150.5c1.7,0,3.2,1.4,3.2,3.2v24.9
				C414.6,378.5,413.1,379.9,411.4,379.9z M264,373.6h144.2V355H264V373.6z"/>
		</g>
		<g>
			<path d="M133,210h-26.9c-1.7,0-3.2-1.4-3.2-3.2c0-1.7,1.4-3.2,3.2-3.2H133c1.7,0,3.2,1.4,3.2,3.2C136.1,208.6,134.7,210,133,210z
				"/>
		</g>
		<g>
			<path d="M212,210h-26.9c-1.7,0-3.2-1.4-3.2-3.2c0-1.7,1.4-3.2,3.2-3.2H212c1.7,0,3.2,1.4,3.2,3.2C215.1,208.6,213.7,210,212,210z
				"/>
		</g>
		<g>
			<path fill="#FFA494" d="M172.6,206.8c0,7.5-6.1,13.6-13.6,13.6s-13.6-6.1-13.6-13.6c0-7.5,6.1-13.6,13.6-13.6
				S172.6,199.3,172.6,206.8z"/>
			<path d="M159,223.5c-9.2,0-16.7-7.5-16.7-16.7c0-9.2,7.5-16.7,16.7-16.7c9.2,0,16.7,7.5,16.7,16.7
				C175.8,216,168.3,223.5,159,223.5z M159,196.4c-5.7,0-10.4,4.7-10.4,10.4c0,5.7,4.7,10.4,10.4,10.4s10.4-4.7,10.4-10.4
				C169.4,201.1,164.8,196.4,159,196.4z"/>
		</g>
		<g>
			<path d="M133,258.3h-26.9c-1.7,0-3.2-1.4-3.2-3.2s1.4-3.2,3.2-3.2H133c1.7,0,3.2,1.4,3.2,3.2S134.7,258.3,133,258.3z"/>
		</g>
		<g>
			<path d="M212,258.3h-26.9c-1.7,0-3.2-1.4-3.2-3.2s1.4-3.2,3.2-3.2H212c1.7,0,3.2,1.4,3.2,3.2S213.7,258.3,212,258.3z"/>
		</g>
		<g>
			<path fill="#FFA494" d="M172.6,255.1c0,7.5-6.1,13.6-13.6,13.6s-13.6-6.1-13.6-13.6c0-7.5,6.1-13.6,13.6-13.6
				S172.6,247.6,172.6,255.1z"/>
			<path d="M159,271.8c-9.2,0-16.7-7.5-16.7-16.7s7.5-16.7,16.7-16.7c9.2,0,16.7,7.5,16.7,16.7S168.3,271.8,159,271.8z M159,244.7
				c-5.7,0-10.4,4.7-10.4,10.4s4.7,10.4,10.4,10.4s10.4-4.7,10.4-10.4S164.8,244.7,159,244.7z"/>
		</g>
		<g>
			<path d="M133,306.6h-26.9c-1.7,0-3.2-1.4-3.2-3.2c0-1.7,1.4-3.2,3.2-3.2H133c1.7,0,3.2,1.4,3.2,3.2
				C136.1,305.1,134.7,306.6,133,306.6z"/>
		</g>
		<g>
			<path d="M212,306.6h-26.9c-1.7,0-3.2-1.4-3.2-3.2c0-1.7,1.4-3.2,3.2-3.2H212c1.7,0,3.2,1.4,3.2,3.2
				C215.1,305.1,213.7,306.6,212,306.6z"/>
		</g>
		<g>
			<path fill="#FFA494" d="M172.6,303.4c0,7.5-6.1,13.6-13.6,13.6s-13.6-6.1-13.6-13.6c0-7.5,6.1-13.6,13.6-13.6
				S172.6,295.9,172.6,303.4z"/>
			<path d="M159,320.1c-9.2,0-16.7-7.5-16.7-16.7c0-9.2,7.5-16.7,16.7-16.7c9.2,0,16.7,7.5,16.7,16.7
				C175.8,312.6,168.3,320.1,159,320.1z M159,293c-5.7,0-10.4,4.7-10.4,10.4c0,5.7,4.7,10.4,10.4,10.4s10.4-4.7,10.4-10.4
				C169.4,297.7,164.8,293,159,293z"/>
		</g>
		<g>
			<path d="M198.5,369.2h-79c-1.7,0-3.2-1.4-3.2-3.2c0-1.7,1.4-3.2,3.2-3.2h79c1.7,0,3.2,1.4,3.2,3.2
				C201.7,367.8,200.3,369.2,198.5,369.2z"/>
		</g>
		<g>
			<path d="M367.6,304.3h-63c-1.7,0-3.2-1.4-3.2-3.2s1.4-3.2,3.2-3.2h63c1.7,0,3.2,1.4,3.2,3.2S369.4,304.3,367.6,304.3z"/>
		</g>
	</g>
	<g>
		<g>
			<g>
				<path fill="#96D9FF" d="M854.9,243.6h-9.3c0.2-3.1,0.5-6.3,0.5-9.5c0-69-55.9-124.8-124.8-124.8c-53.4,0-98.8,33.6-116.7,80.7
					c-4.6-1.1-9.4-1.7-14.4-1.7c-35.3,0-64,28.7-64,64c0,1.9,0.1,3.7,0.3,5.6h-13.7c-34,0-61.6,27.6-61.6,61.6s27.6,61.6,61.6,61.6
					h154.9c2,0,4-0.1,5.9-0.3c2,0.2,3.9,0.3,5.9,0.3h175.4c38,0,68.7-30.8,68.7-68.7C923.6,274.4,892.8,243.6,854.9,243.6z"/>
				<path d="M854.9,384.3H679.5c-2.1,0-4.1-0.1-6.2-0.3c-1.5,0.2-3.6,0.3-5.7,0.3H512.7c-35.7,0-64.8-29.1-64.8-64.8
					c0-35.7,29.1-64.8,64.8-64.8h10.3c0-0.8-0.1-1.6-0.1-2.4c0-41.1,37.2-74,79.6-66c19.4-48.1,66.7-80.2,118.6-80.2
					c70.6,0,128,57.4,128,128c0,2.1-0.1,4.2-0.2,6.3h5.9c39.6,0,71.9,32.3,71.9,71.9C926.8,352,894.5,384.3,854.9,384.3z
					 M673.2,377.7c2.4,0.2,4.3,0.3,6.2,0.3h175.4c36.2,0,65.6-29.4,65.6-65.6c0-36.2-29.4-65.6-65.6-65.6h-9.3c-0.9,0-1.7-0.4-2.3-1
					c-0.6-0.6-0.9-1.5-0.8-2.4c0.2-3.1,0.5-6.1,0.5-9.3c0-67.1-54.6-121.7-121.7-121.7c-50.2,0-95.9,31.6-113.7,78.6
					c-0.6,1.5-2.1,2.3-3.7,2c-39.5-9.1-74.5,21.2-74.5,59.2c0,1.8,0.1,3.5,0.3,5.3c0.1,0.9-0.2,1.8-0.8,2.4s-1.4,1-2.3,1h-13.7
					c-32.2,0-58.5,26.2-58.5,58.5s26.2,58.5,58.5,58.5h154.9C669.5,377.9,671.4,377.8,673.2,377.7z"/>
			</g>
			<g>
				<g>
					<line fill="#FFFFFF" x1="713.6" y1="176.3" x2="713.6" y2="202.5"/>
					<path d="M713.6,205.6c-1.7,0-3.2-1.4-3.2-3.2v-26.2c0-1.7,1.4-3.2,3.2-3.2s3.2,1.4,3.2,3.2v26.2
						C716.7,204.2,715.3,205.6,713.6,205.6z"/>
				</g>
				<g>
					<g>
						<path fill="#FFFFFF" d="M924.4,251.2c0,17.2-14,31.2-31.2,31.2H769.6c-17.2,0-31.2-14-31.2-31.2V127.6
							c0-17.2,14-31.2,31.2-31.2h123.6c17.3,0,31.2,14,31.2,31.2V251.2z"/>
						<path d="M893.2,285.6H769.6c-19,0-34.4-15.4-34.4-34.4V127.6c0-19,15.4-34.4,34.4-34.4h123.6c19,0,34.4,15.4,34.4,34.4v123.6
							C927.6,270.1,912.1,285.6,893.2,285.6z M769.6,99.5c-15.5,0-28.1,12.6-28.1,28.1v123.6c0,15.5,12.6,28.1,28.1,28.1h123.6
							c15.5,0,28.1-12.6,28.1-28.1V127.6c0-15.5-12.6-28.1-28.1-28.1H769.6z"/>
					</g>
					<g>
						<rect x="775" y="133" fill="#FFCC7C" width="112.7" height="112.7"/>
						<path d="M887.7,248.9H775c-1.7,0-3.2-1.4-3.2-3.2V133c0-1.7,1.4-3.2,3.2-3.2h112.7c1.7,0,3.2,1.4,3.2,3.2v112.7
							C890.9,247.5,889.5,248.9,887.7,248.9z M778.2,242.6h106.4V136.2H778.2V242.6z"/>
					</g>
					<g>
						<rect x="807.8" y="165.8" fill="#FFFFFF" width="47.2" height="47.2"/>
						<path d="M855,216.1h-47.2c-1.7,0-3.2-1.4-3.2-3.2v-47.2c0-1.7,1.4-3.2,3.2-3.2H855c1.7,0,3.2,1.4,3.2,3.2V213
							C858.1,214.7,856.7,216.1,855,216.1z M811,209.8h40.9V169H811V209.8z"/>
					</g>
					<g>
						<path d="M934.9,150.4h-47.2c-1.7,0-3.2-1.4-3.2-3.2c0-1.7,1.4-3.2,3.2-3.2h45.9l13-13c1.2-1.2,3.2-1.2,4.5,0s1.2,3.2,0,4.5
							l-14,14C936.5,150.1,935.7,150.4,934.9,150.4z"/>
					</g>
					<g>
						<path d="M948.9,248.7c-0.8,0-1.6-0.3-2.2-0.9l-13-13h-45.9c-1.7,0-3.2-1.4-3.2-3.2s1.4-3.2,3.2-3.2h47.2
							c0.8,0,1.6,0.3,2.2,0.9l14,14c1.2,1.2,1.2,3.2,0,4.5C950.5,248.4,949.7,248.7,948.9,248.7z"/>
					</g>
					<g>
						<line fill="#FFFFFF" x1="887.7" y1="189.4" x2="937.3" y2="189.4"/>
						<path d="M937.3,192.5h-49.6c-1.7,0-3.2-1.4-3.2-3.2c0-1.7,1.4-3.2,3.2-3.2h49.6c1.7,0,3.2,1.4,3.2,3.2
							C940.5,191.1,939.1,192.5,937.3,192.5z"/>
					</g>
					<g>
						<line fill="#FFFFFF" x1="948.9" y1="176.3" x2="948.9" y2="202.5"/>
						<path d="M948.9,205.6c-1.7,0-3.2-1.4-3.2-3.2v-26.2c0-1.7,1.4-3.2,3.2-3.2s3.2,1.4,3.2,3.2v26.2
							C952,204.2,950.6,205.6,948.9,205.6z"/>
					</g>
					<g>
						<path d="M774.7,150.4h-47.2c-0.8,0-1.6-0.3-2.2-0.9l-14-14c-1.2-1.2-1.2-3.2,0-4.5c1.2-1.2,3.2-1.2,4.5,0l13,13h45.9
							c1.7,0,3.2,1.4,3.2,3.2C777.9,149,776.5,150.4,774.7,150.4z"/>
					</g>
					<g>
						<path d="M713.6,248.7c-0.8,0-1.6-0.3-2.2-0.9c-1.2-1.2-1.2-3.2,0-4.5l14-14c0.6-0.6,1.4-0.9,2.2-0.9h47.2
							c1.7,0,3.2,1.4,3.2,3.2s-1.4,3.2-3.2,3.2h-45.9l-13,13C715.2,248.4,714.4,248.7,713.6,248.7z"/>
					</g>
					<g>
						<line fill="#FFFFFF" x1="774.7" y1="189.4" x2="725.1" y2="189.4"/>
						<path d="M774.7,192.5h-49.6c-1.7,0-3.2-1.4-3.2-3.2c0-1.7,1.4-3.2,3.2-3.2h49.6c1.7,0,3.2,1.4,3.2,3.2
							C777.9,191.1,776.5,192.5,774.7,192.5z"/>
					</g>
					<g>
						<path d="M789.1,136c-1.7,0-3.2-1.4-3.2-3.2V87L772.9,74c-1.2-1.2-1.2-3.2,0-4.5c1.2-1.2,3.2-1.2,4.5,0l14,14
							c0.6,0.6,0.9,1.4,0.9,2.2v47.2C792.2,134.6,790.8,136,789.1,136z"/>
					</g>
					<g>
						<path d="M873.4,136c-1.7,0-3.2-1.4-3.2-3.2V85.7c0-0.8,0.3-1.6,0.9-2.2l14-14c1.2-1.2,3.2-1.2,4.5,0c1.2,1.2,1.2,3.2,0,4.5
							L876.5,87v45.9C876.5,134.6,875.1,136,873.4,136z"/>
					</g>
					<g>
						<line fill="#FFFFFF" x1="831.2" y1="132.9" x2="831.2" y2="83.3"/>
						<path d="M831.2,136c-1.7,0-3.2-1.4-3.2-3.2V83.3c0-1.7,1.4-3.2,3.2-3.2c1.7,0,3.2,1.4,3.2,3.2v49.6
							C834.4,134.6,833,136,831.2,136z"/>
					</g>
					<g>
						<line fill="#FFFFFF" x1="818.1" y1="71.7" x2="844.3" y2="71.7"/>
						<path d="M844.3,74.9h-26.2c-1.7,0-3.2-1.4-3.2-3.2s1.4-3.2,3.2-3.2h26.2c1.7,0,3.2,1.4,3.2,3.2S846.1,74.9,844.3,74.9z"/>
					</g>
					<g>
						<path d="M775.1,310.2c-0.8,0-1.6-0.3-2.2-0.9c-1.2-1.2-1.2-3.2,0-4.5l13.1-13v-45.9c0-1.7,1.4-3.2,3.2-3.2s3.2,1.4,3.2,3.2
							v47.2c0,0.8-0.3,1.6-0.9,2.2l-14,14C776.7,309.9,775.9,310.2,775.1,310.2z"/>
					</g>
					<g>
						<path d="M887.3,310.2c-0.8,0-1.6-0.3-2.2-0.9l-14-14c-0.6-0.6-0.9-1.4-0.9-2.2v-47.2c0-1.7,1.4-3.2,3.2-3.2
							c1.7,0,3.2,1.4,3.2,3.2v45.9l13.1,13c1.2,1.2,1.2,3.2,0,4.5C889,309.9,888.2,310.2,887.3,310.2z"/>
					</g>
					<g>
						<line fill="#FFFFFF" x1="831.2" y1="245.9" x2="831.2" y2="295.4"/>
						<path d="M831.2,298.6c-1.7,0-3.2-1.4-3.2-3.2v-49.6c0-1.7,1.4-3.2,3.2-3.2c1.7,0,3.2,1.4,3.2,3.2v49.6
							C834.4,297.2,833,298.6,831.2,298.6z"/>
					</g>
					<g>
						<line fill="#FFFFFF" x1="818.1" y1="307" x2="844.3" y2="307"/>
						<path d="M844.3,310.2h-26.2c-1.7,0-3.2-1.4-3.2-3.2s1.4-3.2,3.2-3.2h26.2c1.7,0,3.2,1.4,3.2,3.2S846.1,310.2,844.3,310.2z"/>
					</g>
				</g>
			</g>
		</g>
		<g>
			<line fill="#FFFFFF" x1="520.7" y1="337.4" x2="618.7" y2="337.4"/>
			<path d="M618.7,340.5h-98c-1.7,0-3.2-1.4-3.2-3.2c0-1.7,1.4-3.2,3.2-3.2h98c1.7,0,3.2,1.4,3.2,3.2
				C621.9,339.1,620.5,340.5,618.7,340.5z"/>
		</g>
		<g>
			<line fill="#FFFFFF" x1="650.3" y1="337.4" x2="713.6" y2="337.4"/>
			<path d="M713.6,340.5h-63.2c-1.7,0-3.2-1.4-3.2-3.2c0-1.7,1.4-3.2,3.2-3.2h63.2c1.7,0,3.2,1.4,3.2,3.2
				C716.7,339.1,715.3,340.5,713.6,340.5z"/>
		</g>
	</g>
	<g>
		<rect x="86.3" y="453.2" fill="#FFFFFF" width="325" height="103.2"/>
		<path d="M411.4,559.7h-325c-1.7,0-3.2-1.4-3.2-3.2V453.2c0-1.7,1.4-3.2,3.2-3.2h325c1.7,0,3.2,1.4,3.2,3.2v103.2
			C414.6,558.2,413.1,559.7,411.4,559.7z M89.5,553.3h318.7v-96.9H89.5V553.3z"/>
	</g>
	<g>
		<g>
			<path fill="#FFFFFF" d="M150.7,496.6c0,12.8-10.4,23.2-23.2,23.2c-12.8,0-23.2-10.4-23.2-23.2c0-12.8,10.4-23.2,23.2-23.2
				C140.3,473.4,150.7,483.8,150.7,496.6z"/>
			<path d="M127.5,523c-14.5,0-26.4-11.8-26.4-26.4c0-14.5,11.8-26.4,26.4-26.4c14.5,0,26.4,11.8,26.4,26.4
				C153.8,511.2,142,523,127.5,523z M127.5,476.6c-11.1,0-20,9-20,20c0,11,9,20,20,20c11.1,0,20-9,20-20
				C147.5,485.6,138.5,476.6,127.5,476.6z"/>
		</g>
		<g>
			<path d="M167.2,539.5c-0.8,0-1.6-0.3-2.2-0.9l-24-24c-1.2-1.2-1.2-3.2,0-4.5c1.2-1.2,3.2-1.2,4.5,0l24,24c1.2,1.2,1.2,3.2,0,4.5
				C168.8,539.2,168,539.5,167.2,539.5z"/>
		</g>
	</g>
	<g>
		<rect x="86.3" y="607.1" fill="#96D9FF" width="281.3" height="60"/>
	</g>
	<g>
		<rect x="86.3" y="697.1" fill="#FFCC7C" width="281.3" height="60"/>
	</g>
	<g>
		<path d="M411.4,610.2h-325c-1.7,0-3.2-1.4-3.2-3.2c0-1.7,1.4-3.2,3.2-3.2h325c1.7,0,3.2,1.4,3.2,3.2
			C414.6,608.8,413.1,610.2,411.4,610.2z"/>
	</g>
	<g>
		<path d="M411.4,700.3h-325c-1.7,0-3.2-1.4-3.2-3.2s1.4-3.2,3.2-3.2h325c1.7,0,3.2,1.4,3.2,3.2S413.1,700.3,411.4,700.3z"/>
	</g>
	<g>
		<path fill="#FFA494" d="M163.2,843c0,19.7-16,35.7-35.7,35.7c-19.7,0-35.7-16-35.7-35.7c0-19.7,16-35.7,35.7-35.7
			C147.2,807.3,163.2,823.3,163.2,843z"/>
		<path d="M127.5,881.9c-21.4,0-38.9-17.4-38.9-38.9c0-21.4,17.4-38.9,38.9-38.9c21.4,0,38.9,17.4,38.9,38.9
			C166.4,864.5,148.9,881.9,127.5,881.9z M127.5,810.5c-18,0-32.6,14.6-32.6,32.6c0,18,14.6,32.6,32.6,32.6
			c18,0,32.6-14.6,32.6-32.6C160,825.1,145.4,810.5,127.5,810.5z"/>
	</g>
	<g>
		<path fill="#FFCC7C" d="M284.6,843c0,19.7-16,35.7-35.7,35.7s-35.7-16-35.7-35.7c0-19.7,16-35.7,35.7-35.7S284.6,823.3,284.6,843z
			"/>
		<path d="M248.9,881.9c-21.4,0-38.9-17.4-38.9-38.9c0-21.4,17.4-38.9,38.9-38.9s38.9,17.4,38.9,38.9
			C287.7,864.5,270.3,881.9,248.9,881.9z M248.9,810.5c-18,0-32.6,14.6-32.6,32.6c0,18,14.6,32.6,32.6,32.6s32.6-14.6,32.6-32.6
			C281.4,825.1,266.8,810.5,248.9,810.5z"/>
	</g>
	<g>
		<path fill="#E6E7E8" d="M406,843c0,19.7-16,35.7-35.7,35.7c-19.7,0-35.7-16-35.7-35.7c0-19.7,16-35.7,35.7-35.7
			C390,807.3,406,823.3,406,843z"/>
		<path d="M370.3,881.9c-21.4,0-38.9-17.4-38.9-38.9c0-21.4,17.4-38.9,38.9-38.9c21.4,0,38.9,17.4,38.9,38.9
			C409.1,864.5,391.7,881.9,370.3,881.9z M370.3,810.5c-18,0-32.6,14.6-32.6,32.6c0,18,14.6,32.6,32.6,32.6s32.6-14.6,32.6-32.6
			C402.8,825.1,388.2,810.5,370.3,810.5z"/>
	</g>
	<g>
		<path d="M1031.7,775.6c-1.7,0-3.2-1.4-3.2-3.2v-92.5c0-1.7,1.4-3.2,3.2-3.2s3.2,1.4,3.2,3.2v92.5
			C1034.8,774.2,1033.4,775.6,1031.7,775.6z"/>
	</g>
	<g>
		<path d="M1031.7,849.3c-1.7,0-3.2-1.4-3.2-3.2v-27.4c0-1.7,1.4-3.2,3.2-3.2s3.2,1.4,3.2,3.2v27.4
			C1034.8,847.9,1033.4,849.3,1031.7,849.3z"/>
	</g>
	<g>
		<g>
			<path fill="#96D9FF" d="M1238.5,309.2c0,13.6-11,24.6-24.6,24.6c-13.6,0-24.6-11-24.6-24.6s11-24.6,24.6-24.6
				C1227.5,284.7,1238.5,295.7,1238.5,309.2z"/>
			<path d="M1213.9,337c-15.3,0-27.7-12.4-27.7-27.7s12.4-27.7,27.7-27.7c15.3,0,27.7,12.4,27.7,27.7S1229.2,337,1213.9,337z
				 M1213.9,287.8c-11.8,0-21.4,9.6-21.4,21.4s9.6,21.4,21.4,21.4c11.8,0,21.4-9.6,21.4-21.4S1225.7,287.8,1213.9,287.8z"/>
		</g>
		<g>
			<path fill="#96D9FF" d="M1148.6,328.3c0,13.6-11,24.6-24.6,24.6c-13.6,0-24.6-11-24.6-24.6c0-13.6,11-24.6,24.6-24.6
				C1137.6,303.7,1148.6,314.7,1148.6,328.3z"/>
			<path d="M1124,356c-15.3,0-27.7-12.4-27.7-27.7c0-15.3,12.4-27.7,27.7-27.7c15.3,0,27.7,12.4,27.7,27.7
				C1151.7,343.6,1139.3,356,1124,356z M1124,306.9c-11.8,0-21.4,9.6-21.4,21.4c0,11.8,9.6,21.4,21.4,21.4
				c11.8,0,21.4-9.6,21.4-21.4C1145.4,316.5,1135.8,306.9,1124,306.9z"/>
		</g>
		<g>
			<path d="M1257.6,254.4h-177.2c-1.7,0-3.2-1.4-3.2-3.2v-52.5c0-1.7,1.4-3.2,3.2-3.2s3.2,1.4,3.2,3.2v49.3h170.9v-73.9
				c0-1.7,1.4-3.2,3.2-3.2s3.2,1.4,3.2,3.2v77.1C1260.7,253,1259.3,254.4,1257.6,254.4z"/>
		</g>
		<g>
			<path d="M1169,254.4c-1.7,0-3.2-1.4-3.2-3.2V155c0-1.7,1.4-3.2,3.2-3.2s3.2,1.4,3.2,3.2v96.3C1172.1,253,1170.7,254.4,1169,254.4
				z"/>
		</g>
		<g>
			<path d="M1124,306.9c-1.7,0-3.2-1.4-3.2-3.2v-52.5c0-1.7,1.4-3.2,3.2-3.2s3.2,1.4,3.2,3.2v52.5
				C1127.2,305.5,1125.8,306.9,1124,306.9z"/>
		</g>
		<g>
			<path d="M1213.9,284c-1.7,0-3.2-1.4-3.2-3.2v-29.6c0-1.7,1.4-3.2,3.2-3.2c1.7,0,3.2,1.4,3.2,3.2v29.6
				C1217.1,282.6,1215.7,284,1213.9,284z"/>
		</g>
		<g>
			<path fill="#FFA494" d="M1104.9,198.7c0,13.6-11,24.6-24.6,24.6c-13.6,0-24.6-11-24.6-24.6c0-13.6,11-24.6,24.6-24.6
				C1093.9,174.2,1104.9,185.2,1104.9,198.7z"/>
			<path d="M1080.4,226.5c-15.3,0-27.7-12.4-27.7-27.7c0-15.3,12.4-27.7,27.7-27.7c15.3,0,27.7,12.4,27.7,27.7
				C1108.1,214,1095.7,226.5,1080.4,226.5z M1080.4,177.3c-11.8,0-21.4,9.6-21.4,21.4c0,11.8,9.6,21.4,21.4,21.4s21.4-9.6,21.4-21.4
				C1101.8,186.9,1092.2,177.3,1080.4,177.3z"/>
		</g>
		<g>
			<path fill="#FFA494" d="M1282.1,174.2c0,13.6-11,24.6-24.6,24.6c-13.6,0-24.6-11-24.6-24.6c0-13.6,11-24.6,24.6-24.6
				C1271.1,149.6,1282.1,160.6,1282.1,174.2z"/>
			<path d="M1257.6,201.9c-15.3,0-27.7-12.4-27.7-27.7c0-15.3,12.4-27.7,27.7-27.7c15.3,0,27.7,12.4,27.7,27.7
				C1285.3,189.5,1272.8,201.9,1257.6,201.9z M1257.6,152.8c-11.8,0-21.4,9.6-21.4,21.4c0,11.8,9.6,21.4,21.4,21.4
				c11.8,0,21.4-9.6,21.4-21.4C1279,162.4,1269.4,152.8,1257.6,152.8z"/>
		</g>
		<g>
			<path fill="#FFA494" d="M1193.5,155c0,13.6-11,24.6-24.6,24.6c-13.6,0-24.6-11-24.6-24.6s11-24.6,24.6-24.6
				C1182.5,130.4,1193.5,141.4,1193.5,155z"/>
			<path d="M1169,182.7c-15.3,0-27.7-12.4-27.7-27.7c0-15.3,12.4-27.7,27.7-27.7c15.3,0,27.7,12.4,27.7,27.7
				C1196.7,170.3,1184.2,182.7,1169,182.7z M1169,133.6c-11.8,0-21.4,9.6-21.4,21.4c0,11.8,9.6,21.4,21.4,21.4
				c11.8,0,21.4-9.6,21.4-21.4C1190.4,143.2,1180.8,133.6,1169,133.6z"/>
		</g>
	</g>
</g>
</svg>
