<?xml version="1.0" encoding="utf-8"?>
<!-- Generator: Adobe Illustrator 16.0.0, SVG Export Plug-In . SVG Version: 6.00 Build 0)  -->
<!DOCTYPE svg PUBLIC "-//W3C//DTD SVG 1.1//EN" "http://www.w3.org/Graphics/SVG/1.1/DTD/svg11.dtd">
<svg version="1.1" id="Layer_1" xmlns="http://www.w3.org/2000/svg" xmlns:xlink="http://www.w3.org/1999/xlink" x="0px" y="0px"
	 width="1400px" height="980px" viewBox="0 0 1400 980" enable-background="new 0 0 1400 980" xml:space="preserve">
<g>
	<g>
		<g>
			<rect fill="#FFFFFF" width="1400" height="980"/>
		</g>
	</g>
	<g>
		<path d="M920.2,644.8H400.6c-11.7,0-21.2-9.5-21.2-21.2v-340c0-11.7,9.5-21.2,21.2-21.2h519.6c11.7,0,21.2,9.5,21.2,21.2v340
			C941.5,635.3,931.9,644.8,920.2,644.8z M400.6,266.2c-9.6,0-17.4,7.8-17.4,17.4v340c0,9.6,7.8,17.4,17.4,17.4h519.6
			c9.6,0,17.4-7.8,17.4-17.4v-340c0-9.6-7.8-17.4-17.4-17.4H400.6z"/>
	</g>
	<g>
		<rect x="416" y="299" fill="#82E7FF" width="488.7" height="309.1"/>
		<path d="M904.8,610H416c-1.1,0-1.9-0.9-1.9-1.9V299c0-1.1,0.9-1.9,1.9-1.9h488.7c1.1,0,1.9,0.9,1.9,1.9v309.1
			C906.7,609.2,905.8,610,904.8,610z M418,606.2h484.9V300.9H418V606.2z"/>
	</g>
	<g>
		<g>
			<polygon fill="#E6E7E8" points="660.4,642.9 605.3,642.9 544.5,703.7 776.3,703.7 715.5,642.9 			"/>
			<path d="M776.3,705.6H544.5c-0.8,0-1.5-0.5-1.8-1.2c-0.3-0.7-0.1-1.6,0.4-2.1l60.8-60.8c0.4-0.4,0.9-0.6,1.4-0.6h110.1
				c0.5,0,1,0.2,1.4,0.6l60.8,60.8c0.6,0.6,0.7,1.4,0.4,2.1C777.8,705.2,777.1,705.6,776.3,705.6z M549.2,701.8h222.5l-57-57H606.1
				L549.2,701.8z"/>
		</g>
		<g>
			<path d="M776.3,726.9H544.5c-1.1,0-1.9-0.9-1.9-1.9v-21.2c0-1.1,0.9-1.9,1.9-1.9h231.8c1.1,0,1.9,0.9,1.9,1.9V725
				C778.2,726,777.4,726.9,776.3,726.9z M546.4,723h227.9v-17.4H546.4V723z"/>
		</g>
	</g>
	<g>
		<g>
			<g>
				<path fill="#FFFFFF" d="M1021.6,743.3c0,6.4-5.2,11.6-11.6,11.6H869c-6.4,0-11.6-5.2-11.6-11.6V497c0-6.4,5.2-11.6,11.6-11.6
					h141c6.4,0,11.6,5.2,11.6,11.6V743.3z"/>
			</g>
			<g>
				<path d="M1010,756.8H869c-7.5,0-13.5-6.1-13.5-13.5V497c0-7.5,6.1-13.5,13.5-13.5h141c7.5,0,13.5,6.1,13.5,13.5v246.3
					C1023.6,750.8,1017.5,756.8,1010,756.8z M869,487.4c-5.3,0-9.7,4.3-9.7,9.7v246.3c0,5.3,4.3,9.7,9.7,9.7h141
					c5.3,0,9.7-4.3,9.7-9.7V497c0-5.3-4.3-9.7-9.7-9.7H869z"/>
			</g>
		</g>
		<g>
			<rect x="870.4" y="498.6" fill="#FFB09F" width="138.3" height="198.8"/>
			<path d="M1008.7,699.4H870.4c-1.1,0-1.9-0.9-1.9-1.9V498.6c0-1.1,0.9-1.9,1.9-1.9h138.3c1.1,0,1.9,0.9,1.9,1.9v198.8
				C1010.6,698.5,1009.7,699.4,1008.7,699.4z M872.3,695.5h134.4V500.6H872.3V695.5z"/>
		</g>
		<g>
			<rect x="877.2" y="717.1" fill="#E6E7E8" width="45.9" height="16.9"/>
			<path d="M923.1,735.9h-45.9c-1.1,0-1.9-0.9-1.9-1.9v-16.9c0-1.1,0.9-1.9,1.9-1.9h45.9c1.1,0,1.9,0.9,1.9,1.9V734
				C925,735,924.2,735.9,923.1,735.9z M879.2,732h42v-13h-42V732z"/>
		</g>
		<g>
			<rect x="956" y="717.1" fill="#E6E7E8" width="45.9" height="16.9"/>
			<path d="M1001.8,735.9H956c-1.1,0-1.9-0.9-1.9-1.9v-16.9c0-1.1,0.9-1.9,1.9-1.9h45.9c1.1,0,1.9,0.9,1.9,1.9V734
				C1003.8,735,1002.9,735.9,1001.8,735.9z M957.9,732h42v-13h-42V732z"/>
		</g>
	</g>
	<g>
		<g>
			<polygon fill="#FFF29C" points="700,385.2 609.5,385.2 609.5,359.9 508.5,359.9 508.5,385.2 489.6,385.2 489.6,547.2 
				729.5,547.2 729.5,414.7 			"/>
			<path d="M729.5,549.2H489.6c-1.1,0-1.9-0.9-1.9-1.9v-162c0-1.1,0.9-1.9,1.9-1.9h17v-23.4c0-1.1,0.9-1.9,1.9-1.9h101
				c1.1,0,1.9,0.9,1.9,1.9v23.4H700c0.5,0,1,0.2,1.4,0.6l29.5,29.5c0.4,0.4,0.6,0.9,0.6,1.4v132.5
				C731.4,548.3,730.6,549.2,729.5,549.2z M491.5,545.3h236.1V415.5l-28.3-28.3h-89.7c-1.1,0-1.9-0.9-1.9-1.9v-23.4h-97.1v23.4
				c0,1.1-0.9,1.9-1.9,1.9h-17V545.3z"/>
		</g>
		<g>
			<path d="M576.2,387.2h-67.7c-1.1,0-1.9-0.9-1.9-1.9c0-1.1,0.9-1.9,1.9-1.9h67.7c1.1,0,1.9,0.9,1.9,1.9
				C578.1,386.3,577.3,387.2,576.2,387.2z"/>
		</g>
		<g>
			<rect x="508.5" y="419.8" fill="#EBDE90" width="89.2" height="33.7"/>
			<path d="M597.7,455.5h-89.2c-1.1,0-1.9-0.9-1.9-1.9v-33.7c0-1.1,0.9-1.9,1.9-1.9h89.2c1.1,0,1.9,0.9,1.9,1.9v33.7
				C599.7,454.6,598.8,455.5,597.7,455.5z M510.5,451.6h85.3v-29.8h-85.3V451.6z"/>
		</g>
		<g>
			<path d="M597.7,477.9h-89.2c-1.1,0-1.9-0.9-1.9-1.9s0.9-1.9,1.9-1.9h89.2c1.1,0,1.9,0.9,1.9,1.9S598.8,477.9,597.7,477.9z"/>
		</g>
	</g>
	<g>
		<g>
			<polygon fill="#FFF29C" points="315.8,210.3 242.3,210.3 242.3,189.7 160.2,189.7 160.2,210.3 144.7,210.3 144.7,342.1 
				339.8,342.1 339.8,234.3 			"/>
			<path d="M339.8,344H144.7c-1.1,0-1.9-0.9-1.9-1.9V210.3c0-1.1,0.9-1.9,1.9-1.9h13.5v-18.7c0-1.1,0.9-1.9,1.9-1.9h82.1
				c1.1,0,1.9,0.9,1.9,1.9v18.7h71.6c0.5,0,1,0.2,1.4,0.6l24,24c0.4,0.4,0.6,0.9,0.6,1.4v107.7C341.7,343.1,340.9,344,339.8,344z
				 M146.7,340.1h191.2v-105L315,212.3h-72.8c-1.1,0-1.9-0.9-1.9-1.9v-18.7h-78.2v18.7c0,1.1-0.9,1.9-1.9,1.9h-13.5V340.1z"/>
		</g>
		<g>
			<path d="M215.2,212.3h-55c-1.1,0-1.9-0.9-1.9-1.9c0-1.1,0.9-1.9,1.9-1.9h55c1.1,0,1.9,0.9,1.9,1.9
				C217.1,211.4,216.2,212.3,215.2,212.3z"/>
		</g>
		<g>
			<rect x="160.2" y="238.5" fill="#EBDE90" width="72.5" height="27.4"/>
			<path d="M232.7,267.8h-72.5c-1.1,0-1.9-0.9-1.9-1.9v-27.4c0-1.1,0.9-1.9,1.9-1.9h72.5c1.1,0,1.9,0.9,1.9,1.9v27.4
				C234.6,267,233.7,267.8,232.7,267.8z M162.1,264h68.7v-23.5h-68.7V264z"/>
		</g>
		<g>
			<path d="M232.7,286.1h-72.5c-1.1,0-1.9-0.9-1.9-1.9c0-1.1,0.9-1.9,1.9-1.9h72.5c1.1,0,1.9,0.9,1.9,1.9
				C234.6,285.2,233.7,286.1,232.7,286.1z"/>
		</g>
	</g>
	<g>
		<g>
			<polygon fill="#FFF29C" points="315.8,564.6 242.3,564.6 242.3,544 160.2,544 160.2,564.6 144.7,564.6 144.7,696.3 339.8,696.3 
				339.8,588.6 			"/>
			<path d="M339.8,698.3H144.7c-1.1,0-1.9-0.9-1.9-1.9V564.6c0-1.1,0.9-1.9,1.9-1.9h13.5V544c0-1.1,0.9-1.9,1.9-1.9h82.1
				c1.1,0,1.9,0.9,1.9,1.9v18.7h71.6c0.5,0,1,0.2,1.4,0.6l24,24c0.4,0.4,0.6,0.9,0.6,1.4v107.7C341.7,697.4,340.9,698.3,339.8,698.3
				z M146.7,694.4h191.2v-105L315,566.6h-72.8c-1.1,0-1.9-0.9-1.9-1.9v-18.7h-78.2v18.7c0,1.1-0.9,1.9-1.9,1.9h-13.5V694.4z"/>
		</g>
		<g>
			<path d="M215.2,566.6h-55c-1.1,0-1.9-0.9-1.9-1.9c0-1.1,0.9-1.9,1.9-1.9h55c1.1,0,1.9,0.9,1.9,1.9
				C217.1,565.7,216.2,566.6,215.2,566.6z"/>
		</g>
		<g>
			<rect x="160.2" y="592.8" fill="#EBDE90" width="72.5" height="27.4"/>
			<path d="M232.7,622.1h-72.5c-1.1,0-1.9-0.9-1.9-1.9v-27.4c0-1.1,0.9-1.9,1.9-1.9h72.5c1.1,0,1.9,0.9,1.9,1.9v27.4
				C234.6,621.2,233.7,622.1,232.7,622.1z M162.1,618.2h68.7v-23.5h-68.7V618.2z"/>
		</g>
		<g>
			<path d="M232.7,640.3h-72.5c-1.1,0-1.9-0.9-1.9-1.9c0-1.1,0.9-1.9,1.9-1.9h72.5c1.1,0,1.9,0.9,1.9,1.9
				C234.6,639.5,233.7,640.3,232.7,640.3z"/>
		</g>
	</g>
	<g>
		<polygon fill="#FFF29C" points="971.8,573.7 939.5,573.7 939.5,564.6 903.5,564.6 903.5,573.7 896.8,573.7 896.8,631.4 
			982.3,631.4 982.3,584.2 		"/>
		<path d="M982.3,633.4h-85.5c-1.1,0-1.9-0.9-1.9-1.9v-57.8c0-1.1,0.9-1.9,1.9-1.9h4.8v-7.1c0-1.1,0.9-1.9,1.9-1.9h36
			c1.1,0,1.9,0.9,1.9,1.9v7.1h30.3c0.5,0,1,0.2,1.4,0.6l10.5,10.5c0.4,0.4,0.6,0.9,0.6,1.4v47.2
			C984.2,632.5,983.4,633.4,982.3,633.4z M898.7,629.5h81.7V585l-9.4-9.4h-31.5c-1.1,0-1.9-0.9-1.9-1.9v-7.1h-32.1v7.1
			c0,1.1-0.9,1.9-1.9,1.9h-4.8V629.5z"/>
	</g>
	<g>
		<path d="M835.1,512.6c-0.5,0-1-0.2-1.4-0.6l-34.1-34.1h-70.2c-1.1,0-1.9-0.9-1.9-1.9s0.9-1.9,1.9-1.9h71c0.5,0,1,0.2,1.4,0.6
			l34.7,34.7c0.8,0.8,0.8,2,0,2.7C836.1,512.4,835.6,512.6,835.1,512.6z"/>
	</g>
	<g>
		<path d="M835.1,513.1h-35.7c-1.1,0-1.9-0.9-1.9-1.9c0-1.1,0.9-1.9,1.9-1.9h33.8v-33.8c0-1.1,0.9-1.9,1.9-1.9
			c1.1,0,1.9,0.9,1.9,1.9v35.7C837,512.2,836.2,513.1,835.1,513.1z"/>
	</g>
	<g>
		<path d="M934.2,597.9H912c-1.1,0-1.9-0.9-1.9-1.9s0.9-1.9,1.9-1.9h22.2c1.1,0,1.9,0.9,1.9,1.9S935.3,597.9,934.2,597.9z"/>
	</g>
	<g>
		<path d="M934.2,610H912c-1.1,0-1.9-0.9-1.9-1.9c0-1.1,0.9-1.9,1.9-1.9h22.2c1.1,0,1.9,0.9,1.9,1.9
			C936.2,609.2,935.3,610,934.2,610z"/>
	</g>
	<g>
		<g>
			<path d="M1008.6,438.6h-42c-1.1,0-1.9-0.9-1.9-1.9v-41.1c0-1.1,0.9-1.9,1.9-1.9h42c1.1,0,1.9,0.9,1.9,1.9v41.1
				C1010.5,437.8,1009.7,438.6,1008.6,438.6z M968.5,434.8h38.2v-37.2h-38.2V434.8z"/>
		</g>
		<g>
			<rect x="1008.6" y="395.6" fill="#E6E7E8" width="42" height="41.1"/>
			<path d="M1050.6,438.6h-42c-1.1,0-1.9-0.9-1.9-1.9v-41.1c0-1.1,0.9-1.9,1.9-1.9h42c1.1,0,1.9,0.9,1.9,1.9v41.1
				C1052.5,437.8,1051.7,438.6,1050.6,438.6z M1010.5,434.8h38.2v-37.2h-38.2V434.8z"/>
		</g>
	</g>
	<g>
		<path d="M1008.7,449.2c-1.1,0-1.9-0.9-1.9-1.9V385c0-1.1,0.9-1.9,1.9-1.9s1.9,0.9,1.9,1.9v62.2
			C1010.6,448.3,1009.7,449.2,1008.7,449.2z"/>
	</g>
	<g>
		<path d="M998.4,410h-21.7c-1.1,0-1.9-0.9-1.9-1.9s0.9-1.9,1.9-1.9h21.7c1.1,0,1.9,0.9,1.9,1.9S999.5,410,998.4,410z"/>
	</g>
	<g>
		<path d="M998.4,426.2h-21.7c-1.1,0-1.9-0.9-1.9-1.9c0-1.1,0.9-1.9,1.9-1.9h21.7c1.1,0,1.9,0.9,1.9,1.9
			C1000.4,425.3,999.5,426.2,998.4,426.2z"/>
	</g>
	<g>
		<path d="M1071.9,726.9h-24.1c-1.1,0-1.9-0.9-1.9-1.9c0-1.1,0.9-1.9,1.9-1.9h24.1c16,0,29-13,29-29v-247c0-16-10.8-29-24.1-29
			h-26.1c-1.1,0-1.9-0.9-1.9-1.9c0-1.1,0.9-1.9,1.9-1.9h26.1c15.4,0,28,14.7,28,32.8v247C1104.7,712.2,1090,726.9,1071.9,726.9z"/>
	</g>
	<g>
		<rect x="1021.6" y="713.7" fill="#E6E7E8" width="26.1" height="22.5"/>
		<path d="M1047.7,738.2h-26.1c-1.1,0-1.9-0.9-1.9-1.9v-22.5c0-1.1,0.9-1.9,1.9-1.9h26.1c1.1,0,1.9,0.9,1.9,1.9v22.5
			C1049.6,737.3,1048.8,738.2,1047.7,738.2z M1023.6,734.3h22.2v-18.7h-22.2V734.3z"/>
	</g>
	<g>
		<path d="M544.5,726.9h-21.6c-1.1,0-1.9-0.9-1.9-1.9c0-1.1,0.9-1.9,1.9-1.9h21.6c1.1,0,1.9,0.9,1.9,1.9
			C546.4,726,545.6,726.9,544.5,726.9z"/>
	</g>
	<g>
		<path d="M501,726.9h-32.2c-1.1,0-1.9-0.9-1.9-1.9c0-1.1,0.9-1.9,1.9-1.9H501c1.1,0,1.9,0.9,1.9,1.9C503,726,502.1,726.9,501,726.9
			z"/>
	</g>
	<g>
		<path d="M810.8,726.9h-34.5c-1.1,0-1.9-0.9-1.9-1.9c0-1.1,0.9-1.9,1.9-1.9h34.5c1.1,0,1.9,0.9,1.9,1.9
			C812.7,726,811.8,726.9,810.8,726.9z"/>
	</g>
	<g>
		<path d="M695.7,626.4h-70.5c-1.1,0-1.9-0.9-1.9-1.9c0-1.1,0.9-1.9,1.9-1.9h70.5c1.1,0,1.9,0.9,1.9,1.9
			C697.6,625.6,696.7,626.4,695.7,626.4z"/>
	</g>
	<g>
		<path d="M381.3,433.5H277c-20.2,0-36.7-16.5-36.7-36.7v-52.2c0-1.1,0.9-1.9,1.9-1.9s1.9,0.9,1.9,1.9v52.2
			c0,18.1,14.7,32.8,32.8,32.8h104.2c1.1,0,1.9,0.9,1.9,1.9C383.2,432.7,382.3,433.5,381.3,433.5z"/>
	</g>
	<g>
		<path d="M242.3,567.6c-1.1,0-1.9-0.9-1.9-1.9v-52.2c0-20.2,16.5-36.7,36.7-36.7h104.2c1.1,0,1.9,0.9,1.9,1.9
			c0,1.1-0.9,1.9-1.9,1.9H277c-18.1,0-32.8,14.7-32.8,32.8v52.2C244.2,566.7,243.3,567.6,242.3,567.6z"/>
	</g>
	<g>
		<path d="M1138.6,827.2H974.3c-20.2,0-36.7-16.5-36.7-36.7v-35.6c0-1.1,0.9-1.9,1.9-1.9c1.1,0,1.9,0.9,1.9,1.9v35.6
			c0,18.1,14.7,32.8,32.8,32.8h164.3c18.1,0,32.8-14.7,32.8-32.8V314c0-1.1,0.9-1.9,1.9-1.9c1.1,0,1.9,0.9,1.9,1.9v476.5
			C1175.3,810.7,1158.8,827.2,1138.6,827.2z"/>
	</g>
	<g>
		<path fill="#A7E38B" d="M1278.9,284.2c0,16.5-13.4,29.8-29.8,29.8h-151.6c-16.5,0-29.8-13.4-29.8-29.8V132.6
			c0-16.5,13.4-29.8,29.8-29.8h151.6c16.5,0,29.8,13.4,29.8,29.8V284.2z"/>
		<path d="M1249.1,315.9h-151.6c-17.5,0-31.7-14.2-31.7-31.7V132.6c0-17.5,14.2-31.7,31.7-31.7h151.6c17.5,0,31.8,14.2,31.8,31.7
			v151.6C1280.9,301.7,1266.6,315.9,1249.1,315.9z M1097.6,104.7c-15.4,0-27.9,12.5-27.9,27.9v151.6c0,15.4,12.5,27.9,27.9,27.9
			h151.6c15.4,0,27.9-12.5,27.9-27.9V132.6c0-15.4-12.5-27.9-27.9-27.9H1097.6z"/>
	</g>
	<g>
		<path fill="#FFFFFF" d="M1207.5,192.3c0,18.5-15,33.5-33.5,33.5h-1.4c-18.5,0-33.5-15-33.5-33.5v-25.1c0-18.5,15-33.5,33.5-33.5
			h1.4c18.5,0,33.5,15,33.5,33.5V192.3z"/>
		<path d="M1174,227.7h-1.4c-19.5,0-35.4-15.9-35.4-35.4v-25.1c0-19.5,15.9-35.4,35.4-35.4h1.4c19.5,0,35.4,15.9,35.4,35.4v25.1
			C1209.5,211.8,1193.6,227.7,1174,227.7z M1172.7,135.6c-17.4,0-31.5,14.2-31.5,31.6v25.1c0,17.4,14.2,31.5,31.5,31.5h1.4
			c17.4,0,31.5-14.2,31.5-31.5v-25.1c0-17.4-14.2-31.6-31.5-31.6H1172.7z"/>
	</g>
	<g>
		<rect x="1097.8" y="244.8" fill="#FFFFFF" width="151.1" height="69.2"/>
		<path d="M1248.9,315.9h-151.1c-1.1,0-1.9-0.9-1.9-1.9v-69.2c0-1.1,0.9-1.9,1.9-1.9h151.1c1.1,0,1.9,0.9,1.9,1.9V314
			C1250.8,315.1,1250,315.9,1248.9,315.9z M1099.7,312.1H1247v-65.4h-147.3V312.1z"/>
	</g>
	<g>
		<path d="M1133.3,315.9c-1.1,0-1.9-0.9-1.9-1.9v-31.1c0-1.1,0.9-1.9,1.9-1.9c1.1,0,1.9,0.9,1.9,1.9V314
			C1135.2,315.1,1134.3,315.9,1133.3,315.9z"/>
	</g>
	<g>
		<path d="M1213.4,315.9c-1.1,0-1.9-0.9-1.9-1.9v-31.1c0-1.1,0.9-1.9,1.9-1.9s1.9,0.9,1.9,1.9V314
			C1215.4,315.1,1214.5,315.9,1213.4,315.9z"/>
	</g>
	<g>
		<polygon fill="#FFB09F" points="1038.3,222.3 981.9,189.7 1038.3,157.2 		"/>
		<path d="M1038.3,224.2c-0.3,0-0.7-0.1-1-0.3L981,191.4c-0.6-0.3-1-1-1-1.7s0.4-1.3,1-1.7l56.4-32.5c0.6-0.3,1.3-0.3,1.9,0
			c0.6,0.3,1,1,1,1.7v65.1c0,0.7-0.4,1.3-1,1.7C1039,224.1,1038.6,224.2,1038.3,224.2z M985.8,189.7l50.6,29.2v-58.4L985.8,189.7z"
			/>
	</g>
	<g>
		<polygon fill="#FFB09F" points="950.9,222.3 894.5,189.7 950.9,157.2 		"/>
		<path d="M950.9,224.2c-0.3,0-0.7-0.1-1-0.3l-56.4-32.5c-0.6-0.3-1-1-1-1.7s0.4-1.3,1-1.7l56.4-32.5c0.6-0.3,1.3-0.3,1.9,0
			c0.6,0.3,1,1,1,1.7v65.1c0,0.7-0.4,1.3-1,1.7C951.6,224.1,951.2,224.2,950.9,224.2z M898.4,189.7l50.6,29.2v-58.4L898.4,189.7z"/>
	</g>
	<g>
		<path d="M1191.3,516.9c-0.1,0-0.1,0-0.2,0c-6.6-0.8-13.1-2.6-19.1-5.3c-1-0.4-1.4-1.6-1-2.6c0.4-1,1.6-1.4,2.6-1
			c5.7,2.6,11.7,4.3,17.9,5c1.1,0.1,1.8,1.1,1.7,2.1C1193.1,516.2,1192.3,516.9,1191.3,516.9z M1206.7,516.8c-1,0-1.8-0.7-1.9-1.7
			c-0.1-1.1,0.6-2,1.7-2.2c6.2-0.8,12.2-2.6,17.9-5.3c1-0.5,2.1-0.1,2.6,0.9c0.5,1,0.1,2.1-0.9,2.6c-6,2.9-12.4,4.8-19,5.7
			C1206.9,516.7,1206.8,516.8,1206.7,516.8z M1159.7,503.6c-0.4,0-0.9-0.1-1.2-0.4c-5.2-4.2-9.7-9.1-13.3-14.7
			c-0.6-0.9-0.3-2.1,0.6-2.7c0.9-0.6,2.1-0.3,2.7,0.6c3.4,5.2,7.6,9.9,12.5,13.8c0.8,0.7,1,1.9,0.3,2.7
			C1160.8,503.4,1160.2,503.6,1159.7,503.6z M1238.1,502.9c-0.6,0-1.1-0.2-1.5-0.7c-0.7-0.8-0.6-2,0.2-2.7c4.8-4,8.9-8.7,12.3-14
			c0.6-0.9,1.8-1.2,2.7-0.6c0.9,0.6,1.2,1.8,0.6,2.7c-3.6,5.6-7.9,10.6-13.1,14.9C1239,502.8,1238.5,502.9,1238.1,502.9z
			 M1140,475.5c-0.8,0-1.6-0.5-1.8-1.3c-2.1-6.3-3.3-12.8-3.4-19.5c0-1.1,0.8-1.9,1.9-2c1,0,1.9,0.8,2,1.9
			c0.1,6.3,1.2,12.5,3.2,18.4c0.3,1-0.2,2.1-1.2,2.5C1140.4,475.5,1140.2,475.5,1140,475.5z M1257.3,474.5c-0.2,0-0.4,0-0.6-0.1
			c-1-0.3-1.6-1.4-1.2-2.4c1.9-5.9,2.9-12.1,2.9-18.4c0-2-0.1-3.9-0.3-5.9c-0.1-1.1,0.7-2,1.7-2.1c1.1-0.1,2,0.7,2.1,1.7
			c0.2,2,0.3,4.1,0.3,6.2c0,6.7-1,13.3-3.1,19.6C1258.9,474,1258.1,474.5,1257.3,474.5z M1138.3,441.3c-0.1,0-0.3,0-0.4-0.1
			c-1-0.2-1.7-1.3-1.4-2.3c1.5-6.5,4.1-12.7,7.5-18.4c0.6-0.9,1.7-1.2,2.7-0.6c0.9,0.6,1.2,1.7,0.6,2.7c-3.2,5.4-5.6,11.2-7.1,17.2
			C1140,440.7,1139.2,441.3,1138.3,441.3z M1256.6,434.4c-0.8,0-1.5-0.5-1.8-1.3c-2.1-5.9-5.2-11.4-9-16.3c-0.7-0.8-0.5-2.1,0.3-2.7
			c0.8-0.7,2.1-0.5,2.7,0.3c4.1,5.3,7.3,11.1,9.6,17.4c0.4,1-0.2,2.1-1.2,2.5C1257,434.4,1256.8,434.4,1256.6,434.4z M1155.1,411.4
			c-0.5,0-1-0.2-1.4-0.6c-0.7-0.8-0.7-2,0-2.7c4.8-4.7,10.2-8.6,16.1-11.5c1-0.5,2.1-0.1,2.6,0.9c0.5,1,0.1,2.1-0.9,2.6
			c-5.6,2.8-10.7,6.4-15.2,10.8C1156.1,411.2,1155.6,411.4,1155.1,411.4z M1236.4,406.7c-0.4,0-0.8-0.1-1.2-0.4
			c-5-3.9-10.4-6.9-16.3-9c-1-0.4-1.5-1.5-1.2-2.5c0.4-1,1.5-1.5,2.5-1.2c6.3,2.3,12.1,5.5,17.4,9.6c0.8,0.7,1,1.9,0.3,2.7
			C1237.5,406.4,1237,406.7,1236.4,406.7z M1185.3,395.1c-0.9,0-1.7-0.6-1.9-1.5c-0.2-1,0.4-2.1,1.5-2.3c6.4-1.4,13.2-1.8,19.8-1.1
			c1.1,0.1,1.8,1,1.7,2.1c-0.1,1.1-1.1,1.8-2.1,1.7c-6.2-0.6-12.6-0.2-18.6,1.1C1185.6,395.1,1185.4,395.1,1185.3,395.1z"/>
	</g>
	<g>
		<path d="M1198.5,675.2c-1.1,0-1.9-0.9-1.9-1.9V551.9c0-1.1,0.9-1.9,1.9-1.9s1.9,0.9,1.9,1.9v121.4
			C1200.4,674.3,1199.5,675.2,1198.5,675.2z"/>
	</g>
	<g>
		<path d="M1198.5,370.3c-1.1,0-1.9-0.9-1.9-1.9v-33.8c0-1.1,0.9-1.9,1.9-1.9s1.9,0.9,1.9,1.9v33.8
			C1200.4,369.5,1199.5,370.3,1198.5,370.3z"/>
	</g>
	<g>
		<g>
			<path d="M1244.3,761.1c-0.5,0-1-0.2-1.4-0.6l-45.8-45.8c-0.8-0.8-0.8-2,0-2.7c0.8-0.8,2-0.8,2.7,0l45.8,45.8c0.8,0.8,0.8,2,0,2.7
				C1245.2,760.9,1244.8,761.1,1244.3,761.1z"/>
		</g>
		<g>
			<path d="M1198.5,761.1c-0.5,0-1-0.2-1.4-0.6c-0.8-0.8-0.8-2,0-2.7l45.8-45.8c0.8-0.8,2-0.8,2.7,0c0.8,0.8,0.8,2,0,2.7l-45.8,45.8
				C1199.4,760.9,1199,761.1,1198.5,761.1z"/>
		</g>
	</g>
	<g>
		<path fill="#FFF29C" d="M1139.2,777c0,10.5-8.5,18.9-18.9,18.9c-10.5,0-18.9-8.5-18.9-18.9c0-10.5,8.5-18.9,18.9-18.9
			C1130.7,758,1139.2,766.5,1139.2,777z"/>
		<path d="M1120.2,797.8c-11.5,0-20.9-9.4-20.9-20.9s9.4-20.9,20.9-20.9c11.5,0,20.9,9.4,20.9,20.9S1131.7,797.8,1120.2,797.8z
			 M1120.2,759.9c-9.4,0-17,7.6-17,17s7.6,17,17,17c9.4,0,17-7.6,17-17S1129.6,759.9,1120.2,759.9z"/>
	</g>
	<g>
		<path d="M1149.2,688.1c-1.1,0-1.9-0.9-1.9-1.9v-47.3c0-1.1,0.9-1.9,1.9-1.9c1.1,0,1.9,0.9,1.9,1.9v47.3
			C1151.1,687.2,1150.3,688.1,1149.2,688.1z"/>
	</g>
	<g>
		<path d="M489.4,855.5H156.3c-7.5,0-13.5-6.1-13.5-13.5v-71.3c0-7.5,6.1-13.5,13.5-13.5h218.6l22.8-39.4c0.7-1.2,2.7-1.2,3.3,0
			l22.8,39.4h65.6c7.5,0,13.5,6.1,13.5,13.5V842C503,849.4,496.9,855.5,489.4,855.5z M156.3,761.1c-5.3,0-9.7,4.3-9.7,9.7V842
			c0,5.3,4.3,9.7,9.7,9.7h333.1c5.3,0,9.7-4.3,9.7-9.7v-71.3c0-5.3-4.3-9.7-9.7-9.7h-66.7c-0.7,0-1.3-0.4-1.7-1l-21.6-37.5
			l-21.6,37.5c-0.3,0.6-1,1-1.7,1H156.3z"/>
	</g>
	<g>
		<g>
			<path fill="#82E7FF" d="M732.2,759.1H554c-6.4,0-11.6,5.2-11.6,11.6V842c0,6.4,5.2,11.6,11.6,11.6h178.2V759.1z"/>
			<path d="M732.2,855.5H554c-7.5,0-13.5-6.1-13.5-13.5v-71.3c0-7.5,6.1-13.5,13.5-13.5h178.2c1.1,0,1.9,0.9,1.9,1.9v94.5
				C734.1,854.6,733.3,855.5,732.2,855.5z M554,761.1c-5.3,0-9.7,4.3-9.7,9.7V842c0,5.3,4.3,9.7,9.7,9.7h176.3v-90.6H554z"/>
		</g>
		<g>
			<rect x="732.2" y="769" fill="#E6E7E8" width="13.8" height="74.7"/>
			<path d="M746,845.6h-13.8c-1.1,0-1.9-0.9-1.9-1.9V769c0-1.1,0.9-1.9,1.9-1.9H746c1.1,0,1.9,0.9,1.9,1.9v74.7
				C748,844.8,747.1,845.6,746,845.6z M734.1,841.8h10v-70.8h-10V841.8z"/>
		</g>
		<g>
			<path d="M802.5,839H746c-1.1,0-1.9-0.9-1.9-1.9v-61.3c0-1.1,0.9-1.9,1.9-1.9h56.5c1.1,0,1.9,0.9,1.9,1.9V837
				C804.5,838.1,803.6,839,802.5,839z M748,835.1h52.6v-57.5H748V835.1z"/>
		</g>
		<g>
			<path d="M790,802.6h-33.3c-1.1,0-1.9-0.9-1.9-1.9s0.9-1.9,1.9-1.9h31.4v-10.8c0-1.1,0.9-1.9,1.9-1.9c1.1,0,1.9,0.9,1.9,1.9v12.8
				C791.9,801.7,791.1,802.6,790,802.6z"/>
		</g>
		<g>
			<path d="M790,826.7h-33.3c-1.1,0-1.9-0.9-1.9-1.9s0.9-1.9,1.9-1.9h31.4V812c0-1.1,0.9-1.9,1.9-1.9c1.1,0,1.9,0.9,1.9,1.9v12.8
				C791.9,825.9,791.1,826.7,790,826.7z"/>
		</g>
		<g>
			<circle fill="#FFFFFF" cx="574.6" cy="806.4" r="16.9"/>
			<path d="M574.6,825.2c-10.4,0-18.8-8.5-18.8-18.8s8.4-18.8,18.8-18.8c10.4,0,18.8,8.4,18.8,18.8S585,825.2,574.6,825.2z
				 M574.6,791.4c-8.3,0-15,6.7-15,15c0,8.3,6.7,15,15,15c8.3,0,15-6.7,15-15C589.6,798.1,582.9,791.4,574.6,791.4z"/>
		</g>
		<g>
			<path d="M705,833.7h-97.1c-1.1,0-1.9-0.9-1.9-1.9V782c0-1.1,0.9-1.9,1.9-1.9c1.1,0,1.9,0.9,1.9,1.9v47.8H705
				c1.1,0,1.9,0.9,1.9,1.9C706.9,832.8,706.1,833.7,705,833.7z"/>
		</g>
	</g>
	<g>
		<rect x="215.2" y="779" fill="#A7E38B" width="269.8" height="18.9"/>
		<path d="M484.9,799.8H215.2c-1.1,0-1.9-0.9-1.9-1.9V779c0-1.1,0.9-1.9,1.9-1.9h269.8c1.1,0,1.9,0.9,1.9,1.9v18.9
			C486.9,799,486,799.8,484.9,799.8z M217.1,796H483v-15.1H217.1V796z"/>
	</g>
	<g>
		<rect x="215.2" y="815.8" fill="#A7E38B" width="172.6" height="18.9"/>
		<path d="M387.8,836.7H215.2c-1.1,0-1.9-0.9-1.9-1.9v-18.9c0-1.1,0.9-1.9,1.9-1.9h172.6c1.1,0,1.9,0.9,1.9,1.9v18.9
			C389.7,835.8,388.9,836.7,387.8,836.7z M217.1,832.8h168.7v-15.1H217.1V832.8z"/>
	</g>
	<g>
		<path fill="#FFB09F" d="M201.3,806.3c0,12.2-9.9,22.1-22.1,22.1c-12.2,0-22.1-9.9-22.1-22.1c0-12.2,9.9-22.1,22.1-22.1
			C191.4,784.2,201.3,794.1,201.3,806.3z"/>
		<path d="M179.2,830.4c-13.3,0-24-10.8-24-24c0-13.3,10.8-24,24-24c13.3,0,24,10.8,24,24C203.2,819.6,192.4,830.4,179.2,830.4z
			 M179.2,786.2c-11.1,0-20.2,9.1-20.2,20.2c0,11.1,9.1,20.2,20.2,20.2c11.1,0,20.2-9.1,20.2-20.2
			C199.3,795.2,190.3,786.2,179.2,786.2z"/>
	</g>
	<g>
		<path d="M889.4,808.8h-72.1c-1.1,0-1.9-0.9-1.9-1.9c0-1.1,0.9-1.9,1.9-1.9h72.1c1.1,0,1.9,0.9,1.9,1.9
			C891.3,807.9,890.5,808.8,889.4,808.8z"/>
	</g>
	<g>
		<path d="M862.8,835.4c-0.5,0-1-0.2-1.4-0.6c-0.8-0.8-0.8-2,0-2.7l25.3-25.3l-25.3-25.3c-0.8-0.8-0.8-2,0-2.7c0.8-0.8,2-0.8,2.7,0
			l26.6,26.6c0.8,0.8,0.8,2,0,2.7l-26.6,26.6C863.7,835.2,863.2,835.4,862.8,835.4z"/>
	</g>
	<g>
		<path fill="#A7E38B" d="M260.5,384.5c0-35.4-28.7-64.1-64.1-64.1s-64.1,28.7-64.1,64.1c0,11.2,2.9,21.7,7.9,30.8l0,0l0.1,0.2
			c0.6,1.1,1.3,2.3,2,3.4l54.1,90.5l54.1-90.5c0.7-1.1,1.4-2.2,2-3.4l0.1-0.2h0C257.6,406.2,260.5,395.7,260.5,384.5z M196.4,422.3
			c-21,0-38.1-17.1-38.1-38.1c0-21.1,17.1-38.1,38.1-38.1c21.1,0,38.1,17.1,38.1,38.1C234.5,405.3,217.5,422.3,196.4,422.3z"/>
		<path d="M196.4,511.3c-0.7,0-1.3-0.4-1.7-0.9l-54.1-90.5c-0.7-1.1-1.4-2.2-2-3.4c-5.4-9.9-8.2-20.8-8.2-31.9c0-36.4,29.6-66,66-66
			c36.4,0,66,29.6,66,66c0,11.1-2.8,22.1-8.1,31.8c-0.8,1.3-1.4,2.5-2.2,3.6l-54,90.4C197.7,510.9,197.1,511.3,196.4,511.3z
			 M196.4,322.4c-34.3,0-62.1,27.9-62.1,62.1c0,10.4,2.6,20.8,7.7,29.9c0.7,1.3,1.4,2.4,2,3.4l52.4,87.8l52.4-87.7
			c0.7-1.1,1.4-2.2,2-3.3c5.1-9.3,7.8-19.6,7.8-30.1C258.6,350.2,230.7,322.4,196.4,322.4z M196.4,424.3c-22.1,0-40-18-40-40
			c0-22.1,18-40,40-40c22.1,0,40,18,40,40C236.5,406.3,218.5,424.3,196.4,424.3z M196.4,348c-20,0-36.2,16.2-36.2,36.2
			c0,19.9,16.2,36.2,36.2,36.2c19.9,0,36.2-16.2,36.2-36.2C232.6,364.3,216.4,348,196.4,348z"/>
	</g>
	<g>
		<path d="M223.9,511.3h-55c-1.1,0-1.9-0.9-1.9-1.9c0-1.1,0.9-1.9,1.9-1.9h55c1.1,0,1.9,0.9,1.9,1.9
			C225.8,510.4,225,511.3,223.9,511.3z"/>
	</g>
	<g>
		<g>
			<polygon points="346.7,162.7 365.5,162.7 365.5,220.4 369.3,220.4 369.3,162.7 388.1,162.7 388.1,159.1 346.7,159.1 			"/>
		</g>
		<g>
			<polygon points="398.8,190.3 425.8,190.3 425.8,186.7 398.8,186.7 398.8,162.7 432.8,162.7 432.8,159.1 395,159.1 395,220.4 
				433.7,220.4 433.7,216.8 398.8,216.8 			"/>
		</g>
		<g>
			<path d="M485.2,204.1c-0.9,3.9-2.8,7.1-5.6,9.5c-3.6,3.2-8.5,4.8-14.4,4.8c-7.3,0-12.9-3-16.6-9c-3.1-5-4.7-11.5-4.7-19.4
				c0-7.8,1.6-14.4,4.9-19.6c3.8-6,9.5-9.1,16.8-9.1c10,0,16.2,4,18.9,12.1l0.2,0.5l3.5-1.8l-0.1-0.4c-1.3-3.5-3.4-6.5-6.4-8.9
				c-4.2-3.4-9.4-5.1-15.5-5.1c-8.9,0-15.7,3.3-20.2,9.8c-3.9,5.7-5.9,13.2-5.9,22.4c0,9.1,1.9,16.5,5.7,22
				c4.4,6.4,11.1,9.7,19.9,9.7c6.8,0,12.4-1.9,16.6-5.6c3.1-2.8,5.3-6.3,6.4-10.5l0.1-0.4l-3.3-1.7L485.2,204.1z"/>
		</g>
		<g>
			<polygon points="540.9,186 503.6,186 503.6,159.1 499.8,159.1 499.8,220.4 503.6,220.4 503.6,189.4 540.9,189.4 540.9,220.4 
				544.6,220.4 544.6,159.1 540.9,159.1 			"/>
		</g>
		<g>
			<polygon points="598.2,213.6 561.1,159.3 561,159.1 557.4,159.1 557.4,220.4 561.1,220.4 561.1,166 598.2,220.2 598.4,220.4 
				601.9,220.4 601.9,159.1 598.2,159.1 			"/>
		</g>
		<g>
			<path d="M639.4,157.7c-9,0-16,3.2-20.8,9.6c-4.2,5.7-6.4,13.3-6.4,22.5c0,9.3,2.2,16.9,6.4,22.5c4.7,6.3,11.7,9.4,20.8,9.4
				c9.1,0,16.1-3.2,20.9-9.4c4.2-5.6,6.4-13.2,6.4-22.5c0-9.2-2.2-16.8-6.4-22.6C655.5,160.9,648.4,157.7,639.4,157.7z M639.4,218.3
				c-7.9,0-13.9-2.9-17.9-8.5c-3.6-5-5.4-11.8-5.4-20s1.8-14.9,5.4-20c4.1-5.7,10.1-8.6,17.9-8.6c7.8,0,13.8,2.9,17.9,8.6
				c3.6,5,5.5,11.8,5.5,20c0,8.3-1.8,15-5.4,20C653.3,215.4,647.3,218.3,639.4,218.3z"/>
		</g>
		<g>
			<polygon points="680.8,159.1 677,159.1 677,220.4 712.8,220.4 712.8,216.8 680.8,216.8 			"/>
		</g>
		<g>
			<path d="M741.3,157.7c-9,0-16,3.2-20.8,9.6c-4.2,5.7-6.4,13.3-6.4,22.5c0,9.3,2.2,16.9,6.4,22.5c4.7,6.3,11.7,9.4,20.8,9.4
				c9.1,0,16.1-3.2,20.9-9.4c4.2-5.6,6.4-13.2,6.4-22.5c0-9.3-2.2-16.8-6.4-22.6C757.4,160.9,750.4,157.7,741.3,157.7z M741.3,218.3
				c-7.9,0-13.9-2.9-17.9-8.5c-3.6-5-5.4-11.8-5.4-20s1.8-14.9,5.4-20c4.1-5.7,10.1-8.6,17.9-8.6c7.8,0,13.8,2.9,17.9,8.6
				c3.6,5,5.5,11.8,5.5,20c0,8.3-1.8,15-5.4,20C755.3,215.4,749.3,218.3,741.3,218.3z"/>
		</g>
		<g>
			<path d="M827.9,190.6h-23.5v3.5h19.9v2.1c0,6.8-1.8,12.2-5.5,16.1c-3.8,4-9,6.1-15.7,6.1c-7.6,0-13.5-3-17.5-8.8
				c-3.5-5-5.3-11.6-5.3-19.7c0-8.1,1.8-14.8,5.3-19.8c4-5.8,9.9-8.8,17.5-8.8c10.6,0,17,4.3,19.6,13l0.2,0.5l3.5-1.7l-0.1-0.4
				c-1.5-5-4.5-8.9-8.9-11.4c-4-2.3-8.8-3.5-14.3-3.5c-8.9,0-15.8,3.3-20.5,9.8c-4.1,5.7-6.2,13.2-6.2,22.3c0,9.1,2.1,16.6,6.3,22.3
				c4.7,6.4,11.5,9.6,20.4,9.6c4,0,7.9-0.7,11.4-2.2c8.9-3.8,13.5-12.3,13.5-25.3v-1.5c0-0.5,0-1.1-0.1-1.6L827.9,190.6z"/>
		</g>
		<g>
			<polygon points="872.3,159.1 853.7,189.5 835.1,159.3 834.9,159.1 830.6,159.1 851.7,193.4 851.7,220.4 855.5,220.4 855.5,193.5 
				876.1,159.8 876.6,159.1 			"/>
		</g>
	</g>
	<g>
		<path d="M316.6,175.2c-1.1,0-1.9-0.9-1.9-1.9v-44.4c0-1.1,0.9-1.9,1.9-1.9h42.5c1.1,0,1.9,0.9,1.9,1.9c0,1.1-0.9,1.9-1.9,1.9
			h-40.6v42.5C318.6,174.4,317.7,175.2,316.6,175.2z"/>
	</g>
	<g>
		<path d="M410.3,130.8h-29.1c-1.1,0-1.9-0.9-1.9-1.9c0-1.1,0.9-1.9,1.9-1.9h29.1c1.1,0,1.9,0.9,1.9,1.9
			C412.3,129.9,411.4,130.8,410.3,130.8z"/>
	</g>
	<g>
		<path d="M904.8,246.7H802.4c-1.1,0-1.9-0.9-1.9-1.9s0.9-1.9,1.9-1.9h102.3c1.1,0,1.9,0.9,1.9,1.9S905.8,246.7,904.8,246.7z"/>
	</g>
</g>
</svg>
