<?xml version="1.0" encoding="utf-8"?>
<!-- Generator: Adobe Illustrator 16.0.0, SVG Export Plug-In . SVG Version: 6.00 Build 0)  -->
<!DOCTYPE svg PUBLIC "-//W3C//DTD SVG 1.1//EN" "http://www.w3.org/Graphics/SVG/1.1/DTD/svg11.dtd">
<svg version="1.1" id="Layer_1" xmlns="http://www.w3.org/2000/svg" xmlns:xlink="http://www.w3.org/1999/xlink" x="0px" y="0px"
	 width="1400px" height="980px" viewBox="0 0 1400 980" enable-background="new 0 0 1400 980" xml:space="preserve">
<g>
	<g>
		<g>
			<rect fill="#FFFFFF" width="1400" height="980"/>
		</g>
	</g>
	<g>
		<path fill="#FFEBCC" d="M679.8,382.6l-29.8-72.7l-10.3-40.2l-19.9,37.7c-0.4,0.7-0.8,1.4-1.1,2.1v0c-1.8,4.1-2,8.9-0.2,13.4
			l26.5,55.4L679.8,382.6z"/>
		<path d="M679.8,385.1c-0.1,0-0.2,0-0.3,0l-34.9-4.3c-0.8-0.1-1.6-0.6-1.9-1.4l-26.5-55.4c-2.1-5.1-2-10.5,0.2-15.4
			c0.4-0.9,0.8-1.6,1.3-2.4l19.9-37.5c0.5-0.9,1.5-1.4,2.5-1.3c1,0.1,1.8,0.8,2.1,1.8l10.3,40.2l29.7,72.4c0.3,0.8,0.2,1.7-0.3,2.4
			C681.3,384.8,680.6,385.1,679.8,385.1z M646.6,376l29.3,3.7l-28.2-68.8l-8.9-34.3l-17,32c-0.5,0.7-0.8,1.3-1.1,1.9
			c-1.6,3.7-1.7,7.7-0.2,11.4L646.6,376z"/>
	</g>
	<g>
		<path fill="#FFFFFF" d="M914.8,248.2l-58.3-33.7l-58.4,33.7v0.3h-7.4H619.1h-7.4v-0.3l-58.4-33.7L495,248.3v0.5l0.1,5.7h61
			c0.1,0.1,0.2,0.2,0.3,0.2l14.1,24.5c0.1,0.9,0.1,1.8,0.1,2.7c0,0.9-0.1,1.8-0.1,2.7l-14.2,24.5c-0.1,0.1-0.2,0.2-0.3,0.2h-61
			l-0.1,5.7v0.5v0h0.1l58.3,33.6l58.4-33.7v-0.3h7.4h171.7h7.4v0.3l58.4,33.7l58.4-33.7v-0.5l-0.1-5.7h-61c-0.1-0.1-0.2-0.2-0.3-0.3
			l-14.1-24.5c-0.1-0.9-0.1-1.8-0.1-2.7c0-0.9,0.1-1.8,0.1-2.7l14.1-24.5c0.1-0.1,0.2-0.2,0.3-0.2h61l0.1-5.7L914.8,248.2
			L914.8,248.2L914.8,248.2z"/>
		<path d="M856.5,351.8c-0.4,0-0.9-0.1-1.2-0.3L797,317.8c0,0,0,0,0,0h-184c0,0,0,0,0,0l-58.4,33.7c-0.8,0.4-1.7,0.4-2.5,0
			L494,317.9c-0.9-0.4-1.5-1.2-1.5-2.2l0.1-6.3c0-1.3,1.1-2.4,2.5-2.4h59.8l13.3-23c0.1-0.7,0.1-1.3,0.1-2s0-1.3-0.1-2l-13.3-23
			h-59.8c-1.3,0-2.4-1.1-2.5-2.4l-0.1-6.2c0-0.9,0.5-1.7,1.2-2.1l58.4-33.7c0.8-0.4,1.7-0.4,2.5,0l58.4,33.7c0,0,0,0,0,0h184
			c0,0,0,0,0,0l58.4-33.7c0.8-0.4,1.7-0.4,2.5,0l58.1,33.6c0.9,0.4,1.5,1.2,1.5,2.2l-0.1,6.3c0,1.3-1.1,2.4-2.5,2.4H855l-13.3,23
			c-0.1,0.7-0.1,1.3-0.1,2s0,1.3,0.1,2l13.3,23h59.8c1.3,0,2.4,1.1,2.5,2.4l0.1,6.2c0,0.9-0.5,1.7-1.2,2.1l-58.4,33.7
			C857.4,351.7,857,351.8,856.5,351.8z M800.3,314l56.3,32.5l55.9-32.3l0-2.3h-58.6c-0.5,0-1-0.1-1.4-0.4c0,0-0.4-0.3-0.4-0.3
			c-0.3-0.2-0.5-0.5-0.7-0.7l-14.1-24.5c-0.2-0.3-0.3-0.7-0.3-1c-0.1-1-0.2-2-0.2-3s0.1-2,0.2-3c0-0.4,0.1-0.7,0.3-1l14.1-24.5
			c0.2-0.3,0.5-0.6,0.8-0.9c0.4-0.3,1.1-0.6,1.6-0.6h58.6l0-2.3l-55.9-32.3L800,250c-0.5,0.6-1.1,1-1.9,1H611.7
			c-0.9,0-1.7-0.5-2.1-1.2l-56.3-32.5l-55.9,32.3l0,2.3h58.6c0.5,0,1,0.1,1.4,0.4c0.3,0.2,0.9,0.7,1.1,1l14.1,24.5
			c0.2,0.3,0.3,0.7,0.3,1c0.1,1,0.2,2,0.2,3s-0.1,2-0.2,3c0,0.4-0.1,0.7-0.3,1l-14.2,24.5c-0.2,0.3-0.4,0.6-0.7,0.8
			c-0.4,0.3-1.2,0.7-1.7,0.7h-58.6l0,2.3l55.9,32.3l56.5-32.6c0.5-0.6,1.1-1,1.9-1h186.5C799.1,312.8,799.9,313.3,800.3,314z"/>
	</g>
	<g>
		<polygon fill="#DBDBDB" points="624.9,284.6 785,284.6 785,298.9 624.9,298.9 		"/>
		<path d="M785,301.3H624.9c-1.4,0-2.5-1.1-2.5-2.5l0-14.3c0-0.7,0.3-1.3,0.7-1.7c0.5-0.5,1.1-0.7,1.7-0.7H785
			c1.4,0,2.5,1.1,2.5,2.5v14.3C787.4,300.2,786.3,301.3,785,301.3z M627.4,296.4h155.1V287H627.4L627.4,296.4z"/>
	</g>
	<g>
		<rect x="643.3" y="416.6" fill="#FF7D8C" width="123.3" height="280.8"/>
		<path d="M766.6,699.8H643.3c-1.4,0-2.5-1.1-2.5-2.5V416.6c0-1.4,1.1-2.5,2.5-2.5h123.3c1.4,0,2.5,1.1,2.5,2.5v280.8
			C769,698.7,767.9,699.8,766.6,699.8z M645.7,694.9h118.4V419H645.7V694.9z"/>
	</g>
	<g>
		<path fill="#FFEBCC" d="M756.2,228c-9.4,0-17.1,7.6-17.1,17.1c0-9.4-7.7-17.1-17.1-17.1c-9.4,0-17.1,7.6-17.1,17.1
			c0-9.4-7.6-17.1-17.1-17.1c-9.4,0-17.1,7.6-17.1,17.1c0-9.4-7.7-17.1-17.1-17.1c-9.4,0-17.1,7.6-17.1,17.1v110.5
			c0,24.9,20.6,30.5,20.6,30.5v30.5h96.9v-28.8l9.3-6.7c9.3-7.6,9.7-25.4,9.7-25.4V245.1C773.2,235.7,765.6,228,756.2,228z"/>
		<path d="M754.2,419h-96.9c-1.4,0-2.5-1.1-2.5-2.5v-28.7c-5.4-2.2-20.6-10.2-20.6-32.2V245.1c0-10.8,8.8-19.5,19.5-19.5
			c7.3,0,13.7,4.1,17.1,10c3.3-6,9.7-10,17.1-10c7.3,0,13.7,4.1,17.1,10c3.3-6,9.7-10,17.1-10c7.3,0,13.7,4.1,17.1,10
			c3.3-6,9.7-10,17.1-10c10.8,0,19.5,8.8,19.5,19.5v110.5c0,0.8-0.6,19.1-10.6,27.3l-8.4,6.1v27.6C756.7,417.9,755.6,419,754.2,419z
			 M659.7,414.1h92v-26.4c0-0.8,0.4-1.5,1-2l9.3-6.7c8.2-6.7,8.7-23.3,8.7-23.4V245.1c0-8.1-6.5-14.6-14.6-14.6
			c-8.1,0-14.6,6.6-14.6,14.6c0,1.4-1.1,2.5-2.5,2.5c-1.4,0-2.5-1.1-2.5-2.5c0-8.1-6.6-14.6-14.6-14.6c-8.1,0-14.6,6.6-14.6,14.6
			c0,1.4-1.1,2.5-2.5,2.5s-2.5-1.1-2.5-2.5c0-8.1-6.6-14.6-14.6-14.6s-14.6,6.6-14.6,14.6c0,1.4-1.1,2.5-2.5,2.5s-2.5-1.1-2.5-2.5
			c0-8.1-6.6-14.6-14.6-14.6c-8.1,0-14.6,6.6-14.6,14.6v110.5c0,22.8,18.6,28,18.8,28.1c1.1,0.3,1.8,1.3,1.8,2.4V414.1z"/>
	</g>
	<g>
		<path d="M670.8,307.6c-1.4,0-2.5-1.1-2.5-2.5v-60c0-1.4,1.1-2.5,2.5-2.5s2.5,1.1,2.5,2.5v60C673.2,306.5,672.1,307.6,670.8,307.6z
			"/>
	</g>
	<g>
		<path d="M704.9,307.6c-1.4,0-2.5-1.1-2.5-2.5v-60c0-1.4,1.1-2.5,2.5-2.5s2.5,1.1,2.5,2.5v60C707.4,306.5,706.3,307.6,704.9,307.6z
			"/>
	</g>
	<g>
		<path d="M739.1,307.6c-1.4,0-2.5-1.1-2.5-2.5v-60c0-1.4,1.1-2.5,2.5-2.5c1.4,0,2.5,1.1,2.5,2.5v60
			C741.5,306.5,740.4,307.6,739.1,307.6z"/>
	</g>
	<g>
		<path fill="#FFFFFF" d="M687.5,450.7c0,9.2-7.5,16.7-16.7,16.7c-9.2,0-16.7-7.5-16.7-16.7c0-9.2,7.5-16.7,16.7-16.7
			C680,434,687.5,441.5,687.5,450.7z"/>
		<path d="M670.8,469.9c-10.6,0-19.2-8.6-19.2-19.2c0-10.6,8.6-19.1,19.2-19.1c10.6,0,19.1,8.6,19.1,19.1
			C689.9,461.3,681.3,469.9,670.8,469.9z M670.8,436.5c-7.8,0-14.2,6.4-14.2,14.2c0,7.8,6.4,14.2,14.2,14.2
			c7.8,0,14.2-6.4,14.2-14.2C685,442.9,678.6,436.5,670.8,436.5z"/>
	</g>
	<g>
		<path d="M739.1,590.5c-1.4,0-2.5-1.1-2.5-2.5V450.7c0-1.4,1.1-2.5,2.5-2.5c1.4,0,2.5,1.1,2.5,2.5V588
			C741.5,589.4,740.4,590.5,739.1,590.5z"/>
	</g>
	<g>
		<path fill="#6CCDFF" d="M982.8,775.3c0.1-1.4,0.1-2.9,0.1-4.4c0-43.9-33.9-79.8-76.9-83.1c-0.4-40.5-33.4-73.2-74-73.2
			c-3.4,0-6.7,0.3-9.9,0.7c0.9-4.5,1.3-9.2,1.3-14c0-40.9-33.1-74-74-74c-34.5,0-63.4,23.6-71.7,55.4c-16-8.2-34.2-12.9-53.5-12.9
			c-65,0-117.6,52.7-117.6,117.6c0,0,0,0.1,0,0.1c-44.3,1.9-79.7,38.5-79.7,83.3c0,1.5,0,2.9,0.1,4.4H982.8z"/>
		<path d="M982.8,777.8H427.1c-1.3,0-2.4-1-2.5-2.3c-0.1-1.5-0.1-3-0.1-4.5c0-45.3,34.8-82.5,79.7-85.6
			c1.2-65.2,54.6-117.9,120.1-117.9c18.2,0,35.6,4,51.9,11.8c9.7-32.2,39.4-54.4,73.2-54.4c42.2,0,76.5,34.3,76.5,76.5
			c0,3.7-0.3,7.4-0.8,11.1c2.4-0.2,4.6-0.3,6.9-0.3c41,0,74.8,32.7,76.4,73.4c43.3,4.5,77,41.5,77,85.4c0,1.5,0,3-0.1,4.5
			C985.2,776.8,984.1,777.8,982.8,777.8z M429.5,772.8h550.9c0-0.6,0-1.3,0-1.9c0-42-32.8-77.4-74.6-80.6c-1.3-0.1-2.3-1.2-2.3-2.4
			c-0.4-39-32.5-70.8-71.5-70.8c-3.1,0-6.2,0.2-9.6,0.7c-0.8,0.1-1.6-0.2-2.1-0.7c-0.5-0.6-0.8-1.4-0.6-2.2
			c0.9-4.5,1.3-9.1,1.3-13.5c0-39.4-32.1-71.5-71.5-71.5c-32.6,0-61.1,22-69.3,53.6c-0.2,0.7-0.7,1.3-1.4,1.6
			c-0.7,0.3-1.5,0.3-2.1-0.1c-16.3-8.4-33.9-12.6-52.3-12.6c-63.5,0-115.2,51.7-115.2,115.2c0,1.3-1,2.5-2.4,2.6
			c-43.4,1.9-77.3,37.4-77.3,80.8C429.4,771.6,429.5,772.2,429.5,772.8z"/>
	</g>
	<g>
		<path fill="#FFFFFF" d="M1303.4,245.1c0-0.8,0.1-1.6,0.1-2.5c0-24.9-19.3-45.3-43.7-47.2c-0.2-23-19-41.6-42-41.6
			c-1.9,0-3.8,0.1-5.6,0.4c0.5-2.6,0.8-5.2,0.8-7.9c0-23.2-18.8-42-42-42c-19.6,0-36,13.4-40.7,31.5c-9.1-4.7-19.4-7.3-30.4-7.3
			c-36.9,0-66.8,29.9-66.8,66.8c0,0,0,0,0,0.1c-25.2,1.1-45.3,21.9-45.3,47.3c0,0.8,0,1.7,0.1,2.5H1303.4z"/>
		<path d="M1303.4,247.6H987.7c-1.3,0-2.4-1-2.5-2.4c0-0.9-0.1-1.7-0.1-2.6c0-26,19.7-47.3,45.3-49.6c1.2-37.2,31.8-67,69.3-67
			c10.1,0,19.8,2.1,28.8,6.3c6-18.1,23-30.5,42.3-30.5c24.5,0,44.5,20,44.5,44.5c0,1.7-0.1,3.4-0.3,5.2c0.9-0.1,1.8-0.1,2.7-0.1
			c23.5,0,43,18.6,44.4,41.8c24.7,3,43.8,24.3,43.8,49.5c0,0.9,0,1.7-0.1,2.6C1305.8,246.5,1304.7,247.6,1303.4,247.6z M990.1,242.6
			H1301c0,0,0,0,0,0c0-23.3-18.2-43-41.4-44.8c-1.3-0.1-2.3-1.2-2.3-2.4c-0.2-21.6-18-39.2-39.6-39.2c-1.7,0-3.5,0.1-5.3,0.4
			c-0.8,0.1-1.6-0.2-2.1-0.8c-0.5-0.6-0.8-1.4-0.6-2.2c0.5-2.5,0.7-5,0.7-7.5c0-21.8-17.8-39.6-39.6-39.6
			c-18.1,0-33.8,12.2-38.3,29.6c-0.2,0.7-0.7,1.3-1.4,1.6c-0.7,0.3-1.5,0.3-2.1-0.1c-9.1-4.7-19-7-29.2-7
			c-35.5,0-64.4,28.9-64.4,64.4c0,1.3-1,2.5-2.4,2.5C1008.9,198.8,990.1,218.5,990.1,242.6C990.1,242.6,990.1,242.6,990.1,242.6z"/>
	</g>
	<g>
		<path d="M830.5,708.8H612.5c-1.4,0-2.5-1.1-2.5-2.5s1.1-2.5,2.5-2.5h218.1c13,0,23.7-10.6,23.7-23.7c0-13.1-10.6-23.7-23.7-23.7
			h-81c-1.4,0-2.5-1.1-2.5-2.5s1.1-2.5,2.5-2.5h81c15.8,0,28.6,12.8,28.6,28.6C859.1,696,846.3,708.8,830.5,708.8z"/>
	</g>
	<g>
		<path d="M587.3,708.8h-39.5c-1.4,0-2.5-1.1-2.5-2.5s1.1-2.5,2.5-2.5h39.5c1.4,0,2.5,1.1,2.5,2.5S588.7,708.8,587.3,708.8z"/>
	</g>
	<g>
		<path d="M786.5,743.3h-174c-1.4,0-2.5-1.1-2.5-2.5s1.1-2.5,2.5-2.5h174c1.4,0,2.5,1.1,2.5,2.5S787.8,743.3,786.5,743.3z"/>
	</g>
	<g>
		<path d="M1303.5,777.8h-222c-1.4,0-2.5-1.1-2.5-2.5c0-1.4,1.1-2.5,2.5-2.5H1301V536.7c0-1.4,1.1-2.5,2.5-2.5
			c1.4,0,2.5,1.1,2.5,2.5v238.6C1305.9,776.7,1304.8,777.8,1303.5,777.8z"/>
	</g>
	<g>
		<polygon fill="#FF7D8C" points="1303.5,756.4 1069,756.4 1040.4,732.9 1069,709.4 1303.5,709.4 		"/>
		<path d="M1303.5,758.8H1069c-0.6,0-1.1-0.2-1.6-0.6l-28.6-23.5c-0.6-0.5-0.9-1.2-0.9-1.9s0.3-1.4,0.9-1.9l28.6-23.5
			c0.4-0.4,1-0.6,1.6-0.6h234.5c1.4,0,2.5,1.1,2.5,2.5v47C1305.9,757.7,1304.8,758.8,1303.5,758.8z M1069.9,753.9H1301v-42h-231.1
			l-25.6,21L1069.9,753.9z"/>
	</g>
	<g>
		<polygon fill="#6CCDFF" points="1303.5,690.6 1199.5,690.6 1170.9,667.1 1199.5,643.6 1303.5,643.6 		"/>
		<path d="M1303.5,693h-103.9c-0.6,0-1.1-0.2-1.6-0.6l-28.6-23.5c-0.6-0.5-0.9-1.2-0.9-1.9c0-0.7,0.3-1.4,0.9-1.9l28.6-23.5
			c0.4-0.4,1-0.6,1.6-0.6h103.9c1.4,0,2.5,1.1,2.5,2.5v47C1305.9,691.9,1304.8,693,1303.5,693z M1200.4,688.1H1301v-42h-100.6
			l-25.6,21L1200.4,688.1z"/>
	</g>
	<g>
		<path d="M1303.5,627.3h-161.9c-0.6,0-1.1-0.2-1.6-0.6l-28.6-23.5c-0.6-0.5-0.9-1.2-0.9-1.9c0-0.7,0.3-1.4,0.9-1.9l28.6-23.5
			c0.4-0.4,1-0.6,1.6-0.6h161.9c1.4,0,2.5,1.1,2.5,2.5v47C1305.9,626.2,1304.8,627.3,1303.5,627.3z M1142.4,622.3H1301v-42h-158.6
			l-25.6,21L1142.4,622.3z"/>
	</g>
	<g>
		<rect x="427" y="824.5" fill="#FF7D8C" width="278" height="49.3"/>
		<path d="M704.9,876.3H427c-1.4,0-2.5-1.1-2.5-2.5v-49.3c0-1.4,1.1-2.5,2.5-2.5h278c1.4,0,2.5,1.1,2.5,2.5v49.3
			C707.4,875.2,706.3,876.3,704.9,876.3z M429.4,871.4h273V827h-273V871.4z"/>
	</g>
	<g>
		<path d="M896.4,876.3H754.2c-1.4,0-2.5-1.1-2.5-2.5v-49.3c0-1.4,1.1-2.5,2.5-2.5h142.2c1.4,0,2.5,1.1,2.5,2.5v49.3
			C898.9,875.2,897.8,876.3,896.4,876.3z M756.7,871.4H894V827H756.7V871.4z"/>
	</g>
	<g>
		<rect x="941.5" y="824.5" fill="#6CCDFF" width="41.4" height="49.3"/>
		<path d="M982.9,876.3h-41.4c-1.4,0-2.5-1.1-2.5-2.5v-49.3c0-1.4,1.1-2.5,2.5-2.5h41.4c1.4,0,2.5,1.1,2.5,2.5v49.3
			C985.3,875.2,984.2,876.3,982.9,876.3z M943.9,871.4h36.5V827h-36.5V871.4z"/>
	</g>
	<g>
		<path d="M785,177.1H624.9c-1.4,0-2.5-1.1-2.5-2.5c0-1.4,1.1-2.5,2.5-2.5H785c1.4,0,2.5,1.1,2.5,2.5
			C787.4,176,786.3,177.1,785,177.1z"/>
	</g>
	<g>
		<path d="M679.8,135.9h-54.9c-1.4,0-2.5-1.1-2.5-2.5c0-1.4,1.1-2.5,2.5-2.5h54.9c1.4,0,2.5,1.1,2.5,2.5
			C682.3,134.8,681.2,135.9,679.8,135.9z"/>
	</g>
	<g>
		<rect x="1134.5" y="320.9" fill="#FFFFFF" width="169" height="172.7"/>
		<path d="M1303.5,496h-169c-1.4,0-2.5-1.1-2.5-2.5V320.9c0-1.4,1.1-2.5,2.5-2.5h169c1.4,0,2.5,1.1,2.5,2.5v172.7
			C1305.9,494.9,1304.8,496,1303.5,496z M1136.9,491.1h164V323.4h-164V491.1z"/>
	</g>
	<g>
		<path d="M354.1,879.7H100.9c-1.4,0-2.5-1.1-2.5-2.5V637.7c0-1.4,1.1-2.5,2.5-2.5h253.2c1.4,0,2.5,1.1,2.5,2.5v239.5
			C356.6,878.6,355.5,879.7,354.1,879.7z M103.4,874.8h248.3V640.2H103.4V874.8z"/>
	</g>
	<g>
		<path fill="#6CCDFF" d="M988.4,140.6c0,32.2-26.1,58.4-58.4,58.4s-58.4-26.1-58.4-58.4c0-32.2,26.1-58.4,58.4-58.4
			S988.4,108.4,988.4,140.6z"/>
		<path d="M930.1,201.4c-33.5,0-60.8-27.3-60.8-60.8s27.3-60.8,60.8-60.8c33.5,0,60.8,27.3,60.8,60.8S963.6,201.4,930.1,201.4z
			 M930.1,84.7c-30.8,0-55.9,25.1-55.9,55.9s25.1,55.9,55.9,55.9c30.8,0,55.9-25.1,55.9-55.9S960.9,84.7,930.1,84.7z"/>
	</g>
	<g>
		<path fill="#FF7D8C" d="M507.2,152.9c0,39-31.6,70.6-70.6,70.6c-39,0-70.6-31.6-70.6-70.6c0-39,31.6-70.6,70.6-70.6
			C475.6,82.3,507.2,113.9,507.2,152.9z"/>
		<path d="M436.6,225.9c-40.3,0-73.1-32.8-73.1-73.1c0-40.3,32.8-73.1,73.1-73.1s73.1,32.8,73.1,73.1
			C509.7,193.2,476.9,225.9,436.6,225.9z M436.6,84.7c-37.6,0-68.2,30.6-68.2,68.1c0,37.6,30.6,68.1,68.2,68.1
			c37.6,0,68.2-30.6,68.2-68.1C504.8,115.3,474.2,84.7,436.6,84.7z"/>
	</g>
	<g>
		<g>
			<path d="M912.6,179.1c-1.4,0-2.5-1.1-2.5-2.5v-72.1c0-1.4,1.1-2.5,2.5-2.5s2.5,1.1,2.5,2.5v72.1C915.1,178,914,179.1,912.6,179.1
				z"/>
		</g>
		<g>
			<path d="M947.6,179.1c-1.4,0-2.5-1.1-2.5-2.5v-72.1c0-1.4,1.1-2.5,2.5-2.5c1.4,0,2.5,1.1,2.5,2.5v72.1
				C950,178,948.9,179.1,947.6,179.1z"/>
		</g>
		<g>
			<path d="M966.1,125.6H894c-1.4,0-2.5-1.1-2.5-2.5s1.1-2.5,2.5-2.5h72.1c1.4,0,2.5,1.1,2.5,2.5S967.5,125.6,966.1,125.6z"/>
		</g>
		<g>
			<path d="M966.1,160.5H894c-1.4,0-2.5-1.1-2.5-2.5s1.1-2.5,2.5-2.5h72.1c1.4,0,2.5,1.1,2.5,2.5S967.5,160.5,966.1,160.5z"/>
		</g>
	</g>
	<g>
		<path fill="#FF7D8C" d="M1219,269.7c-33.2,0-60,26.9-60,60c0,12,3.6,23.3,9.7,32.7l50.4,87.2l50.4-87.2c6.1-9.4,9.7-20.6,9.7-32.7
			C1279,296.6,1252.1,269.7,1219,269.7z"/>
		<path d="M1219,452.1L1219,452.1c-0.9,0-1.7-0.5-2.1-1.2l-50.4-87.2c-6.5-10-10-21.8-10-33.9c0-34.5,28-62.5,62.5-62.5
			c34.5,0,62.5,28,62.5,62.5c0,12.1-3.5,23.9-10.1,34l-50.3,87.1C1220.7,451.6,1219.8,452.1,1219,452.1z M1219,272.2
			c-31.7,0-57.6,25.8-57.6,57.6c0,11.2,3.2,22,9.3,31.3l48.3,83.7l48.2-83.5c6.1-9.4,9.3-20.3,9.3-31.4
			C1276.5,298,1250.7,272.2,1219,272.2z"/>
	</g>
	<g>
		<path fill="#FFFFFF" d="M1187.3,329.9c0,17.5,14.2,31.6,31.6,31.6c17.5,0,31.6-14.2,31.6-31.6c0-17.5-14.2-31.6-31.6-31.6
			C1201.5,298.3,1187.3,312.4,1187.3,329.9z"/>
		<path d="M1219,364c-18.8,0-34.1-15.3-34.1-34.1c0-18.8,15.3-34.1,34.1-34.1c18.8,0,34.1,15.3,34.1,34.1
			C1253.1,348.7,1237.8,364,1219,364z M1219,300.8c-16.1,0-29.2,13.1-29.2,29.2c0,16.1,13.1,29.2,29.2,29.2
			c16.1,0,29.2-13.1,29.2-29.2C1248.1,313.8,1235,300.8,1219,300.8z"/>
	</g>
	<g>
		<path d="M1256.2,471.4h-74.4c-1.4,0-2.5-1.1-2.5-2.5s1.1-2.5,2.5-2.5h74.4c1.4,0,2.5,1.1,2.5,2.5S1257.5,471.4,1256.2,471.4z"/>
	</g>
	<g>
		<g>
			<path fill="#FF7D8C" d="M1028.4,419.7c-19.3-19.3-45.9-31.2-75.2-31.2v106.4L1028.4,419.7z"/>
			<path d="M953.2,497.4c-0.3,0-0.6-0.1-0.9-0.2c-0.9-0.4-1.5-1.3-1.5-2.3V388.5c0-1.4,1.1-2.5,2.5-2.5c29.1,0,56.4,11.3,77,31.9
				c1,1,1,2.5,0,3.5l-75.2,75.2C954.5,497.2,953.8,497.4,953.2,497.4z M955.6,391V489l69.3-69.3C1006.1,401.8,981.7,391.6,955.6,391
				z"/>
		</g>
		<g>
			<path d="M953.2,603.8c-60,0-108.9-48.8-108.9-108.9c0-60,48.8-108.9,108.9-108.9c1.4,0,2.5,1.1,2.5,2.5v212.8
				C955.6,602.7,954.5,603.8,953.2,603.8z M950.7,391c-56.2,1.3-101.5,47.4-101.5,103.9c0,56.5,45.3,102.6,101.5,103.9V391z"/>
		</g>
		<g>
			<path fill="#6CCDFF" d="M1028.4,419.7l-75.2,75.2v106.4c58.8,0,106.4-47.6,106.4-106.4C1059.6,465.6,1047.7,439,1028.4,419.7z"/>
			<path d="M953.2,603.8c-1.4,0-2.5-1.1-2.5-2.5V494.9c0-0.7,0.3-1.3,0.7-1.7l75.2-75.2c1-1,2.5-1,3.5,0
				c20.6,20.6,31.9,47.9,31.9,77C1062,555,1013.2,603.8,953.2,603.8z M955.6,496v102.9c56.2-1.3,101.5-47.4,101.5-103.9
				c0-26.9-10.2-52.3-28.7-71.7L955.6,496z"/>
		</g>
	</g>
	<g>
		<rect x="966.1" y="309.8" fill="#FF7D8C" width="98.9" height="35.1"/>
	</g>
	<g>
		<rect x="972.9" y="624.8" fill="#6CCDFF" width="115.6" height="35.1"/>
	</g>
	<g>
		<path d="M953.2,497.4c-1.4,0-2.5-1.1-2.5-2.5V309.8c0-1.4,1.1-2.5,2.5-2.5h103.6c1.4,0,2.5,1.1,2.5,2.5s-1.1,2.5-2.5,2.5H955.6
			v182.7C955.6,496.3,954.5,497.4,953.2,497.4z"/>
	</g>
	<g>
		<path d="M1086.4,662.5H953.2c-1.4,0-2.5-1.1-2.5-2.5V494.9c0-1.4,1.1-2.5,2.5-2.5c1.4,0,2.5,1.1,2.5,2.5v162.7h130.7
			c1.4,0,2.5,1.1,2.5,2.5C1088.9,661.4,1087.8,662.5,1086.4,662.5z"/>
	</g>
	<g>
		<path d="M1303.5,851.6h-95.3c-1.4,0-2.5-1.1-2.5-2.5s1.1-2.5,2.5-2.5h95.3c1.4,0,2.5,1.1,2.5,2.5S1304.8,851.6,1303.5,851.6z"/>
	</g>
	<g>
		<path d="M1181.8,851.6h-113.6c-1.4,0-2.5-1.1-2.5-2.5s1.1-2.5,2.5-2.5h113.6c1.4,0,2.5,1.1,2.5,2.5S1183.1,851.6,1181.8,851.6z"/>
	</g>
	<g>
		<path d="M1279,876.3c-1.4,0-2.5-1.1-2.5-2.5v-37c0-1.4,1.1-2.5,2.5-2.5c1.4,0,2.5,1.1,2.5,2.5v37
			C1281.5,875.2,1280.4,876.3,1279,876.3z"/>
	</g>
	<g>
		<path d="M1157.9,876.3c-1.4,0-2.5-1.1-2.5-2.5v-37c0-1.4,1.1-2.5,2.5-2.5c1.4,0,2.5,1.1,2.5,2.5v37
			C1160.4,875.2,1159.3,876.3,1157.9,876.3z"/>
	</g>
	<g>
		<path fill="#DBDBDB" d="M273.8,877.3V756.4h0.5l46.7-81l-46.7-81h-0.7l-7.9,0.1v84.7c-0.1,0.2-0.2,0.3-0.3,0.5l-34,19.6
			c-1.3,0.1-2.5,0.2-3.8,0.2c-1.3,0-2.5-0.1-3.8-0.2l-34-19.6c-0.1-0.1-0.2-0.3-0.3-0.4v-84.7l-7.9-0.1h-0.8v0.1L134,675.4l46.7,81
			h0.5v120.9H273.8z"/>
		<path d="M273.8,879.7h-92.5c-1.4,0-2.5-1.1-2.5-2.5V757.8c-0.1-0.1-0.1-0.1-0.1-0.2l-46.7-81c-0.4-0.8-0.4-1.7,0-2.5l46.6-80.7
			c0.4-0.9,1.2-1.5,2.2-1.5l8.7,0.1c1.3,0,2.4,1.1,2.4,2.5v83.5l32.6,18.8c2,0.2,4.1,0.2,6.1,0l32.6-18.8v-83.5
			c0-1.3,1.1-2.4,2.4-2.5l8.6-0.1c0.9,0,1.7,0.5,2.1,1.2l46.7,81c0.4,0.8,0.4,1.7,0,2.5l-46.7,81c0,0.1-0.1,0.2-0.1,0.2v119.4
			C276.2,878.6,275.1,879.7,273.8,879.7z M183.7,874.8h87.6V756.4c0-1,0.6-1.8,1.4-2.2l45.5-78.7l-45.3-78.5l-4.7,0.1v82.2
			c0,0.5-0.1,0.9-0.4,1.3c0,0.1-0.3,0.4-0.3,0.5c-0.2,0.2-0.6,0.7-0.9,0.8l-34,19.6c-0.3,0.2-0.7,0.3-1,0.3c-2.6,0.2-5.4,0.2-8,0
			c-0.4,0-0.7-0.1-1-0.3l-34-19.6c-0.3-0.2-0.6-0.5-0.8-0.8c-0.3-0.4-0.7-1.3-0.7-1.8V597l-4.7-0.1l-45.3,78.5l45.6,79
			c0.7,0.5,1.2,1.1,1.2,1.9V874.8z"/>
	</g>
	<g>
		<path d="M383.4,843.4H273.8c-1.4,0-2.5-1.1-2.5-2.5s1.1-2.5,2.5-2.5h109.6c1.4,0,2.5,1.1,2.5,2.5S384.7,843.4,383.4,843.4z"/>
	</g>
	<g>
		<path d="M383.4,806.2H273.8c-1.4,0-2.5-1.1-2.5-2.5c0-1.4,1.1-2.5,2.5-2.5h109.6c1.4,0,2.5,1.1,2.5,2.5
			C385.9,805.1,384.7,806.2,383.4,806.2z"/>
	</g>
	<g>
		<path d="M383.4,769H273.8c-1.4,0-2.5-1.1-2.5-2.5c0-1.4,1.1-2.5,2.5-2.5h109.6c1.4,0,2.5,1.1,2.5,2.5
			C385.9,767.9,384.7,769,383.4,769z"/>
	</g>
	<g>
		<path d="M181.2,843.4H88.6c-1.4,0-2.5-1.1-2.5-2.5s1.1-2.5,2.5-2.5h92.6c1.4,0,2.5,1.1,2.5,2.5S182.6,843.4,181.2,843.4z"/>
	</g>
	<g>
		<path d="M181.2,806.2H134c-1.4,0-2.5-1.1-2.5-2.5c0-1.4,1.1-2.5,2.5-2.5h47.2c1.4,0,2.5,1.1,2.5,2.5
			C183.7,805.1,182.6,806.2,181.2,806.2z"/>
	</g>
	<g>
		<path d="M246.5,879.7c-1.4,0-2.5-1.1-2.5-2.5V751.3c0-1.4,1.1-2.5,2.5-2.5s2.5,1.1,2.5,2.5v125.9
			C249,878.6,247.9,879.7,246.5,879.7z"/>
	</g>
	<g>
		<rect x="100.9" y="111.6" fill="#FFFFFF" width="153.4" height="216.8"/>
		<path d="M254.3,330.8H100.9c-1.4,0-2.5-1.1-2.5-2.5V111.6c0-1.4,1.1-2.5,2.5-2.5h153.4c1.4,0,2.5,1.1,2.5,2.5v216.8
			C256.8,329.7,255.7,330.8,254.3,330.8z M103.4,325.9h148.5V114.1H103.4V325.9z"/>
	</g>
	<g>
		<polygon fill="#FFFFFF" points="275.9,144.8 157.5,144.8 157.5,361.5 310.9,361.5 310.9,179.7 		"/>
		<path d="M310.9,364H157.5c-1.4,0-2.5-1.1-2.5-2.5V144.8c0-1.4,1.1-2.5,2.5-2.5h118.4c0.7,0,1.3,0.3,1.7,0.7l34.9,34.9
			c0.5,0.5,0.7,1.1,0.7,1.7v181.8C313.4,362.9,312.3,364,310.9,364z M160,359.1h148.5V180.7l-33.5-33.5H160V359.1z"/>
	</g>
	<g>
		<polygon fill="#FFFFFF" points="275.9,179.7 310.9,179.7 275.9,144.8 		"/>
		<path d="M310.9,182.2h-34.9c-1.4,0-2.5-1.1-2.5-2.5v-34.9c0-1,0.6-1.9,1.5-2.3c0.9-0.4,2-0.2,2.7,0.5l34.9,34.9
			c0.7,0.7,0.9,1.8,0.5,2.7C312.8,181.6,311.9,182.2,310.9,182.2z M278.4,177.3h26.5l-26.5-26.5V177.3z"/>
	</g>
	<g>
		<g>
			<path d="M479,155.3h-84.7c-1.4,0-2.5-1.1-2.5-2.5s1.1-2.5,2.5-2.5H479c1.4,0,2.5,1.1,2.5,2.5S480.3,155.3,479,155.3z"/>
		</g>
		<g>
			<path d="M436.6,197.7c-1.4,0-2.5-1.1-2.5-2.5v-84.7c0-1.4,1.1-2.5,2.5-2.5s2.5,1.1,2.5,2.5v84.7
				C439.1,196.6,438,197.7,436.6,197.7z"/>
		</g>
	</g>
	<g>
		<path fill="#FFFFFF" d="M543.1,523.5c5.5-10.6,9.3-22.1,11.2-34.3l-30.1-9.8c0.2-2.3,0.3-4.6,0.3-6.9c0-2.3-0.2-4.6-0.3-6.9
			l30.1-9.8c-1.8-12.2-5.7-23.7-11.2-34.3l-30.2,9.8c-2.4-4-5.1-7.7-8.1-11.1l18.6-25.7c-8.5-8.6-18.3-15.7-29.1-21.2l-18.6,25.6
			c-4.2-1.8-8.6-3.2-13.2-4.2V363c-5.9-1-11.9-1.5-18-1.5c-6.1,0-12.2,0.5-18,1.5v31.7c-4.5,1.1-9,2.4-13.2,4.2l-18.6-25.6
			c-10.9,5.5-20.7,12.6-29.2,21.2l18.6,25.6c-3,3.5-5.7,7.2-8.1,11.1l-30.2-9.8c-5.5,10.6-9.3,22.1-11.2,34.3l30.1,9.8
			c-0.2,2.3-0.3,4.6-0.3,6.9c0,2.3,0.2,4.6,0.3,6.9l-30.1,9.8c1.8,12.2,5.7,23.7,11.2,34.3l30.2-9.8c2.4,4,5.1,7.7,8.1,11.2
			l-18.6,25.6c8.5,8.6,18.3,15.7,29.2,21.2l18.6-25.6c4.2,1.8,8.6,3.1,13.2,4.2V582c5.9,1,11.9,1.5,18,1.5c6.1,0,12.1-0.5,18-1.5
			v-31.7c4.5-1,9-2.4,13.2-4.2l18.6,25.6c10.8-5.5,20.7-12.6,29.1-21.2l-18.6-25.6c3-3.5,5.7-7.2,8.1-11.1L543.1,523.5z
			 M441.7,526.9c-26.2-2.3-47-23.1-49.4-49.2h37.4c1.7,5.7,6.3,10.2,12,11.9V526.9z M441.7,455.5c-5.8,1.7-10.3,6.2-12,11.9h-37.4
			c2.4-26.1,23.3-46.9,49.4-49.2V455.5z M451.9,526.9v-37.4c5.6-1.8,10-6.2,11.6-11.8H501C498.6,503.6,477.9,524.3,451.9,526.9z
			 M463.6,467.4c-1.7-5.6-6.1-10-11.6-11.8v-37.4c26,2.5,46.6,23.2,49,49.2H463.6z"/>
		<path d="M444.5,585.9c-6.1,0-12.3-0.5-18.4-1.5c-1.2-0.2-2.1-1.2-2.1-2.4v-29.7c-3.5-0.9-6.8-1.9-9.8-3.1l-17.4,24
			c-0.7,1-2,1.3-3.1,0.8c-11.1-5.6-21.1-12.9-29.8-21.7c-0.8-0.9-0.9-2.2-0.2-3.2l17.5-24.1c-2.2-2.6-4.2-5.4-6-8.3l-28.3,9.2
			c-1.1,0.4-2.4-0.1-2.9-1.2c-5.7-11-9.6-22.8-11.4-35c-0.2-1.2,0.5-2.3,1.7-2.7l28.3-9.2c-0.1-1.7-0.2-3.4-0.2-5.2
			c0-1.7,0.1-3.4,0.2-5.1l-28.3-9.2c-1.1-0.4-1.9-1.5-1.7-2.7c1.8-12.2,5.7-24,11.4-35.1c0.6-1.1,1.8-1.6,3-1.2l28.3,9.2
			c1.9-2.9,3.9-5.7,6-8.3L363.6,396c-0.7-1-0.6-2.3,0.2-3.2c8.7-8.8,18.7-16.1,29.8-21.7c1.1-0.5,2.4-0.2,3.1,0.8l17.4,24
			c3.1-1.2,6.3-2.2,9.8-3.1V363c0-1.2,0.9-2.2,2.1-2.4c12.3-2,24.5-2,36.8,0c1.2,0.2,2.1,1.2,2.1,2.4v29.8c3.5,0.9,6.8,1.9,9.8,3.1
			l17.5-24c0.7-1,2-1.3,3.1-0.8c11.1,5.6,21.1,12.9,29.8,21.7c0.8,0.9,1,2.2,0.2,3.2l-17.5,24.1c2.1,2.6,4.2,5.4,6,8.3l28.3-9.2
			c1.1-0.4,2.4,0.1,2.9,1.2c5.7,11.1,9.6,22.9,11.4,35c0.2,1.2-0.5,2.3-1.7,2.7l-28.3,9.2c0.1,1.7,0.2,3.4,0.2,5.1
			c0,1.7-0.1,3.4-0.2,5.1l28.3,9.2c1.1,0.4,1.9,1.5,1.7,2.7c-1.8,12.2-5.7,24-11.4,35c-0.6,1.1-1.8,1.6-2.9,1.2l-28.3-9.2
			c-1.9,2.9-3.9,5.7-6,8.3l17.5,24.1c0.7,1,0.6,2.3-0.2,3.2c-8.7,8.8-18.7,16.1-29.8,21.7c-1.1,0.5-2.4,0.2-3.1-0.8l-17.5-24
			c-3.1,1.2-6.4,2.3-9.8,3.1V582c0,1.2-0.9,2.2-2.1,2.4C456.8,585.4,450.6,585.9,444.5,585.9z M428.9,579.9
			c10.4,1.5,20.7,1.5,31.1,0v-29.6c0-1.2,0.8-2.1,1.9-2.4c4.6-1.1,8.9-2.4,12.7-4.1c1-0.5,2.3-0.1,3,0.8l17.4,23.9
			c9.3-4.9,17.7-11,25.2-18.3l-17.4-23.9c-0.7-0.9-0.6-2.2,0.1-3.1c2.9-3.3,5.5-6.9,7.8-10.8c0.6-1,1.8-1.4,2.9-1.1l28.2,9.1
			c4.7-9.4,7.9-19.3,9.6-29.6l-28.1-9.2c-1.1-0.4-1.8-1.4-1.7-2.5c0.2-2.2,0.3-4.4,0.3-6.7c0-2.3-0.2-4.5-0.3-6.7
			c-0.1-1.1,0.6-2.2,1.7-2.5l28.1-9.2c-1.7-10.2-5-20.2-9.6-29.6l-28.2,9.1c-1.1,0.3-2.3-0.1-2.9-1.1c-2.3-3.9-5-7.5-7.8-10.8
			c-0.8-0.9-0.8-2.1-0.1-3.1l17.4-23.9c-7.5-7.3-15.9-13.4-25.2-18.3l-17.4,23.9c-0.7,0.9-1.9,1.3-3,0.8c-3.9-1.6-8-3-12.7-4.1
			c-1.1-0.3-1.9-1.3-1.9-2.4v-29.6c-10.4-1.5-20.7-1.5-31.1,0v29.6c0,1.1-0.8,2.1-1.9,2.4c-4.7,1.1-8.9,2.4-12.8,4.1
			c-1.1,0.5-2.3,0.1-3-0.8L394,376.5c-9.2,4.9-17.7,11-25.2,18.3l17.4,23.9c0.7,0.9,0.6,2.2-0.1,3.1c-2.9,3.3-5.5,6.9-7.8,10.8
			c-0.6,1-1.8,1.4-2.9,1.1l-28.1-9.1c-4.6,9.4-7.9,19.3-9.6,29.6l28.1,9.1c1.1,0.4,1.8,1.4,1.7,2.6c-0.2,2.2-0.3,4.4-0.3,6.7
			c0,2.3,0.1,4.5,0.3,6.7c0.1,1.1-0.6,2.2-1.7,2.6l-28.1,9.1c1.8,10.3,5,20.2,9.6,29.6l28.1-9.1c1.1-0.4,2.3,0.1,2.9,1.1
			c2.3,3.9,5,7.5,7.8,10.8c0.8,0.9,0.8,2.1,0.1,3.1l-17.4,23.9c7.5,7.3,15.9,13.4,25.2,18.3l17.3-23.9c0.7-0.9,1.9-1.3,3-0.8
			c3.8,1.6,8.1,3,12.7,4.1c1.1,0.3,1.9,1.3,1.9,2.4V579.9z M441.7,529.4c-0.1,0-0.1,0-0.2,0c-27.4-2.5-49.1-24.1-51.7-51.5
			c-0.1-0.7,0.2-1.4,0.6-1.9c0.5-0.5,1.1-0.8,1.8-0.8h37.4c1.1,0,2,0.7,2.4,1.7c1.5,5,5.4,8.8,10.4,10.2c1.1,0.3,1.8,1.3,1.8,2.4
			v37.4c0,0.7-0.3,1.4-0.8,1.8C442.9,529.1,442.3,529.4,441.7,529.4z M395,480.1c3.3,22.8,21.3,40.8,44.2,44v-32.8
			c-5.2-2-9.2-6.1-11.3-11.2H395z M451.9,529.3c-0.6,0-1.2-0.2-1.7-0.6c-0.5-0.5-0.8-1.1-0.8-1.8v-37.4c0-1.1,0.7-2,1.7-2.4
			c4.8-1.5,8.6-5.3,10-10.1c0.3-1,1.3-1.8,2.4-1.8H501c0.7,0,1.4,0.3,1.8,0.8c0.5,0.5,0.7,1.2,0.6,1.9
			c-2.5,27.2-24.1,48.8-51.3,51.4C452.1,529.3,452,529.3,451.9,529.3z M454.4,491.1v32.9c22.6-3.4,40.5-21.3,43.8-44h-32.9
			C463.3,485.1,459.4,489.1,454.4,491.1z M501,469.8h-37.4c-1.1,0-2-0.7-2.4-1.8c-1.5-4.8-5.2-8.6-10-10.1c-1-0.3-1.7-1.3-1.7-2.4
			v-37.4c0-0.7,0.3-1.4,0.8-1.8c0.5-0.5,1.2-0.7,1.9-0.6c27.2,2.6,48.7,24.3,51.3,51.4c0.1,0.7-0.2,1.4-0.6,1.9
			C502.3,469.6,501.7,469.8,501,469.8z M465.3,464.9h32.9c-3.3-22.7-21.2-40.6-43.8-44v32.9C459.4,455.9,463.3,459.9,465.3,464.9z
			 M429.6,469.8h-37.4c-0.7,0-1.4-0.3-1.8-0.8c-0.5-0.5-0.7-1.2-0.6-1.9c2.6-27.4,24.3-49,51.7-51.5c0.7-0.1,1.4,0.2,1.9,0.6
			c0.5,0.5,0.8,1.1,0.8,1.8v37.4c0,1.1-0.7,2.1-1.8,2.4c-5,1.4-8.9,5.3-10.4,10.2C431.7,469.1,430.7,469.8,429.6,469.8z M395,464.9
			h32.9c2.1-5.1,6.2-9.2,11.3-11.2v-32.8C416.4,424.1,398.4,442.1,395,464.9z"/>
	</g>
	<g>
		<path d="M445.8,614.2C445.8,614.2,445.8,614.2,445.8,614.2c-78.1-0.5-141.3-64.4-140.8-142.6c0-1.4,1-2.6,2.5-2.5
			c1.4,0,2.5,1.1,2.5,2.5c-0.5,75.4,60.5,137.1,135.9,137.6c1.4,0,2.5,1.1,2.5,2.5C448.3,613.1,447.2,614.2,445.8,614.2z"/>
	</g>
	<g>
		<path d="M259.4,182.2h-77.7c-1.4,0-2.5-1.1-2.5-2.5c0-1.4,1.1-2.5,2.5-2.5h77.7c1.4,0,2.5,1.1,2.5,2.5
			C261.9,181.1,260.8,182.2,259.4,182.2z"/>
	</g>
	<g>
		<path d="M290.9,234H181.7c-1.4,0-2.5-1.1-2.5-2.5s1.1-2.5,2.5-2.5h109.1c1.4,0,2.5,1.1,2.5,2.5S292.2,234,290.9,234z"/>
	</g>
	<g>
		<path d="M234.2,262.9h-52.4c-1.4,0-2.5-1.1-2.5-2.5s1.1-2.5,2.5-2.5h52.4c1.4,0,2.5,1.1,2.5,2.5S235.6,262.9,234.2,262.9z"/>
	</g>
	<g>
		<path d="M290.9,291.9H181.7c-1.4,0-2.5-1.1-2.5-2.5s1.1-2.5,2.5-2.5h109.1c1.4,0,2.5,1.1,2.5,2.5S292.2,291.9,290.9,291.9z"/>
	</g>
	<g>
		<path d="M270.2,320.9h-88.5c-1.4,0-2.5-1.1-2.5-2.5c0-1.4,1.1-2.5,2.5-2.5h88.5c1.4,0,2.5,1.1,2.5,2.5
			C272.7,319.8,271.6,320.9,270.2,320.9z"/>
	</g>
	<g>
		<path d="M234.2,208.1h-34.6c-1.4,0-2.5-1.1-2.5-2.5s1.1-2.5,2.5-2.5h34.6c1.4,0,2.5,1.1,2.5,2.5S235.6,208.1,234.2,208.1z"/>
	</g>
	<g>
		<path d="M289.7,208.1h-38.8c-1.4,0-2.5-1.1-2.5-2.5s1.1-2.5,2.5-2.5h38.8c1.4,0,2.5,1.1,2.5,2.5S291,208.1,289.7,208.1z"/>
	</g>
	<g>
		<path fill="#6CCDFF" d="M264.1,479.8c0,42.6-34.6,77.2-77.2,77.2c-42.6,0-77.2-34.6-77.2-77.2c0-42.6,34.6-77.2,77.2-77.2
			C229.5,402.6,264.1,437.2,264.1,479.8z"/>
		<path d="M186.9,559.4c-43.9,0-79.7-35.7-79.7-79.6c0-43.9,35.7-79.7,79.7-79.7c43.9,0,79.7,35.7,79.7,79.7
			C266.6,523.7,230.8,559.4,186.9,559.4z M186.9,405.1c-41.2,0-74.7,33.5-74.7,74.7c0,41.2,33.5,74.7,74.7,74.7
			c41.2,0,74.7-33.5,74.7-74.7C261.6,438.6,228.1,405.1,186.9,405.1z"/>
	</g>
	<g>
		<polygon fill="#FFFFFF" points="160.3,436.7 234.2,479.4 160.3,522 		"/>
		<path fill="#231F20" d="M160.3,524.5c-0.4,0-0.9-0.1-1.2-0.3c-0.8-0.4-1.2-1.3-1.2-2.1v-85.3c0-0.9,0.5-1.7,1.2-2.1
			c0.8-0.4,1.7-0.4,2.5,0l73.9,42.6c0.8,0.4,1.2,1.3,1.2,2.1s-0.5,1.7-1.2,2.1l-73.9,42.7C161.2,524.4,160.7,524.5,160.3,524.5z
			 M162.8,441v76.8l66.5-38.4L162.8,441z"/>
	</g>
</g>
</svg>
